<?xml version="1.0" encoding="UTF-8" standalone="no"?>
<svg
   xmlns:dc="http://purl.org/dc/elements/1.1/"
   xmlns:cc="http://creativecommons.org/ns#"
   xmlns:rdf="http://www.w3.org/1999/02/22-rdf-syntax-ns#"
   xmlns:svg="http://www.w3.org/2000/svg"
   xmlns="http://www.w3.org/2000/svg"
   xmlns:sodipodi="http://sodipodi.sourceforge.net/DTD/sodipodi-0.dtd"
   xmlns:inkscape="http://www.inkscape.org/namespaces/inkscape"
   width="33.742401mm"
   height="39.857033mm"
   viewBox="0 0 33.742401 39.857034"
   version="1.1"
   id="svg8"
   inkscape:version="1.0.1 (3bc2e813f5, 2020-09-07, custom)"
   sodipodi:docname="academy_gray.svg">
  <defs
     id="defs2" />
  <sodipodi:namedview
     id="base"
     pagecolor="#ffffff"
     bordercolor="#666666"
     borderopacity="1.0"
     inkscape:pageopacity="0.0"
     inkscape:pageshadow="2"
     inkscape:zoom="0.35"
     inkscape:cx="997.162"
     inkscape:cy="-516.61189"
     inkscape:document-units="mm"
     inkscape:current-layer="layer1"
     showgrid="false"
     inkscape:window-width="1920"
     inkscape:window-height="1028"
     inkscape:window-x="0"
     inkscape:window-y="0"
     inkscape:window-maximized="1"
     fit-margin-top="0"
     fit-margin-left="0"
     fit-margin-right="0"
     fit-margin-bottom="0"
     inkscape:document-rotation="0" />
  <metadata
     id="metadata5">
    <rdf:RDF>
      <cc:Work
         rdf:about="">
        <dc:format>image/svg+xml</dc:format>
        <dc:type
           rdf:resource="http://purl.org/dc/dcmitype/StillImage" />
        <dc:title></dc:title>
      </cc:Work>
    </rdf:RDF>
  </metadata>
  <g
     inkscape:label="Layer 1"
     inkscape:groupmode="layer"
     id="layer1"
     transform="translate(378.35901,281.96991)">
    <g
       id="g5688"
       transform="matrix(0.00364809,0,0,-0.00364809,-385.25633,-239.5957)"
       style="fill:#6d6b6d;fill-opacity:1;stroke:none">
      <path
         id="path5666"
         d="m 6355,11610 c -33,-5 -242,-45 -465,-89 -941,-187 -2566,-497 -2967,-568 -39,-6 -41,-13 -10,-40 51,-47 -4,-31 1037,-301 256,-67 848,-221 1315,-343 1017,-265 1030,-268 1206,-276 208,-9 184,-14 1269,266 278,72 708,183 955,247 1185,306 1451,375 1464,379 20,8 -6,35 -54,56 -45,19 -45,19 -1150,233 -1544,299 -2001,386 -2147,411 -164,27 -361,38 -453,25 z"
         inkscape:connector-curvature="0"
         style="fill:#6d6b6d;fill-opacity:1" />
      <path
         id="path5668"
         d="m 9313,10585 c -11,-8 -29,-34 -39,-57 -18,-40 -19,-76 -19,-534 v -491 l -58,-113 c -34,-67 -57,-125 -57,-144 0,-17 10,-59 22,-91 19,-51 22,-79 22,-185 -1,-110 -6,-141 -37,-260 -102,-384 -118,-466 -103,-523 11,-45 44,-50 311,-45 134,2 246,6 249,9 3,2 -38,177 -90,388 -61,248 -94,403 -94,438 0,41 10,81 41,156 55,136 55,171 1,232 -76,86 -76,86 -77,645 -1,272 -5,516 -10,543 -8,51 -23,59 -62,32 z"
         inkscape:connector-curvature="0"
         style="fill:#6d6b6d;fill-opacity:1" />
      <path
         id="path5670"
         d="m 4632,10228 c 4,-46 21,-229 38,-408 31,-332 43,-396 87,-484 86,-170 422,-381 822,-518 746,-254 1591,-191 2271,168 245,130 398,251 453,360 56,111 69,202 87,634 6,140 13,265 16,278 3,14 0,22 -9,22 -17,0 -308,-67 -522,-121 -325,-81 -697,-184 -1068,-295 -136,-40 -158,-44 -255,-44 -66,0 -141,8 -197,19 -73,16 -981,265 -1585,436 -69,19 -130,35 -135,35 -8,0 -8,-27 -3,-82 z"
         inkscape:connector-curvature="0"
         style="fill:#6d6b6d;fill-opacity:1" />
      <path
         id="path5672"
         d="m 8215,9073 c -111,-91 -377,-246 -545,-318 -889,-380 -1932,-291 -2711,231 -185,124 -195,119 -225,-97 -24,-169 -25,-489 -1,-614 73,-389 235,-706 502,-983 163,-169 291,-265 485,-362 525,-263 1220,-233 1738,75 666,396 1004,1217 822,1993 -12,50 -25,94 -28,96 -4,2 -21,-7 -37,-21 z"
         inkscape:connector-curvature="0"
         style="fill:#6d6b6d;fill-opacity:1" />
      <path
         id="path5674"
         d="m 6330,6609 c -66,-10 -94,-24 -140,-65 -61,-55 -84,-106 -84,-184 0,-109 62,-197 169,-240 97,-39 125,-132 91,-300 -27,-131 -50,-190 -157,-405 -112,-225 -134,-296 -126,-397 7,-79 32,-143 200,-493 204,-429 186,-395 216,-395 35,0 79,31 110,77 36,54 283,582 312,668 20,58 24,90 24,185 0,134 -12,170 -121,370 -114,208 -148,334 -142,525 3,130 8,139 88,168 177,65 226,280 94,411 -63,63 -105,74 -314,78 -96,3 -195,1 -220,-3 z"
         inkscape:connector-curvature="0"
         style="fill:#6d6b6d;fill-opacity:1" />
      <path
         id="path5676"
         d="m 7904,6180 c -68,-22 -137,-77 -185,-147 -17,-24 -137,-248 -266,-496 -354,-682 -374,-719 -613,-1177 -122,-234 -229,-431 -238,-437 -23,-19 -67,-16 -110,6 -76,39 -115,96 -252,361 -73,140 -160,309 -195,375 -34,66 -210,406 -390,755 -361,697 -361,698 -472,740 -122,47 -328,23 -507,-58 -783,-353 -1381,-1180 -1492,-2061 -25,-202 0,-258 126,-275 108,-15 899,-70 1300,-91 698,-36 887,-40 1915,-40 1028,0 1217,4 1915,40 491,26 1235,80 1317,96 104,21 127,65 112,212 -42,416 -192,828 -429,1185 -264,396 -610,706 -1018,911 -219,110 -390,143 -518,101 z"
         inkscape:connector-curvature="0"
         style="fill:#6d6b6d;fill-opacity:1" />
      <path
         id="path5678"
         d="m 2530,3604 c -353,-76 -567,-375 -625,-874 -29,-243 -13,-540 39,-740 91,-351 285,-560 596,-642 76,-20 109,-22 305,-22 195,0 253,4 510,37 586,75 960,98 1625,102 548,3 571,5 682,61 113,57 188,167 188,276 0,49 -3,58 -18,58 -10,0 -214,-18 -453,-40 -239,-21 -663,-60 -944,-85 -280,-25 -582,-52 -670,-60 -969,-90 -1017,-92 -1130,-57 -225,69 -411,282 -471,540 -51,216 -29,514 52,720 69,175 186,316 311,375 63,29 76,32 168,32 90,0 106,-3 160,-29 139,-68 250,-231 280,-412 29,-170 -19,-332 -126,-428 -52,-48 -96,-66 -156,-66 -96,1 -169,57 -223,171 -30,65 -60,191 -60,254 0,31 -2,34 -42,40 -24,3 -55,8 -70,11 -16,3 -28,4 -28,1 0,-2 -14,-76 -31,-163 -40,-203 -50,-406 -25,-504 50,-198 166,-318 345,-356 130,-27 176,-24 1596,111 354,33 600,56 1015,95 239,22 457,45 484,51 105,21 141,66 158,198 12,92 3,329 -17,466 -34,228 -136,555 -196,628 -60,73 3,65 -959,132 -278,19 -823,58 -1212,85 -732,52 -946,59 -1058,34 z"
         inkscape:connector-curvature="0"
         style="fill:#6d6b6d;fill-opacity:1" />
      <path
         id="path5680"
         d="m 9710,3585 c -256,-19 -701,-49 -990,-69 -289,-20 -698,-48 -910,-62 -212,-14 -386,-27 -388,-29 -1,-1 11,-49 27,-106 36,-123 74,-308 98,-474 13,-93 17,-192 17,-446 1,-359 0,-351 65,-369 20,-6 176,-24 346,-40 1575,-152 2515,-243 2645,-256 305,-32 363,-25 415,54 56,85 105,399 105,674 0,451 -100,778 -300,979 -86,87 -182,140 -295,164 -104,22 -307,17 -835,-20 z"
         inkscape:connector-curvature="0"
         style="fill:#6d6b6d;fill-opacity:1" />
      <path
         id="path5682"
         d="m 5969,3433 -67,-4 44,-107 c 99,-244 153,-511 161,-798 10,-332 -39,-633 -146,-910 l -28,-73 616,-3 c 339,-2 636,0 660,3 60,9 81,37 120,163 79,257 106,448 106,751 0,308 -27,493 -110,761 -39,125 -64,169 -115,198 -34,21 -49,21 -605,22 -313,0 -600,-1 -636,-3 z"
         inkscape:connector-curvature="0"
         style="fill:#6d6b6d;fill-opacity:1" />
      <path
         id="path5684"
         d="m 7590,1801 c -128,-39 -196,-158 -141,-247 31,-51 80,-68 206,-71 1028,-26 1460,-50 1985,-109 559,-62 819,-60 1033,10 101,34 197,82 197,101 0,35 -45,43 -430,84 -731,78 -1424,142 -2225,206 -424,34 -576,41 -625,26 z"
         inkscape:connector-curvature="0"
         style="fill:#6d6b6d;fill-opacity:1" />
      <path
         id="path5686"
         d="m 6145,1403 c -105,-5 -255,-25 -255,-34 0,-5 6,-9 13,-9 29,0 176,-103 239,-167 109,-110 169,-212 216,-368 22,-70 55,-135 69,-135 5,0 50,78 102,173 145,265 170,297 233,297 13,0 162,-70 330,-155 168,-85 309,-155 313,-155 15,0 -5,143 -30,216 -33,98 -100,232 -133,267 -41,44 -78,58 -156,63 -90,5 -861,11 -941,7 z"
         inkscape:connector-curvature="0"
         style="fill:#6d6b6d;fill-opacity:1" />
    </g>
  </g>
</svg>
