<?xml version="1.0" encoding="UTF-8" standalone="no"?>
<svg
   xmlns:dc="http://purl.org/dc/elements/1.1/"
   xmlns:cc="http://creativecommons.org/ns#"
   xmlns:rdf="http://www.w3.org/1999/02/22-rdf-syntax-ns#"
   xmlns:svg="http://www.w3.org/2000/svg"
   xmlns="http://www.w3.org/2000/svg"
   xmlns:sodipodi="http://sodipodi.sourceforge.net/DTD/sodipodi-0.dtd"
   xmlns:inkscape="http://www.inkscape.org/namespaces/inkscape"
   version="1.1"
   id="svg10645"
   xml:space="preserve"
   width="89.353867"
   height="89.375465"
   viewBox="0 0 89.353867 89.375463"
   sodipodi:docname="Apache_Solr_Logo.svg"
   inkscape:version="1.0.1 (3bc2e813f5, 2020-09-07, custom)"><metadata
     id="metadata10651"><rdf:RDF><cc:Work
         rdf:about=""><dc:format>image/svg+xml</dc:format><dc:type
           rdf:resource="http://purl.org/dc/dcmitype/StillImage" /><dc:title></dc:title></cc:Work></rdf:RDF></metadata><defs
     id="defs10649"><clipPath
       clipPathUnits="userSpaceOnUse"
       id="clipPath10661"><path
         d="M 0,102.654 H 203.005 V 0 H 0 Z"
         id="path10659"
         inkscape:connector-curvature="0" /></clipPath></defs><sodipodi:namedview
     pagecolor="#ffffff"
     bordercolor="#666666"
     borderopacity="1"
     objecttolerance="10"
     gridtolerance="10"
     guidetolerance="10"
     inkscape:pageopacity="0"
     inkscape:pageshadow="2"
     inkscape:window-width="1920"
     inkscape:window-height="1028"
     id="namedview10647"
     showgrid="false"
     inkscape:zoom="3.4484776"
     inkscape:cx="128.19507"
     inkscape:cy="67.667609"
     inkscape:window-x="0"
     inkscape:window-y="0"
     inkscape:window-maximized="1"
     inkscape:current-layer="g10653"
     inkscape:document-rotation="0" /><g
     id="g10653"
     inkscape:groupmode="layer"
     inkscape:label="lucenesolr"
     transform="matrix(1.3333333,0,0,-1.3333333,-0.48557332,136.10361)"><g
       id="g10655"
       transform="translate(-135.62542,-0.57588864)"><g
         id="g10657"
         clip-path="url(#clipPath10661)"><g
           id="g10679"
           transform="translate(193.9115,92.0414)"><path
             d="M 0,0 -33,-35.677 8.473,-16.543 C 7.246,-10.213 4.242,-4.521 0,0"
             style="fill:#da3522;fill-opacity:1;fill-rule:nonzero;stroke:none"
             id="path10681"
             inkscape:connector-curvature="0" /></g><g
           id="g10683"
           transform="translate(169.4268,102.6536)"><path
             d="M 0,0 C -4.572,0 -8.928,-0.917 -12.9,-2.572 L -17.328,-39.886 4.799,-0.347 C 3.231,-0.122 1.63,0 0,0"
             style="fill:#da3522;fill-opacity:1;fill-rule:nonzero;stroke:none"
             id="path10685"
             inkscape:connector-curvature="0" /></g><g
           id="g10687"
           transform="translate(202.7133,73.4428)"><path
             d="m 0,0 -39.298,-21.992 36.87,4.375 c 1.748,4.065 2.72,8.543 2.72,13.249 C 0.292,-2.886 0.186,-1.431 0,0"
             style="fill:#da3522;fill-opacity:1;fill-rule:nonzero;stroke:none"
             id="path10689"
             inkscape:connector-curvature="0" /></g><g
           id="g10691"
           transform="translate(188.2247,41.2478)"><path
             d="M 0,0 C 4.391,2.972 8.037,6.958 10.612,11.619 L -23.947,4.756 Z"
             style="fill:#da3522;fill-opacity:1;fill-rule:nonzero;stroke:none"
             id="path10693"
             inkscape:connector-curvature="0" /></g><g
           id="g10695"
           transform="translate(176.2492,101.9586)"><path
             d="M 0,0 -19.237,-41.695 16.448,-8.689 C 11.973,-4.384 6.313,-1.303 0,0"
             style="fill:#da3522;fill-opacity:1;fill-rule:nonzero;stroke:none"
             id="path10697"
             inkscape:connector-curvature="0" /></g><g
           id="g10699"
           transform="translate(172.2334,35.622)"><path
             d="M 0,0 C 3.718,0.308 7.264,1.217 10.54,2.638 L -8.818,4.935 Z"
             style="fill:#da3522;fill-opacity:1;fill-rule:nonzero;stroke:none"
             id="path10701"
             inkscape:connector-curvature="0" /></g><g
           id="g10703"
           transform="translate(138.8186,82.8789)"><path
             d="m 0,0 c -1.51,-3.343 -2.489,-6.974 -2.829,-10.792 l 5.215,-9.32 z"
             style="fill:#da3522;fill-opacity:1;fill-rule:nonzero;stroke:none"
             id="path10705"
             inkscape:connector-curvature="0" /></g><g
           id="g10707"
           transform="translate(153.617,98.7011)"><path
             d="m 0,0 c -4.738,-2.534 -8.794,-6.17 -11.832,-10.567 l 4.867,-24.504 z"
             style="fill:#da3522;fill-opacity:1;fill-rule:nonzero;stroke:none"
             id="path10709"
             inkscape:connector-curvature="0" /></g></g></g></g></svg>
