<?xml version="1.0" encoding="UTF-8" standalone="no"?>
<svg
   xmlns:dc="http://purl.org/dc/elements/1.1/"
   xmlns:cc="http://creativecommons.org/ns#"
   xmlns:rdf="http://www.w3.org/1999/02/22-rdf-syntax-ns#"
   xmlns:svg="http://www.w3.org/2000/svg"
   xmlns="http://www.w3.org/2000/svg"
   xmlns:sodipodi="http://sodipodi.sourceforge.net/DTD/sodipodi-0.dtd"
   xmlns:inkscape="http://www.inkscape.org/namespaces/inkscape"
   width="321.4104mm"
   height="438.60394mm"
   viewBox="0 0 321.4104 438.60396"
   version="1.1"
   id="svg8"
   inkscape:version="1.0.1 (3bc2e813f5, 2020-09-07, custom)"
   sodipodi:docname="chemistry_gray.svg">
  <defs
     id="defs2" />
  <sodipodi:namedview
     id="base"
     pagecolor="#ffffff"
     bordercolor="#666666"
     borderopacity="1.0"
     inkscape:pageopacity="0.0"
     inkscape:pageshadow="2"
     inkscape:zoom="0.35"
     inkscape:cx="1015.1132"
     inkscape:cy="835.27275"
     inkscape:document-units="mm"
     inkscape:current-layer="layer1"
     showgrid="false"
     inkscape:window-width="1920"
     inkscape:window-height="1028"
     inkscape:window-x="0"
     inkscape:window-y="0"
     inkscape:window-maximized="1"
     fit-margin-top="0"
     fit-margin-left="0"
     fit-margin-right="0"
     fit-margin-bottom="0"
     inkscape:document-rotation="0" />
  <metadata
     id="metadata5">
    <rdf:RDF>
      <cc:Work
         rdf:about="">
        <dc:format>image/svg+xml</dc:format>
        <dc:type
           rdf:resource="http://purl.org/dc/dcmitype/StillImage" />
        <dc:title></dc:title>
      </cc:Work>
    </rdf:RDF>
  </metadata>
  <g
     inkscape:label="Layer 1"
     inkscape:groupmode="layer"
     id="layer1"
     transform="translate(311.16821,259.27135)">
    <g
       id="g5346"
       transform="matrix(0.03527778,0,0,-0.03527778,-311.2795,192.21779)"
       style="fill:#6d6b6d;stroke:none;fill-opacity:1">
      <path
         id="path5332"
         d="m 4065,12793 c -106,-15 -250,-71 -342,-134 -151,-104 -252,-247 -309,-436 -36,-120 -38,-289 -5,-408 99,-356 395,-585 756,-587 218,-1 410,77 560,227 150,150 229,344 228,560 -2,383 -265,698 -644,770 -76,14 -175,17 -244,8 z"
         inkscape:connector-curvature="0"
         style="fill:#6d6b6d;fill-opacity:1" />
      <path
         id="path5334"
         d="m 2368,11945 c -40,-53 -73,-100 -73,-105 0,-5 47,-47 105,-93 229,-183 407,-363 459,-465 32,-63 82,-222 107,-342 94,-447 77,-1061 -47,-1750 -55,-303 -136,-582 -257,-885 C 2449,7771 2191,7291 1550,6234 854,5088 597,4616 354,4032 41,3282 -69,2554 50,2025 161,1531 438,1066 740,865 1139,600 1896,443 3080,378 c 326,-17 2688,-17 2980,0 964,58 1598,168 2028,353 278,119 439,254 612,512 43,65 81,116 84,115 2,-2 8,1 13,6 5,5 3,6 -4,2 -20,-11 -15,4 21,67 18,31 36,54 40,50 4,-4 4,-1 1,8 -3,8 9,46 26,84 17,39 47,111 66,160 18,50 31,77 28,61 -4,-16 -24,-75 -47,-130 -50,-126 -54,-140 -29,-95 73,132 160,416 197,644 24,146 24,477 0,655 -75,550 -243,1056 -572,1720 -208,420 -425,803 -922,1621 -476,786 -671,1128 -865,1514 -352,705 -509,1204 -592,1888 -86,705 -48,1291 108,1638 31,71 90,164 131,208 17,19 25,30 17,26 -61,-35 93,110 269,253 58,47 109,89 114,93 9,8 -143,211 -155,207 -20,-7 -239,-188 -348,-288 -129,-119 -243,-252 -290,-340 -72,-136 -144,-411 -178,-685 -24,-194 -24,-709 1,-950 88,-865 239,-1380 636,-2176 199,-397 400,-749 933,-1629 l 246,-405 -3086,-3 c -1698,-1 -3088,0 -3091,3 -3,2 64,118 148,257 698,1155 803,1336 1024,1778 390,780 540,1287 631,2130 21,193 31,687 16,862 -27,340 -93,624 -190,817 -71,139 -296,367 -578,584 l -62,47 z m 4022,-468 c 0,-1 -24,-25 -52,-52 l -53,-50 50,53 c 46,48 55,57 55,49 z m -122,-137 c -22,-30 -35,-41 -22,-17 9,16 36,47 41,47 2,0 -6,-13 -19,-30 z m -40,-65 c -6,-14 -13,-23 -15,-21 -5,5 15,46 22,46 3,0 -1,-11 -7,-25 z m -121,-417 c -3,-7 -5,-2 -5,12 0,14 2,19 5,13 2,-7 2,-19 0,-25 z m -10,-60 c -3,-8 -6,-5 -6,6 -1,11 2,17 5,13 3,-3 4,-12 1,-19 z m -10,-65 c -3,-10 -5,-4 -5,12 0,17 2,24 5,18 2,-7 2,-21 0,-30 z m -10,-110 c -3,-10 -5,-4 -5,12 0,17 2,24 5,18 2,-7 2,-21 0,-30 z m -10,-115 c -2,-13 -4,-3 -4,22 0,25 2,35 4,23 2,-13 2,-33 0,-45 z m 0,-520 c -2,-13 -4,-3 -4,22 0,25 2,35 4,23 2,-13 2,-33 0,-45 z m 10,-125 c -3,-10 -5,-2 -5,17 0,19 2,27 5,18 2,-10 2,-26 0,-35 z m 10,-130 c -3,-10 -5,-4 -5,12 0,17 2,24 5,18 2,-7 2,-21 0,-30 z m 10,-75 c -3,-7 -5,-2 -5,12 0,14 2,19 5,13 2,-7 2,-19 0,-25 z m 10,-90 c -3,-8 -6,-5 -6,6 -1,11 2,17 5,13 3,-3 4,-12 1,-19 z m 10,-60 c -3,-8 -6,-5 -6,6 -1,11 2,17 5,13 3,-3 4,-12 1,-19 z m 10,-80 c -3,-8 -6,-5 -6,6 -1,11 2,17 5,13 3,-3 4,-12 1,-19 z m 10,-60 c -3,-8 -6,-5 -6,6 -1,11 2,17 5,13 3,-3 4,-12 1,-19 z m 20,-120 c -3,-8 -6,-5 -6,6 -1,11 2,17 5,13 3,-3 4,-12 1,-19 z m 20,-110 c -3,-8 -6,-5 -6,6 -1,11 2,17 5,13 3,-3 4,-12 1,-19 z M 8300,4940 c 6,-11 8,-20 6,-20 -3,0 -10,9 -16,20 -6,11 -8,20 -6,20 3,0 10,-9 16,-20 z m 260,-515 c 0,-5 -5,-3 -10,5 -5,8 -10,20 -10,25 0,6 5,3 10,-5 5,-8 10,-19 10,-25 z m 300,-720 c 0,-5 -5,-3 -10,5 -5,8 -10,20 -10,25 0,6 5,3 10,-5 5,-8 10,-19 10,-25 z m 147,-547 c -3,-8 -6,-5 -6,6 -1,11 2,17 5,13 3,-3 4,-12 1,-19 z m 10,-40 c -3,-8 -6,-5 -6,6 -1,11 2,17 5,13 3,-3 4,-12 1,-19 z m 20,-110 c -3,-7 -5,-2 -5,12 0,14 2,19 5,13 2,-7 2,-19 0,-25 z m 10,-70 c -3,-8 -6,-5 -6,6 -1,11 2,17 5,13 3,-3 4,-12 1,-19 z m 10,-60 c -3,-8 -6,-5 -6,6 -1,11 2,17 5,13 3,-3 4,-12 1,-19 z m 10,-85 c -3,-10 -5,-4 -5,12 0,17 2,24 5,18 2,-7 2,-21 0,-30 z m 10,-105 c -2,-13 -4,-3 -4,22 0,25 2,35 4,23 2,-13 2,-33 0,-45 z m 10,-280 c -2,-35 -3,-9 -3,57 0,66 1,94 3,63 2,-32 2,-86 0,-120 z m -10,-170 c -2,-13 -4,-5 -4,17 -1,22 1,32 4,23 2,-10 2,-28 0,-40 z m -10,-65 c -3,-10 -5,-4 -5,12 0,17 2,24 5,18 2,-7 2,-21 0,-30 z m -10,-60 c -3,-10 -5,-4 -5,12 0,17 2,24 5,18 2,-7 2,-21 0,-30 z m -17,-88 c -6,-31 -14,-55 -16,-52 -2,2 1,29 7,61 7,31 14,54 16,52 3,-2 -1,-30 -7,-61 z m -23,-87 c -3,-8 -6,-5 -6,6 -1,11 2,17 5,13 3,-3 4,-12 1,-19 z m -17,-68 c -6,-23 -13,-40 -15,-38 -2,2 1,23 7,46 6,24 13,41 15,38 2,-2 -1,-23 -7,-46 z"
         inkscape:connector-curvature="0"
         style="fill:#6d6b6d;fill-opacity:1" />
      <path
         id="path5336"
         d="m 4850,10740 c -465,-72 -651,-631 -321,-961 194,-194 486,-222 715,-68 239,159 318,476 184,733 -43,81 -156,195 -234,234 -111,56 -236,78 -344,62 z"
         inkscape:connector-curvature="0"
         style="fill:#6d6b6d;fill-opacity:1" />
      <path
         id="path5338"
         d="m 4126,8934 c -148,-36 -279,-141 -347,-279 -47,-97 -63,-175 -56,-276 14,-186 127,-354 292,-434 238,-117 522,-43 669,173 59,87 87,166 93,272 21,350 -310,627 -651,544 z"
         inkscape:connector-curvature="0"
         style="fill:#6d6b6d;fill-opacity:1" />
      <path
         id="path5340"
         d="m 4929,7176 c -120,-35 -218,-118 -272,-234 -25,-54 -32,-83 -35,-152 -8,-179 81,-325 247,-404 61,-28 74,-31 166,-31 79,1 111,5 155,23 164,65 265,215 265,392 0,175 -104,329 -265,391 -68,27 -196,34 -261,15 z"
         inkscape:connector-curvature="0"
         style="fill:#6d6b6d;fill-opacity:1" />
      <path
         id="path5342"
         d="m 8836,1453 c -6,-14 -5,-15 5,-6 7,7 10,15 7,18 -3,3 -9,-2 -12,-12 z"
         inkscape:connector-curvature="0"
         style="fill:#6d6b6d;fill-opacity:1" />
      <path
         id="path5344"
         d="m 8816,1413 c -6,-14 -5,-15 5,-6 7,7 10,15 7,18 -3,3 -9,-2 -12,-12 z"
         inkscape:connector-curvature="0"
         style="fill:#6d6b6d;fill-opacity:1" />
    </g>
  </g>
</svg>
