<?xml version="1.0" encoding="UTF-8" standalone="no"?>
<!-- Created with Inkscape (http://www.inkscape.org/) -->

<svg
   xmlns:dc="http://purl.org/dc/elements/1.1/"
   xmlns:cc="http://creativecommons.org/ns#"
   xmlns:rdf="http://www.w3.org/1999/02/22-rdf-syntax-ns#"
   xmlns:svg="http://www.w3.org/2000/svg"
   xmlns="http://www.w3.org/2000/svg"
   xmlns:sodipodi="http://sodipodi.sourceforge.net/DTD/sodipodi-0.dtd"
   xmlns:inkscape="http://www.inkscape.org/namespaces/inkscape"
   width="241.42647mm"
   height="148.77715mm"
   viewBox="0 0 241.42647 148.77715"
   version="1.1"
   id="svg8"
   inkscape:version="0.92.4 5da689c313, 2019-01-14"
   sodipodi:docname="circ_frame_1_blue.svg">
  <defs
     id="defs2">
    <inkscape:path-effect
       effect="sketch"
       id="path-effect821"
       is_visible="true"
       nbiter_approxstrokes="3"
       strokelength="83"
       strokelength_rdm="0.3;1"
       strokeoverlap="0.3"
       strokeoverlap_rdm="0.3;1"
       ends_tolerance="0.1;1"
       parallel_offset="5;1"
       tremble_size="3.7;1"
       tremble_frequency="1"
       nbtangents="5"
       tgt_places_rdmness="0.8;1"
       tgtscale="10"
       tgtlength="98"
       tgtlength_rdm="0.3;1" />
    <inkscape:path-effect
       effect="sketch"
       id="path-effect819"
       is_visible="true"
       nbiter_approxstrokes="5"
       strokelength="100"
       strokelength_rdm="0.3;1"
       strokeoverlap="0.3"
       strokeoverlap_rdm="0.3;1"
       ends_tolerance="0.1;1"
       parallel_offset="5;1"
       tremble_size="5;1"
       tremble_frequency="1"
       nbtangents="5"
       tgt_places_rdmness="1;1"
       tgtscale="10"
       tgtlength="100"
       tgtlength_rdm="0.3;1" />
    <inkscape:path-effect
       effect="clone_original"
       id="path-effect817"
       is_visible="false"
       linkedpath="" />
  </defs>
  <sodipodi:namedview
     id="base"
     pagecolor="#ffffff"
     bordercolor="#666666"
     borderopacity="1.0"
     inkscape:pageopacity="0.0"
     inkscape:pageshadow="2"
     inkscape:zoom="0.35"
     inkscape:cx="-158.57103"
     inkscape:cy="229.72777"
     inkscape:document-units="mm"
     inkscape:current-layer="layer1"
     showgrid="false"
     fit-margin-top="0"
     fit-margin-left="0"
     fit-margin-right="0"
     fit-margin-bottom="0"
     inkscape:window-width="1920"
     inkscape:window-height="1027"
     inkscape:window-x="0"
     inkscape:window-y="0"
     inkscape:window-maximized="1" />
  <metadata
     id="metadata5">
    <rdf:RDF>
      <cc:Work
         rdf:about="">
        <dc:format>image/svg+xml</dc:format>
        <dc:type
           rdf:resource="http://purl.org/dc/dcmitype/StillImage" />
        <dc:title></dc:title>
      </cc:Work>
    </rdf:RDF>
  </metadata>
  <g
     inkscape:label="Layer 1"
     inkscape:groupmode="layer"
     id="layer1"
     transform="translate(27.214391,-60.838323)">
    <path
       style="fill:none;stroke:#95c6c2;stroke-width:0.94194046;stroke-linecap:butt;stroke-linejoin:miter;stroke-miterlimit:4;stroke-dasharray:none;stroke-opacity:1"
       d="M 112.3251,74.816114 C 97.388448,79.000066 82.797941,88.042547 72.03012,99.445463 67.47567,104.26854 63.606713,109.51166 60.667527,115.00313 m 8.61831,-22.897624 c -5.020912,5.602655 -8.897386,11.834104 -11.336833,18.409134 -2.734199,7.36946 -3.671837,15.19296 -2.36096,23.07936 0.817793,4.91993 1.615379,9.8071 2.550764,14.56548 m -7.464681,-6.85155 c 0.685305,7.09226 1.478292,14.04277 2.869883,20.56032 1.494143,6.99785 3.68119,13.5077 7.175473,19.10362 3.307478,5.29676 7.811881,9.81518 14.06304,13.13285 m -5.319628,-6.50213 c 3.158233,3.9072 7.012274,7.29832 11.831044,10.05687 6.803109,3.8945 15.478881,6.50561 26.836821,7.54833 1.38718,0.12735 3.377,0.0883 5.81696,-0.0899 2.44217,-0.17835 5.3245,-0.49511 8.51136,-0.92146 6.34314,-0.84862 13.95039,-2.14123 21.48361,-3.59794 -4e-5,1e-5 0.37489,-0.0726 0.37484,-0.0726 m -29.65607,-4.20727 c 0.20566,-0.0351 0.41285,-0.0708 0.62151,-0.10697 6.06031,-1.05142 13.67893,-2.61375 21.15728,-4.37407 7.55276,-1.77784 15.1957,-3.81169 21.49894,-5.90095 3.15104,-1.04444 5.95831,-2.09971 8.2453,-3.13845 2.28736,-1.0389 4.04432,-2.05671 5.10446,-3.02665 3.37208,-3.08518 6.73003,-6.62292 9.95725,-10.50595 m -11.9429,17.50451 c 1.6326,-0.80446 2.9014,-1.62054 3.6921,-2.41621 5.49432,-5.52897 10.94505,-12.85006 15.69952,-21.268 4.7506,-8.41108 8.80779,-17.92652 11.39518,-27.69358 0.54585,-2.06047 1.02629,-4.1322 1.4342,-6.2076 m -8.76877,18.56515 c 0.85333,-2.84057 1.59211,-5.72084 2.18932,-8.61348 1.82953,-8.86136 2.32912,-17.82506 0.74463,-26.21983 -1.5858,-8.40168 -5.24717,-16.167407 -11.61821,-22.696321 -0.10748,-0.110149 -0.21546,-0.220164 -0.32391,-0.33004 m 12.81045,6.133866 c -2.08721,-3.74572 -4.85745,-7.215046 -8.38651,-10.29846 -9.07639,-7.930234 -21.4864,-14.525336 -34.88062,-18.090698 -1.92271,-0.5118 -3.86137,-0.959808 -5.80763,-1.339165 m 9.23089,4.41634 c -1.96006,-0.820862 -3.95636,-1.588415 -5.97597,-2.293251 -6.18978,-2.160203 -12.60782,-3.734688 -18.88693,-4.446465 -6.28471,-0.712412 -12.42185,-0.560241 -18.08518,0.723322 -10.79366,2.009118 -21.280548,5.841137 -30.484108,11.00676 M 109.10311,64.778848 C 94.121209,70.257451 81.021442,79.097831 71.752555,90.225161 66.34552,96.716326 62.247474,103.98186 59.885031,111.74085 c -0.549879,1.80597 -1.005831,3.6392 -1.36206,5.4959 M 62.72083,98.830878 c -2.759935,4.293712 -5.054643,8.782222 -6.739882,13.401632 -2.691571,7.37786 -3.818542,15.06513 -2.829513,22.77953 0.987791,7.70473 1.795919,15.21911 3.218742,22.29449 0.454511,2.26018 0.970781,4.4699 1.573841,6.619 m -7.06981,-20.30329 c 0.645153,3.39844 1.305313,6.70378 2.049535,9.89016 1.686096,7.21902 3.803185,13.82176 7.143387,19.51474 3.334397,5.68308 7.892176,10.45872 14.382078,13.90615 5.553619,2.95008 12.513664,4.92457 21.382805,5.64989 m -19.751493,2.74167 c 6.53451,3.12759 14.54591,5.34596 24.74625,6.70781 1.40933,0.18817 3.43175,0.2409 5.91009,0.19445 2.47438,-0.0464 5.41478,-0.19199 8.64297,-0.40099 6.19524,-0.40109 14.39443,-1.10479 21.7636,-1.80988 2.93388,-0.28072 5.92803,-0.58047 8.78003,-0.88533 m -13.93706,-1.84747 c 2.72269,-0.43185 5.50754,-0.91716 8.28496,-1.44349 7.09229,-1.34402 14.22833,-2.97318 19.90312,-4.63488 2.8553,-0.83609 5.37871,-1.69099 7.40778,-2.54814 2.03136,-0.85813 3.57099,-1.71998 4.47121,-2.57442 3.69088,-3.50324 7.21356,-7.63257 10.32423,-12.11199 m -6.22105,4.00419 c 4.66888,-5.28664 8.98163,-11.48105 12.54336,-18.17505 4.2499,-7.98737 7.42692,-16.67686 8.92324,-25.45261 0.91193,-5.34833 1.19928,-10.72815 0.72263,-15.98699 m -0.70998,18.90014 c 1.63038,-8.40435 1.91771,-16.93249 0.19521,-24.87759 -1.7649,-8.14066 -5.63995,-15.652256 -12.25,-21.745045 -5.2475,-4.836864 -11.59527,-9.273596 -18.43647,-12.77099 m 16.2225,9.458405 c -8.41919,-6.929848 -19.4846,-13.547926 -30.93892,-18.196053 -6.30158,-2.557163 -12.75341,-4.530954 -19.01245,-5.63183 -6.26659,-1.102206 -12.32203,-1.326859 -17.87546,-0.411077 -2.40049,0.298125 -4.77698,0.689032 -7.11823,1.167089 m 22.24721,-2.449047 c -5.5871,-0.238355 -10.98618,0.306127 -15.96045,1.822253 -17.474659,4.584406 -33.566766,14.927598 -44.636242,28.762827 -2.61281,3.265632 -4.941495,6.720999 -6.936681,10.331258 M 108.91769,63.586014 C 94.005882,68.503941 80.747853,76.988101 71.581868,87.453033 66.895132,92.803944 63.272621,98.67739 61.037252,104.85461 m -2.105089,-5.296995 c -3.976517,5.082125 -7.125409,10.613725 -9.175487,16.400055 -2.567351,7.24632 -3.415584,14.90653 -1.992033,22.57338 1.423789,7.66813 2.805715,15.15646 4.882542,22.16529 0.891467,3.0085 1.909139,5.92104 3.10841,8.70507 m -3.08949,-21.21671 c 0.589019,3.65387 1.218977,7.23146 1.975358,10.68814 1.546443,7.0673 3.621062,13.62659 6.951384,19.30691 3.326093,5.67312 7.913989,10.47934 14.441796,13.96201 6.09317,3.25079 13.93637,5.37356 24.000017,5.85238 M 82.295047,194.8498 c 6.014566,2.62432 13.632221,4.4358 23.432573,5.32821 1.39359,0.1269 3.40045,0.0923 5.86882,-0.0664 2.46018,-0.15812 5.40933,-0.44179 8.64352,-0.81516 6.37775,-0.73627 14.32216,-1.87514 21.89113,-3.19723 7.69301,-1.34376 15.21131,-2.91129 21.40957,-4.64748 m -25.07487,6.22628 c 0.89481,-0.20852 1.78986,-0.42274 2.68349,-0.64244 7.40824,-1.82134 14.56346,-3.98253 20.48406,-6.28093 2.93854,-1.14075 5.53173,-2.30025 7.6282,-3.43337 2.0941,-1.13183 3.69316,-2.23769 4.6314,-3.2679 5.64137,-6.19435 10.98236,-14.11134 15.40148,-23.13793 2.42698,-4.95738 4.57096,-10.23984 6.32686,-15.73183 m -16.8042,25.30418 c 1.26472,-2.02297 2.48612,-4.11507 3.6504,-6.26083 4.33969,-7.998 7.90671,-16.77788 9.97737,-25.60912 2.07373,-8.84436 2.65012,-17.74821 1.02636,-26.05733 -1.34781,-6.89702 -4.20746,-13.36184 -8.9488,-19.023957 m 11.2304,14.834767 c -0.14168,-0.95292 -0.3156,-1.89888 -0.52264,-2.83649 -1.75785,-7.960492 -5.9158,-15.360593 -13.05913,-21.260066 -9.09357,-7.510113 -21.40893,-13.866644 -34.33703,-16.951288 -1.92789,-0.459994 -3.86669,-0.846618 -5.80784,-1.153556 m 21.99978,9.836091 c -4.2509,-2.149385 -8.66613,-4.020082 -13.14487,-5.532368 -6.3882,-2.15703 -12.90005,-3.582867 -19.23624,-4.049724 -6.33381,-0.466683 -12.4932,0.02507 -18.16157,1.7067 -2.53413,0.647599 -5.04997,1.410415 -7.53816,2.2808 M 91.459588,209.1026 214.00646,174.87604 M 207.35234,115.21849 172.74177,72.789587 M 206.13386,134.35343 188.80479,80.976038 M 46.482644,103.78732 66.237028,208.17675 m 91.483912,-14.68092 27.04383,-16.92108"
       id="path815"
       inkscape:connector-curvature="0"
       sodipodi:nodetypes="cssssc"
       inkscape:path-effect="#path-effect821"
       inkscape:original-d="m 114.90476,66.434523 c -35.154966,8.217969 -65.708474,38.622627 -61.492568,69.739147 4.205483,31.03957 6.535427,60.28466 51.665178,64.06442 11.02192,0.92312 60.52419,-9.11941 68.03573,-16.63095 22.53089,-22.53089 40.47118,-69.24104 12.17117,-94.578861 -17.94888,-16.070157 -48.209,-28.704116 -70.37951,-22.593756 z"
       transform="matrix(1.4354366,0,0,1,-93.186239,0)" />
  </g>
</svg>
