<?xml version="1.0" encoding="UTF-8" standalone="no"?>
<!-- Created with Inkscape (http://www.inkscape.org/) -->

<svg
   xmlns:dc="http://purl.org/dc/elements/1.1/"
   xmlns:cc="http://creativecommons.org/ns#"
   xmlns:rdf="http://www.w3.org/1999/02/22-rdf-syntax-ns#"
   xmlns:svg="http://www.w3.org/2000/svg"
   xmlns="http://www.w3.org/2000/svg"
   xmlns:sodipodi="http://sodipodi.sourceforge.net/DTD/sodipodi-0.dtd"
   xmlns:inkscape="http://www.inkscape.org/namespaces/inkscape"
   width="272.67902mm"
   height="160.74428mm"
   viewBox="0 0 272.67902 160.74428"
   version="1.1"
   id="svg8"
   inkscape:version="0.92.4 5da689c313, 2019-01-14"
   sodipodi:docname="circ_frame.svg">
  <defs
     id="defs2" />
  <sodipodi:namedview
     id="base"
     pagecolor="#ffffff"
     bordercolor="#666666"
     borderopacity="1.0"
     inkscape:pageopacity="0.0"
     inkscape:pageshadow="2"
     inkscape:zoom="0.7"
     inkscape:cx="605.41599"
     inkscape:cy="302.29521"
     inkscape:document-units="mm"
     inkscape:current-layer="layer1"
     showgrid="false"
     inkscape:window-width="1920"
     inkscape:window-height="1027"
     inkscape:window-x="0"
     inkscape:window-y="0"
     inkscape:window-maximized="1"
     fit-margin-top="0"
     fit-margin-left="0"
     fit-margin-right="0"
     fit-margin-bottom="0" />
  <metadata
     id="metadata5">
    <rdf:RDF>
      <cc:Work
         rdf:about="">
        <dc:format>image/svg+xml</dc:format>
        <dc:type
           rdf:resource="http://purl.org/dc/dcmitype/StillImage" />
        <dc:title></dc:title>
      </cc:Work>
    </rdf:RDF>
  </metadata>
  <g
     inkscape:label="Layer 1"
     inkscape:groupmode="layer"
     id="layer1"
     transform="translate(368.9434,147.54658)">
    <path
       style="fill:#95c6c2;stroke:none;stroke-width:0.03527778;fill-opacity:1"
       inkscape:connector-curvature="0"
       d="m -247.42967,-147.28092 c -35.59528,2.43416 -65.72251,11.53583 -87.66528,26.45833 -17.67417,11.99445 -28.7514,26.670002 -32.70251,43.356392 -1.16416,5.009445 -1.51694,14.710834 -0.70555,19.931946 1.48166,9.242778 5.32694,18.203334 11.43,26.458335 3.31611,4.515556 11.07722,12.100278 16.40417,16.05139 9.525,7.1261114 20.70805,12.8763895 33.09055,17.0391675 5.78556,1.9402779 12.7,3.8100003 12.7,3.4572225 0,-0.1763889 -1.05833,-0.5644445 -2.36361,-0.9172223 -16.96861,-4.48027806 -31.4325,-11.218334 -43.4975,-20.2141677 -4.86833,-3.633612 -12.73528,-11.394723 -15.94556,-15.73389 -12.02972,-16.157223 -15.06361,-35.136669 -8.50194,-52.775559 9.38389,-25.153054 36.97111,-45.331944 75.74139,-55.386114 18.0975,-4.69195 34.07834,-6.70278 55.88001,-6.94972 21.62527,-0.28223 36.83,0.98777 57.36167,4.83305 3.10444,0.56445 5.715,0.98778 5.78555,0.91722 1.05834,-1.05833 -19.86139,-4.58611 -36.08917,-6.06777 -7.40833,-0.67028 -33.655,-0.98778 -40.92222,-0.45861 z"
       id="path5819" />
    <path
       style="fill:#95c6c2;stroke:none;stroke-width:0.03527778;fill-opacity:1"
       inkscape:connector-curvature="0"
       d="m -261.15273,-144.31759 c -12.7,1.905 -24.34167,4.65667 -36.195,8.60778 -16.8275,5.60916 -30.7975,12.62944 -42.65084,21.44889 -5.11527,3.81 -13.15861,11.81805 -16.33361,16.33361 -4.58611,6.491111 -7.97278,14.040556 -9.525,21.272501 -1.09361,5.185834 -1.09361,14.428612 0,19.508612 3.59833,16.651113 13.93472,30.480002 32.34973,43.356392 4.445,3.104445 10.33638,6.7027783 10.58333,6.4558338 0.10583,-0.1058333 -1.19945,-1.0230556 -2.89278,-2.0461112 -3.4925,-2.0813886 -9.63083,-6.2794446 -9.63083,-6.5616666 0,-0.105834 0.91722,0.458611 2.04611,1.234722 20.14361,13.6525007 48.08361,22.3308346 82.44417,25.646946 8.07861,0.740833 28.92778,1.058333 37.07695,0.529167 26.74055,-1.7638894 46.355,-6.8791675 68.05083,-17.8505571 16.86278,-8.5372229 26.8464,-16.4041679 33.54917,-26.4936129 6.13834,-9.2075 9.13695,-18.59139 8.99584,-27.975279 -0.0706,-4.268612 -0.14111,-4.691945 -0.88195,-4.409723 -0.35277,0.141111 -0.49389,-0.705556 -0.67027,-3.81 -0.14112,-2.187223 -0.45862,-5.044723 -0.74084,-6.314723 -0.70555,-3.210278 -3.03389,-9.066389 -5.00944,-12.523612 -7.09084,-12.523609 -21.66056,-24.553339 -39.37001,-32.490839 -2.46944,-1.09361 -4.445,-2.08139 -4.37444,-2.15194 0.3175,-0.3175 10.44222,3.77472 15.91028,6.42056 15.31056,7.40833 26.07028,16.192496 33.05528,27.022775 4.62139,7.090834 6.596943,12.558889 8.254999,22.860001 0.3175,1.940278 0.846667,0.881945 0.846667,-1.622778 -0.03528,-4.621389 -2.222501,-12.100278 -5.326946,-18.062223 -5.04472,-9.666112 -14.14639,-18.944165 -25.36472,-25.929165 -15.73389,-9.77195 -35.80695,-16.22778 -63.32362,-20.42584 -13.15861,-2.01083 -17.35667,-2.36361 -30.37417,-2.57528 -22.43666,-0.35277 -40.99278,1.34056 -59.12556,5.36223 -36.86528,8.255 -63.39417,25.50583 -72.77806,47.342777 -2.50472,5.785556 -3.56305,11.994446 -3.24555,18.803057 0.52916,10.689168 3.31611,17.991668 10.86555,28.398613 0.42334,0.599722 0.21167,0.458611 -0.52916,-0.352778 -1.79917,-2.010833 -5.57389,-7.690556 -7.02028,-10.583334 -1.55222,-3.104444 -3.13972,-7.62 -3.98639,-11.288889 -0.81139,-3.527778 -0.91722,-12.841112 -0.17639,-16.580557 1.69333,-8.501945 6.63222,-17.850557 13.26445,-25.153057 15.31055,-16.756942 38.34694,-28.469172 69.14445,-35.136672 7.44361,-1.62277 10.40694,-2.64583 10.40694,-3.59833 0,-1.79917 -10.93611,-0.35278 -23.60083,3.10444 -37.14751,10.16 -63.32362,29.66862 -71.43751,53.30473 -1.83444,5.362222 -2.43417,9.066389 -2.43417,15.41639 0,7.514167 1.09362,12.735278 4.02167,19.296945 1.09361,2.469445 1.09361,2.998612 -0.0353,0.846667 -0.9525,-1.940278 -1.5875,-2.257778 -1.27,-0.705556 0.70556,3.66889 6.31473,12.453057 11.88862,18.661946 2.01083,2.2225 3.10444,3.598334 2.43416,3.033889 -1.72861,-1.411111 -5.96194,-6.138334 -8.21972,-9.172223 -5.29167,-7.020278 -8.64306,-14.287501 -10.37167,-22.436668 -0.91722,-4.268611 -0.88194,-14.851945 0.0353,-19.050001 2.11667,-9.807223 7.19667,-19.367501 14.74611,-27.763609 2.43417,-2.71639 1.37584,-2.46945 -1.23472,0.28222 -5.15056,5.397499 -10.4775,14.287499 -12.77056,21.237222 -5.64444,17.145001 -2.01083,34.783891 10.37167,50.165003 1.09361,1.340556 3.95111,4.445 6.38528,6.843889 2.8575,2.857501 3.52778,3.633612 1.905,2.222501 -13.47611,-11.712223 -21.44889,-26.846391 -22.15445,-42.051114 -0.49389,-11.218334 3.28084,-23.106946 10.65389,-33.513891 3.28084,-4.69194 11.81806,-13.15861 17.42723,-17.32139 18.83833,-14.04056 45.12028,-23.70667 77.92861,-28.71611 5.3975,-0.81139 7.33778,-1.27 5.04472,-1.19945 -0.56444,0 -3.52777,0.38806 -6.63222,0.84667 z m 83.9964,24.72972 c -0.10584,0.10584 -0.42334,0.14111 -0.67028,0.0353 -0.28222,-0.10583 -0.17639,-0.21167 0.21166,-0.21167 0.38806,-0.0353 0.59973,0.0706 0.45862,0.17639 z m 6.20889,1.72861 c 8.18444,2.50473 18.7325,6.77334 17.63889,7.12612 -0.21167,0.0706 -1.05834,-0.17639 -1.83445,-0.59973 -2.8575,-1.44639 -9.48972,-4.02166 -15.5575,-6.0325 -7.37306,-2.43416 -7.51417,-2.71639 -0.24694,-0.49389 z m -51.6114,1.44639 c 2.61056,0.28223 5.96195,0.52917 7.40834,0.52917 1.44639,-0.0353 3.59833,0.17639 4.7625,0.45861 1.16416,0.28222 4.19805,0.77611 6.70278,1.09361 5.89138,0.77611 14.74611,2.39889 20.10833,3.73945 6.17361,1.55222 17.42722,5.3975 21.66056,7.40833 2.32833,1.09361 3.77472,1.62278 3.91583,1.37583 0.3175,-0.52916 1.30528,-0.10583 3.52778,1.5875 1.05833,0.811393 4.09222,2.92806 6.70278,4.691949 4.69194,3.139722 11.35944,8.678334 11.7475,9.736667 0.14111,0.3175 0.42333,0.458611 0.67028,0.388056 0.84666,-0.3175 5.00944,6.985 6.45583,11.218334 1.02305,3.104444 1.83444,10.018889 1.23472,10.618612 -0.24694,0.246944 -0.35278,0.07055 -0.35278,-0.599723 0,-0.529166 -0.14111,-0.9525 -0.35277,-0.9525 -0.17639,0 -0.35278,0.529167 -0.35278,1.164167 0,1.5875 -0.91722,4.586111 -2.18722,7.055556 -0.56445,1.164167 -0.84667,1.975556 -0.67028,1.834445 0.59972,-0.352778 0.45861,0.141111 -0.35278,1.446388 -0.81139,1.340556 -1.27,1.622778 -0.635,0.388056 0.49389,-0.9525 0.0706,-0.529167 -1.27,1.305278 -0.56444,0.776111 -0.81139,1.27 -0.59972,1.128889 1.86972,-1.164167 -2.54,3.845278 -6.10306,6.914445 -1.55222,1.340555 -3.28083,2.892778 -3.88055,3.421944 -1.69334,1.516945 -3.91584,2.928056 -9.13695,5.856112 -5.96194,3.351389 -9.34861,4.938889 -16.43944,7.761111 -2.99862,1.199445 -5.43278,2.328334 -5.36223,2.504723 0.10584,0.388055 3.42195,0.246944 8.14917,-0.423333 4.93889,-0.670278 4.90361,-0.670278 3.98639,0.3175 -2.92806,3.104444 -12.45306,6.6675 -28.64556,10.653889 -3.59833,0.881945 -6.6675,1.658056 -6.87917,1.763889 -0.17638,0.105833 0.84667,0.07056 2.29306,-0.03528 1.72861,-0.105833 2.54,-0.07055 2.29306,0.141111 -0.59973,0.599723 -7.9375,2.9280562 -9.66612,3.1044451 -0.88194,0.070556 -7.65527,0.3175 -15.02833,0.4938889 -13.19389,0.3527778 -18.69722,0.7055556 -23.70667,1.5522223 -1.41111,0.2469445 -2.68111,0.3175 -2.82222,0.1763889 -0.17639,-0.1411111 -1.05833,-0.5644445 -2.01083,-0.9525 l -1.72862,-0.6702779 4.55084,-0.2469444 c 6.20889,-0.3175 9.38389,-0.5997223 9.13694,-0.8819445 -0.14111,-0.1058334 -3.73944,-0.2116667 -8.04333,-0.2469445 -6.73806,0 -8.60778,-0.1411111 -13.47611,-0.9524999 -11.85334,-1.940278 -21.97806,-4.409723 -30.76223,-7.47889 -2.46944,-0.846666 -4.55083,-1.481666 -4.62139,-1.446388 -0.21166,0.211666 6.91445,2.892777 11.21834,4.233333 4.58611,1.411111 10.30111,2.8575 13.93472,3.598334 l 2.46945,0.458611 -2.99862,-0.176389 c -10.4775,-0.635 -24.41222,-4.1275 -35.77166,-8.960556 -6.10306,-2.575278 -7.83167,-3.704167 -2.68112,-1.728611 2.96334,1.164166 11.85334,3.845278 12.66473,3.845278 0.10583,0 0.0353,-0.141112 -0.14111,-0.3175 -0.21167,-0.176389 -2.32834,-0.917223 -4.7625,-1.622778 -11.71223,-3.421945 -21.69584,-8.572501 -29.10417,-14.993057 -7.05556,-6.103056 -12.98223,-14.46389 -13.89945,-19.54389 -0.49389,-2.681111 -0.49389,-8.643056 0,-11.359445 1.72861,-9.736667 8.67834,-20.531668 18.30917,-28.363335 1.05833,-0.881945 -0.0706,0.388055 -2.50472,2.822222 -6.10306,6.032501 -9.13695,10.512779 -11.1125,16.36889 -0.45861,1.340556 -0.91723,3.245556 -1.02306,4.233334 l -0.21167,1.799166 1.19945,-2.822222 c 3.45722,-8.113889 6.35,-12.382501 12.10028,-17.709445 5.25639,-4.903612 8.5725,-7.267223 13.19389,-9.525001 2.2225,-1.09361 4.55083,-2.32833 5.11528,-2.75166 0.59972,-0.45862 2.64583,-1.41112 4.58611,-2.11667 1.94028,-0.70556 3.84528,-1.48167 4.23333,-1.69334 1.44639,-0.74083 7.44361,-2.78694 8.18445,-2.75166 0.42333,0 2.82222,-0.52917 5.29166,-1.23472 12.73528,-3.4925 29.28056,-5.82084 45.08501,-6.35 3.4925,-0.14112 6.91444,-0.35278 7.58472,-0.49389 1.905,-0.42334 3.66889,-0.38806 8.81944,0.21166 z m 82.7264,12.94695 c 1.55222,1.05833 2.78694,2.11667 2.71639,2.36361 -0.0353,0.21167 0.0705,0.3175 0.28222,0.17639 0.49389,-0.3175 5.85611,4.26861 8.71361,7.44361 5.32695,5.856112 8.89,12.065001 10.51278,18.27389 0.98778,3.81 1.41111,9.278056 0.98778,12.029723 -0.24695,1.411111 -0.3175,0.917222 -0.3175,-2.645833 -0.0706,-8.396112 -2.29306,-14.816668 -7.72584,-22.189724 -2.29305,-3.139722 -7.47889,-8.396112 -10.795,-11.006667 -1.51694,-1.199449 -2.68111,-2.293059 -2.61055,-2.434169 0.17639,-0.28222 -4.58612,-3.38667 -8.36084,-5.46805 -1.34055,-0.70556 -2.39889,-1.37584 -2.39889,-1.44639 0,-0.35278 6.42056,3.13972 8.99584,4.90361 z m 25.18833,25.893889 c 1.37584,4.092222 1.94028,8.184445 1.72861,12.55889 -0.17639,3.598333 -1.16416,8.360833 -1.72861,8.360833 -0.14111,0 -0.49389,0.635 -0.70555,1.446389 -0.35278,1.058334 -0.52917,1.27 -0.74084,0.881945 -0.17639,-0.3175 -0.0353,-1.5875 0.38806,-3.210278 0.9525,-3.527778 1.5875,-9.666112 1.30528,-12.311945 -0.59973,-5.679723 -0.59973,-5.432778 -0.21167,-4.268612 0.21167,0.564445 0.45861,2.751667 0.59972,4.833056 0.10584,2.151945 0.35278,3.704167 0.52917,3.598334 0.70555,-0.458611 -0.49389,-8.678334 -1.83445,-12.629446 -0.52916,-1.5875 -1.09361,-3.175 -1.23472,-3.563055 -0.10583,-0.388056 0.0353,-0.282223 0.3175,0.246944 0.3175,0.529167 1.02306,2.328334 1.5875,4.056945 z m 7.65528,5.185834 c 0.49389,1.763889 1.09361,4.303889 1.30528,5.609167 0.24694,1.340555 0.52917,2.293055 0.70555,2.151944 0.14112,-0.141111 0.24695,0.246945 0.24695,0.846667 0,1.481667 -0.49389,1.411111 -1.48167,-0.105834 -0.45861,-0.670277 -0.91722,-1.234722 -1.02305,-1.234722 -0.45862,0 -0.67028,1.164167 -0.3175,1.5875 0.52916,0.635 0.0353,4.339167 -0.77612,5.820834 l -0.67027,1.234722 0.21166,-1.058333 c 0.10584,-0.599722 0.3175,-3.351389 0.42334,-6.103056 0.21166,-5.715 -0.21167,-9.948334 -1.48167,-14.358057 -0.45861,-1.552222 -0.91722,-3.139722 -1.02306,-3.527778 -0.14111,-0.388055 0.49389,0.776112 1.41112,2.610556 0.88194,1.799167 2.01083,4.762501 2.46944,6.52639 z m -8.43139,8.501944 c -0.14111,4.056945 -0.70555,7.373057 -1.34055,8.078612 -0.49389,0.529167 -0.38806,-1.446389 0.24694,-4.374445 0.3175,-1.481666 0.56444,-4.445 0.56444,-6.702778 0.0353,-3.351389 0.0706,-3.81 0.35278,-2.645833 0.17639,0.776111 0.28222,3.316111 0.17639,5.644444 z m 11.46528,3.421945 c -0.3175,0.3175 -0.42333,0.03528 -0.38806,-1.164167 l 0.0353,-1.552222 0.38806,1.164167 c 0.24694,0.846667 0.24694,1.27 -0.0353,1.552222 z m 0.17639,1.763889 c -0.10583,0.282222 -0.21167,0.176389 -0.21167,-0.211667 -0.0353,-0.388055 0.0706,-0.599722 0.17639,-0.458611 0.10583,0.105834 0.14111,0.423334 0.0353,0.670278 z m -0.42333,2.046111 c -0.3175,1.446389 -0.59973,1.164167 -0.3175,-0.3175 0.14111,-0.599722 0.3175,-1.058333 0.38805,-0.9525 0.10583,0.07056 0.0706,0.670278 -0.0705,1.27 z m -26.10556,0.352778 c -0.3175,0.635 -0.67028,1.058334 -0.74084,0.9525 -0.10583,-0.105833 0.0706,-0.670278 0.38806,-1.305278 0.3175,-0.635 0.67028,-1.058333 0.74083,-0.9525 0.10584,0.105834 -0.0705,0.670278 -0.38805,1.305278 z m 20.67278,3.069167 c -0.42334,0.705556 -0.49389,0.493889 -0.17639,-0.423333 0.14111,-0.3175 0.3175,-0.493889 0.38805,-0.388056 0.10584,0.07056 0,0.458611 -0.21166,0.811389 z m 4.55083,2.963334 c -2.29306,8.960556 -7.65528,18.626667 -13.72306,24.694446 -10.30111,10.265834 -26.45833,19.7202786 -45.72,26.7758346 -9.91305,3.6336113 -17.25083,5.5033337 -26.10556,6.7027782 -14.71083,1.9755557 -42.08639,2.6105562 -57.67917,1.3758334 -26.3525,-2.081389 -51.15278,-8.6077783 -71.36695,-18.6972234 -8.21972,-4.1274998 -16.15722,-9.8777788 -23.03639,-16.7216678 -3.52777,-3.4925 -3.73944,-3.739445 -0.88194,-1.058333 8.32556,7.902222 15.66333,12.911667 27.02278,18.5208342 23.63611,11.6769452 51.36445,17.63889 82.19723,17.63889 30.69167,0 58.42,-5.8913893 82.26778,-17.4977789 2.68111,-1.3052778 5.08,-2.3636113 5.29167,-2.2930553 0.24694,0.03528 0.81139,-0.176389 1.23472,-0.423334 0.45861,-0.282222 1.94028,-0.9525 3.35139,-1.446389 1.41111,-0.529166 2.92805,-1.27 3.42194,-1.658055 0.45861,-0.352778 1.55223,-0.987778 2.36361,-1.375834 6.06778,-2.751667 10.12473,-6.491111 19.79084,-18.168056 l 1.16417,-1.411112 -1.55223,1.234723 c -0.84666,0.670277 -2.04611,1.622777 -2.64583,2.081389 -0.59972,0.493889 0.91722,-1.199445 3.35139,-3.704167 4.83305,-4.974167 6.10305,-6.52639 6.45583,-7.937501 0.10584,-0.529166 0.52917,-1.305278 0.91722,-1.763889 l 0.74084,-0.846666 -0.56445,1.234722 c -0.52916,1.164167 -0.52916,1.199444 0.0353,0.529166 0.81139,-0.987777 2.75167,-5.221111 3.52778,-7.761111 0.9525,-2.963334 1.02306,-1.516945 0.14111,1.975556 z m -23.1775,10.336389 c -0.14111,0.282222 -1.94028,2.293056 -3.98639,4.480278 -9.73667,10.477501 -23.53028,18.697224 -40.56945,24.271113 -1.27,0.388055 -3.95111,1.023055 -5.96194,1.411111 -2.01084,0.3527778 -3.77472,0.8819445 -3.95111,1.128889 -0.35278,0.5644445 -4.93889,0.4938889 -5.29167,-0.1058334 -0.3175,-0.4938889 -2.75167,-0.035278 -4.445,0.811389 -0.9525,0.4938889 -2.04611,0.6702778 -3.88056,0.6702778 -1.41111,0 -2.57527,-0.1058333 -2.57527,-0.2822222 0,-0.1411112 -1.16417,-0.1763889 -2.54,-0.1411112 -1.41112,0.070556 -2.50473,0.070556 -2.39889,-0.035278 0.10583,-0.1058334 2.25777,-0.4233334 4.7625,-0.7408334 21.51944,-2.6105556 43.815,-10.4775006 58.84333,-20.7433346 4.30389,-2.963333 4.23334,-3.280833 -0.10583,-0.423333 -3.38667,2.2225 -12.10028,6.843889 -12.87639,6.843889 -0.17639,0 1.62278,-1.058333 4.02167,-2.328333 7.51416,-3.915834 14.99305,-9.172223 19.08528,-13.335001 1.97555,-2.046111 2.36361,-2.328334 1.86972,-1.481667 z m -219.85113,7.866945 c 0.45862,0.564445 0.42334,0.599722 -0.10583,0.141111 -0.35278,-0.246944 -0.635,-0.529167 -0.635,-0.599722 0,-0.282222 0.28222,-0.105833 0.74083,0.458611 z m 11.99445,15.522223 c 0.45861,0.564445 0.42333,0.599723 -0.10583,0.141111 -0.35278,-0.246944 -0.635,-0.529166 -0.635,-0.599722 0,-0.282222 0.28222,-0.105833 0.74083,0.458611 z m 82.33834,6.8086118 1.05833,0.2822222 h -1.05833 c -0.56445,0 -1.51695,-0.1411111 -2.11667,-0.2822222 l -1.05833,-0.2822218 h 1.05833 c 0.59972,0 1.55222,0.1411107 2.11667,0.2822218 z m 45.15556,2.5047224 c -0.77611,0.1411111 -2.2225,0.4938889 -3.24556,0.7055556 -1.69333,0.3880556 -3.31611,0.2116667 -2.78694,-0.2822223 0.21166,-0.2469444 4.30389,-0.7055556 6.38527,-0.7408333 0.88195,0 0.81139,0.035278 -0.35277,0.3175 z m -72.67223,6.27944482 c 12.80583,2.50472238 29.28056,4.44500028 45.86111,5.43277808 5.18584,0.2822223 6.63223,0.4586112 4.7625,0.5291667 -3.73944,0.1763889 -18.62666,-0.5644444 -24.69444,-1.1994445 -7.09084,-0.7055556 -15.69861,-2.081389 -22.50723,-3.52777798 -7.65527,-1.65805562 -10.12472,-2.50472242 -3.42194,-1.2347223 z"
       id="path5821" />
    <path
       style="fill:#95c6c2;stroke:none;stroke-width:0.03527778;fill-opacity:1"
       inkscape:connector-curvature="0"
       d="m -174.22828,-26.983695 c -1.05833,0.388056 -3.77472,1.199445 -5.99722,1.763889 -2.2225,0.599723 -4.1275,1.164167 -4.19806,1.234723 -0.0705,0.07055 0.9525,0.03528 2.29306,-0.105834 1.69333,-0.141111 3.63361,-0.705555 6.31472,-1.799166 2.15195,-0.846667 3.95111,-1.622778 4.02167,-1.693334 0.3175,-0.282222 -0.52917,-0.07055 -2.43417,0.599722 z"
       id="path5823" />
    <path
       style="fill:#95c6c2;stroke:none;stroke-width:0.03527778;fill-opacity:1"
       inkscape:connector-curvature="0"
       d="m -276.6044,-25.360917 c 0.24695,0.105834 0.56445,0.07056 0.67028,-0.03528 0.14111,-0.105833 -0.0705,-0.211666 -0.45861,-0.176388 -0.38805,0 -0.49389,0.105833 -0.21167,0.211666 z"
       id="path5825" />
    <path
       style="fill:#95c6c2;stroke:none;stroke-width:0.03527778;fill-opacity:1"
       inkscape:connector-curvature="0"
       d="m -274.94634,-24.902306 c 0.67028,0.282223 2.57528,0.493889 2.25778,0.211667 -0.0706,-0.07055 -0.77611,-0.211667 -1.55222,-0.3175 -0.98778,-0.176389 -1.19945,-0.141111 -0.70556,0.105833 z"
       id="path5827" />
    <path
       style="fill:#95c6c2;stroke:none;stroke-width:0.03527778;fill-opacity:1"
       inkscape:connector-curvature="0"
       d="m -210.388,-19.963416 -2.46945,0.211666 3.10445,0.07056 c 2.01083,0.03528 3.03389,-0.07056 2.89278,-0.282222 -0.10584,-0.211667 -0.42334,-0.3175 -0.635,-0.282223 -0.24695,0.03528 -1.51695,0.141111 -2.89278,0.282223 z"
       id="path5829" />
    <path
       style="fill:#95c6c2;stroke:none;stroke-width:0.03527778;fill-opacity:1"
       inkscape:connector-curvature="0"
       d="m -236.7405,-19.363694 c 0.635,0.07055 1.5875,0.07055 2.11666,0 0.52917,-0.07056 0,-0.141111 -1.16416,-0.141111 -1.16417,0 -1.5875,0.07056 -0.9525,0.141111 z"
       id="path5831" />
    <path
       style="fill:#95c6c2;stroke:none;stroke-width:0.03527778;fill-opacity:1"
       inkscape:connector-curvature="0"
       d="m -113.79744,-63.531475 c 0,0.9525 0.0705,1.340556 0.14111,0.776111 0.0706,-0.529166 0.0706,-1.305277 0,-1.763889 -0.0706,-0.423333 -0.14111,0 -0.14111,0.987778 z"
       id="path5833" />
    <path
       style="fill:#95c6c2;stroke:none;stroke-width:0.03527778;fill-opacity:1"
       inkscape:connector-curvature="0"
       d="m -114.29133,-36.685084 c -0.45861,0.529167 -0.635,0.881944 -0.35278,0.776111 0.45861,-0.141111 1.72861,-1.693333 1.37584,-1.693333 -0.0706,0 -0.52917,0.423333 -1.02306,0.917222 z"
       id="path5835" />
    <path
       style="fill:#95c6c2;stroke:none;stroke-width:0.03527778;fill-opacity:1"
       inkscape:connector-curvature="0"
       d="m -286.55273,6.8476964 c 0.98778,1.0230556 39.86389,6.3500006 46.49611,6.3500006 2.54,0 0.17639,-0.423334 -5.11527,-0.881945 -12.02973,-1.093611 -37.14751,-4.5861111 -41.06334,-5.7150001 -0.52917,-0.1411111 -0.59972,-0.070555 -0.3175,0.2469445 z"
       id="path5839" />
  </g>
</svg>
