<?xml version="1.0" encoding="UTF-8" standalone="no"?>
<svg
   xmlns:dc="http://purl.org/dc/elements/1.1/"
   xmlns:cc="http://creativecommons.org/ns#"
   xmlns:rdf="http://www.w3.org/1999/02/22-rdf-syntax-ns#"
   xmlns:svg="http://www.w3.org/2000/svg"
   xmlns="http://www.w3.org/2000/svg"
   xmlns:sodipodi="http://sodipodi.sourceforge.net/DTD/sodipodi-0.dtd"
   xmlns:inkscape="http://www.inkscape.org/namespaces/inkscape"
   width="355.8172mm"
   height="451.43024mm"
   viewBox="0 0 355.8172 451.43023"
   version="1.1"
   id="svg8"
   inkscape:version="1.0.1 (3bc2e813f5, 2020-09-07, custom)"
   sodipodi:docname="comm_gray.svg">
  <defs
     id="defs2" />
  <sodipodi:namedview
     id="base"
     pagecolor="#ffffff"
     bordercolor="#666666"
     borderopacity="1.0"
     inkscape:pageopacity="0.0"
     inkscape:pageshadow="2"
     inkscape:zoom="0.35"
     inkscape:cx="568.23799"
     inkscape:cy="745.25397"
     inkscape:document-units="mm"
     inkscape:current-layer="layer1"
     showgrid="false"
     inkscape:window-width="1920"
     inkscape:window-height="1028"
     inkscape:window-x="0"
     inkscape:window-y="0"
     inkscape:window-maximized="1"
     fit-margin-top="0"
     fit-margin-left="0"
     fit-margin-right="0"
     fit-margin-bottom="0"
     inkscape:document-rotation="0" />
  <metadata
     id="metadata5">
    <rdf:RDF>
      <cc:Work
         rdf:about="">
        <dc:format>image/svg+xml</dc:format>
        <dc:type
           rdf:resource="http://purl.org/dc/dcmitype/StillImage" />
        <dc:title></dc:title>
      </cc:Work>
    </rdf:RDF>
  </metadata>
  <g
     inkscape:label="Layer 1"
     inkscape:groupmode="layer"
     id="layer1"
     transform="translate(219.51594,105.41514)">
    <g
       id="g4775"
       transform="matrix(0.03527778,0,0,-0.03527778,-219.5886,346.01511)"
       style="fill:#6d6b6d;stroke:none;fill-opacity:1">
      <path
         id="path4765"
         d="m 5265,12794 c -538,-39 -961,-137 -1410,-326 -66,-27 -121,-51 -123,-52 -2,-2 105,-319 153,-453 3,-8 30,0 87,26 247,115 605,222 923,276 363,61 878,61 1238,0 877,-148 1670,-561 2322,-1210 534,-531 944,-1206 1171,-1930 20,-66 41,-124 45,-129 5,-6 401,116 417,129 5,5 -78,254 -135,405 -220,583 -535,1116 -939,1590 -130,152 -410,430 -559,555 -328,275 -632,474 -1000,655 -495,244 -954,379 -1510,445 -123,14 -571,27 -680,19 z"
         inkscape:connector-curvature="0"
         style="fill:#6d6b6d;fill-opacity:1" />
      <path
         id="path4767"
         d="m 5265,11533 c -278,-16 -601,-78 -846,-161 -133,-46 -309,-123 -309,-135 0,-25 139,-412 147,-410 4,1 49,20 98,41 124,54 284,106 450,147 1016,249 2065,-66 2820,-846 385,-398 659,-858 845,-1421 23,-71 44,-128 48,-128 3,0 96,30 207,66 l 202,66 -39,122 c -319,981 -969,1774 -1843,2250 -544,296 -1192,445 -1780,409 z"
         inkscape:connector-curvature="0"
         style="fill:#6d6b6d;fill-opacity:1" />
      <path
         id="path4769"
         d="m 5265,10383 c -195,-16 -356,-44 -511,-89 -107,-31 -291,-102 -300,-115 -3,-5 24,-99 61,-208 l 66,-199 107,44 c 206,84 415,123 697,131 443,12 803,-93 1145,-335 111,-78 305,-263 397,-377 189,-234 360,-547 478,-870 21,-59 37,-89 46,-87 8,1 102,31 209,66 l 195,63 -1,29 c -2,47 -100,298 -179,459 -355,719 -1004,1250 -1740,1425 -238,56 -479,79 -670,63 z"
         inkscape:connector-curvature="0"
         style="fill:#6d6b6d;fill-opacity:1" />
      <path
         id="path4771"
         d="M 56,9698 C 35,9598 10,9281 4,9035 -21,8078 196,7108 630,6240 1154,5192 1958,4340 2981,3750 c 173,-101 534,-276 724,-354 1366,-554 2879,-581 4265,-76 700,255 1337,636 1919,1147 l 43,38 -248,132 C 6153,6503 5219,6999 5218,7004 c 0,4 55,112 122,241 121,233 122,235 159,241 330,55 562,399 486,722 -42,180 -168,317 -334,366 -69,20 -180,20 -256,1 -192,-51 -367,-231 -420,-435 -32,-124 -19,-281 31,-382 l 24,-46 -126,-241 -126,-241 -72,39 C 4580,7338 90,9711 75,9716 c -9,4 -16,-2 -19,-18 z M 986,8484 c 231,-129 422,-238 426,-242 3,-4 11,-108 18,-232 37,-754 163,-1350 438,-2065 70,-184 200,-494 336,-805 l 85,-195 -144,148 C 1216,6043 692,7132 586,8335 c -13,145 -25,385 -20,385 1,0 190,-106 420,-236 z"
         inkscape:connector-curvature="0"
         style="fill:#6d6b6d;fill-opacity:1" />
      <path
         id="path4773"
         d="M 1945,3273 C 1470,1750 1202,1032 810,224 L 701,0 3208,6 c 1379,4 2508,8 2510,9 1,1 -57,123 -130,271 -305,617 -603,1334 -830,2004 l -53,155 -157,31 c -948,189 -1741,559 -2413,1123 -33,28 -63,51 -66,51 -3,0 -59,-170 -124,-377 z m 460,-426 c 88,-61 163,-113 168,-117 16,-14 -124,-446 -233,-720 C 2121,1463 1873,1004 1591,630 1544,567 1450,459 1382,390 l -122,-125 19,50 c 11,28 86,212 166,410 304,747 516,1352 710,2025 31,107 58,201 60,208 6,16 -7,24 190,-111 z"
         inkscape:connector-curvature="0"
         style="fill:#6d6b6d;fill-opacity:1" />
    </g>
  </g>
</svg>
