<?xml version="1.0" encoding="UTF-8" standalone="no"?>
<!-- Created with Inkscape (http://www.inkscape.org/) -->

<svg
   xmlns:dc="http://purl.org/dc/elements/1.1/"
   xmlns:cc="http://creativecommons.org/ns#"
   xmlns:rdf="http://www.w3.org/1999/02/22-rdf-syntax-ns#"
   xmlns:svg="http://www.w3.org/2000/svg"
   xmlns="http://www.w3.org/2000/svg"
   xmlns:sodipodi="http://sodipodi.sourceforge.net/DTD/sodipodi-0.dtd"
   xmlns:inkscape="http://www.inkscape.org/namespaces/inkscape"
   width="36.501709mm"
   height="32.259926mm"
   viewBox="0 0 36.501709 32.259926"
   version="1.1"
   id="svg8"
   inkscape:version="0.92.4 5da689c313, 2019-01-14"
   sodipodi:docname="corner_1_blue.svg">
  <defs
     id="defs2" />
  <sodipodi:namedview
     id="base"
     pagecolor="#ffffff"
     bordercolor="#666666"
     borderopacity="1.0"
     inkscape:pageopacity="0.0"
     inkscape:pageshadow="2"
     inkscape:zoom="2.8"
     inkscape:cx="71.513529"
     inkscape:cy="76.642767"
     inkscape:document-units="mm"
     inkscape:current-layer="layer1-3"
     showgrid="false"
     inkscape:window-width="1920"
     inkscape:window-height="1027"
     inkscape:window-x="0"
     inkscape:window-y="0"
     inkscape:window-maximized="1"
     fit-margin-top="0"
     fit-margin-left="0"
     fit-margin-right="0"
     fit-margin-bottom="0" />
  <metadata
     id="metadata5">
    <rdf:RDF>
      <cc:Work
         rdf:about="">
        <dc:format>image/svg+xml</dc:format>
        <dc:type
           rdf:resource="http://purl.org/dc/dcmitype/StillImage" />
        <dc:title></dc:title>
      </cc:Work>
    </rdf:RDF>
  </metadata>
  <g
     inkscape:label="Layer 1"
     inkscape:groupmode="layer"
     id="layer1"
     transform="translate(273.69289,92.038709)">
    <g
       transform="matrix(1.0305506,0,0,1,-422.75525,-126.53028)"
       id="layer1-3"
       inkscape:label="Layer 1">
      <path
         style="opacity:1;fill:#95c6c2;fill-opacity:1;stroke-width:49.25329971;stroke-miterlimit:4;stroke-dasharray:none"
         id="path6734"
         d="m 147.55135,34.491838 c -0.0867,0.23333 -0.16302,0.470182 -0.22449,0.711843 -0.0515,0.178879 -0.12102,0.351456 -0.17401,0.529692 -0.0458,0.162028 -0.0932,0.324324 -0.14349,0.485181 -0.0585,0.168033 -0.0792,0.344587 -0.0913,0.521528 -0.0157,0.192148 -0.0576,0.380284 -0.0788,0.57191 -0.0177,0.185207 -0.0194,0.371455 -0.0209,0.557383 -8.3e-4,0.188759 -3.4e-4,0.377521 -1e-4,0.566281 -0.008,0.163503 0.037,0.321837 0.0608,0.482172 0.0103,0.182308 0.0469,0.360162 0.0772,0.539554 0.021,0.168842 0.0749,0.329827 0.1041,0.497253 0.0191,0.155479 0.0602,0.307297 0.0965,0.459342 0.0477,0.181485 0.0917,0.363865 0.13754,0.545884 0.0721,0.208443 0.1027,0.427169 0.15656,0.640654 0.0547,0.213762 0.15007,0.414858 0.22995,0.620171 0.0775,0.213495 0.12348,0.437724 0.16816,0.660516 0.0302,0.191307 0.0924,0.374108 0.1267,0.564665 0.047,0.151094 0.0782,0.305446 0.10884,0.460697 0.0535,0.175907 0.0671,0.359925 0.10025,0.539848 0.0428,0.151064 0.0599,0.307542 0.10365,0.458113 0.0499,0.153379 0.0578,0.315437 0.0976,0.471104 0.0476,0.165271 0.0577,0.337736 0.092,0.505776 0.0452,0.19994 0.10194,0.394592 0.13313,0.597812 0.0148,0.211364 0.0538,0.418701 0.0876,0.627312 0.0276,0.221121 0.0366,0.444001 0.0423,0.666663 0.035,0.191318 0.10422,0.373388 0.14304,0.564695 0.0349,0.193132 0.0402,0.389859 0.0436,0.585719 -0.006,0.163831 0.0375,0.322563 0.061,0.483356 0.0265,0.193656 0.0264,0.389266 0.0275,0.58434 0.0133,0.207281 0.0519,0.411616 0.0728,0.618265 0.0177,0.193758 0.0203,0.388459 0.0221,0.582917 4.8e-4,0.193163 0.002,0.386349 -0.002,0.579484 -0.002,0.212954 -3.3e-4,0.425921 4.7e-4,0.638877 7.1e-4,0.192553 8.9e-4,0.385107 0.001,0.577662 7e-5,0.188839 6e-5,0.377678 5e-5,0.566517 0.0166,0.160056 0.0524,0.316918 0.0707,0.477087 0.018,0.186401 0.0196,0.37389 0.0212,0.561034 8.8e-4,0.189305 3.9e-4,0.378613 1.9e-4,0.567919 -0.003,0.212197 -0.003,0.424389 -0.002,0.63661 9.5e-4,0.1973 10e-4,0.3946 0.002,0.591902 2e-4,0.18914 2e-4,0.378281 2e-4,0.567422 0.001,0.198307 -0.001,0.396575 -0.003,0.594862 -2e-4,0.209151 10e-4,0.4183 0.002,0.62745 6e-4,0.191119 6.7e-4,0.38224 7.5e-4,0.573361 -0.0127,0.216174 -0.0528,0.429429 -0.0724,0.645318 -0.0183,0.202829 -0.0117,0.40668 -0.0293,0.609388 -0.051,0.185391 -0.11343,0.365352 -0.14565,0.555723 -0.0246,0.199226 -0.0265,0.398854 -0.0602,0.596905 -0.0345,0.173837 -0.0472,0.350615 -0.0546,0.52751 -0.019,0.21394 -0.0583,0.425093 -0.0777,0.639355 -0.009,0.202169 -0.0187,0.402281 -0.0517,0.601965 -0.0364,0.188515 -0.0397,0.381158 -0.0717,0.570182 -0.0443,0.178879 -0.0472,0.3649 -0.0837,0.544756 -0.0493,0.164113 -0.0609,0.335849 -0.0952,0.50306 -0.0444,0.177252 -0.0642,0.358712 -0.0753,0.540933 -0.0121,0.0087 -0.0249,0.290631 -0.0265,0.29142 -2.24344,1.104008 -2.27326,1.878772 -2.21618,0.976495 0.0153,-0.155588 0.0955,-0.303845 0.17917,-0.432382 0.0743,-0.12327 0.15846,-0.247804 0.26432,-0.344612 0.0912,-0.102685 0.18303,-0.205174 0.28226,-0.300479 0.13892,-0.123677 0.27879,-0.245129 0.41831,-0.367935 0.74218,-0.503521 1.40961,-0.845847 2.2912,-1.366626 0.67908,-0.401153 -2.69871,1.634786 -2.03703,1.203849 0.70143,-0.45683 1.42384,-0.879973 2.1564,-1.281592 0.69307,-0.379973 -1.3586,0.811081 -2.0379,1.216621 0.70812,-0.559716 0.17997,-0.146029 2.20838,-1.32764 0.0221,-0.01289 0.0515,-0.0039 0.0751,-0.01368 0.0208,-0.0086 0.0353,-0.029 0.055,-0.04011 0.0486,-0.02743 0.0829,-0.03175 0.13648,-0.04485 0.17052,-0.01648 0.32853,-0.07606 0.49899,-0.09956 0.11326,-0.06011 0.24262,-0.06052 0.36284,-0.09175 0.0604,-0.01569 0.11795,-0.04169 0.17793,-0.05909 0.18432,-0.06012 0.36477,-0.115864 0.55846,-0.138983 0.21184,-0.01148 0.42396,-0.01384 0.63604,-0.01469 0.15716,-0.06006 0.32203,-0.07834 0.488,-0.0882 0.17951,-0.0076 0.35922,-0.0067 0.53884,-0.0066 0.18345,2.65e-4 0.3669,7.94e-4 0.55036,7.94e-4 0.18345,1.54e-4 0.3669,1.64e-4 0.55035,1.72e-4 0.18339,5e-6 0.36678,0 0.55017,-3e-6 0.18648,2.65e-4 0.37296,-0.0011 0.55943,0.0013 0.20709,0.0011 0.41419,2.7e-5 0.62128,-5.29e-4 0.24555,0.05933 0.4982,0.07499 0.7493,0.0877 0.20052,0.02817 0.41999,-0.01728 0.61838,0.01103 0.0519,0.0074 0.10161,0.02667 0.15241,0.04 0.31507,0.08538 0.63893,0.118335 0.96302,0.139253 0.32968,0.01881 0.66034,7.94e-4 0.989,0.03377 0.31723,0.03826 0.63587,0.05532 0.95486,0.06688 0.2936,0.01069 0.58736,0.0019 0.88102,0.0048 0.28711,-0.0041 0.57415,0.0021 0.86124,0.0026 0.28824,-0.0034 0.57644,-0.0041 0.86469,-0.0021 0.29871,0.04285 0.5987,0.06981 0.89991,0.08323 0.18087,0.0077 0.36192,0.0089 0.54292,0.0086 0.0383,-6.3e-5 0.0772,-0.0072 0.11487,-5.29e-4 0.0423,0.0076 0.0812,0.02857 0.12176,0.04285 0.2051,0.08571 0.42371,0.118589 0.64285,0.135599 0.16258,0.02138 0.32858,-0.0024 0.49114,0.01185 0.0806,0.0071 0.15956,0.02715 0.23944,0.04004 0.21963,0.03543 0.44178,0.04342 0.66354,0.05099 0.25974,0.0113 0.52055,-0.01334 0.77821,0.02437 0.29778,0.04056 0.59786,0.05813 0.89791,0.06728 0.26418,0.0043 0.52826,0.01019 0.79249,0.0093 0.25328,-0.0035 0.50657,-0.0033 0.75986,-0.0047 0.10346,0.01685 0.21793,-0.02289 0.3206,-0.0019 0.1024,0.02103 0.21119,0.08342 0.31118,0.117764 0.20161,0.05493 0.41031,0.06452 0.61759,0.07137 0.24922,0.0061 0.49858,0.0051 0.74785,0.0034 0.25891,0.0038 0.51785,-5e-5 0.77675,-0.0021 0.21442,-0.0019 0.42884,-1.8e-4 0.64327,-7.94e-4 0.21128,-0.0029 0.42251,5.29e-4 0.63377,0.0021 0.15608,2.64e-4 0.31217,-7.94e-4 0.46825,-0.0016 0.035,-1.9e-4 0.0708,0.0075 0.10492,-5.29e-4 0.0309,-0.0073 0.0566,-0.02964 0.0849,-0.04447 0.18683,-0.09766 0.39005,-0.120253 0.59538,-0.134723 0.20599,-0.01238 0.4124,-0.01241 0.61866,-0.01249 0.18586,2.65e-4 0.37173,7.94e-4 0.5576,0.0011 0.12414,-0.01061 0.25179,0.01376 0.37559,0.0016 0.0685,-0.0068 0.13502,-0.02785 0.20277,-0.04043 0.20015,-0.03674 0.40322,-0.04772 0.60604,-0.05355 0.20129,-0.01254 0.40523,0.02133 0.60311,-0.02262 0.19375,-0.04482 0.3916,-0.06097 0.58949,-0.06967 0.16856,-0.07579 0.36406,-0.04461 0.52965,-0.118602 0.14776,-0.07719 0.32349,-0.0328 0.46986,-0.101037 0,0 -1.94507,1.529266 -1.94507,1.529266 v 0 c -0.16068,0.01066 -0.31161,0.06009 -0.46682,0.100883 -0.18579,0.0168 -0.36536,0.0733 -0.55196,0.08098 -0.19435,0.01839 -0.38634,0.05303 -0.5803,0.07438 -0.20502,0.0016 -0.41013,0.0019 -0.61492,0.01357 -0.19719,0.01331 -0.39304,0.03789 -0.58829,0.06938 -0.20062,0.02159 -0.40246,0.01286 -0.60396,0.01405 -0.18512,-5.29e-4 -0.37023,-0.0013 -0.55535,-7.94e-4 -0.19988,0.0019 -0.40042,0.0045 -0.5988,0.03255 -0.19923,0.03498 -0.38583,0.110564 -0.58255,0.155517 -0.22765,0.0016 -0.45529,-0.0021 -0.68295,-0.0016 -0.21303,0.0013 -0.42603,0.0049 -0.63909,0.0021 -0.21375,-5.29e-4 -0.42747,0.0011 -0.64121,-5.29e-4 -0.25787,-0.0016 -0.51579,-0.0047 -0.77365,-1.04e-4 -0.253,-0.0013 -0.50609,-6.3e-5 -0.75891,-0.01156 -0.22313,-0.01638 -0.44514,-0.04987 -0.65819,-0.122938 -0.20737,-0.06853 -0.36598,-0.05738 -0.58213,-0.05479 -0.24978,-0.0011 -0.49956,-9.3e-5 -0.74933,-0.0039 -0.26933,-0.0016 -0.53905,0.007 -0.8079,-0.01291 -0.29923,-0.02207 -0.59735,-0.05693 -0.89673,-0.07675 -0.2594,-0.0033 -0.51887,-0.0026 -0.77819,-0.01101 -0.22719,-0.0086 -0.45252,-0.03663 -0.67746,-0.07025 -0.24227,-0.02653 -0.48671,-0.01791 -0.72903,-0.0464 -0.22387,-0.03261 -0.44005,-0.09442 -0.65812,-0.15444 -0.249,-0.0094 -0.49827,-0.01225 -0.74698,-0.02929 -0.2973,-0.02273 -0.5936,-0.06028 -0.89144,-0.0715 -0.28637,0.0019 -0.57269,0.0013 -0.85905,-0.0019 -0.29004,7.94e-4 -0.58003,0.0076 -0.87009,0.0034 -0.29345,0.0019 -0.58676,-0.0093 -0.88009,-0.01693 -0.31832,-0.01386 -0.63511,-0.04727 -0.95234,-0.07652 -0.33145,-0.01032 -0.66364,-0.0019 -0.99426,-0.03331 -0.32972,-0.02984 -0.65472,-0.08956 -0.98007,-0.150783 -0.25474,-0.01175 -0.51012,-0.0055 -0.76432,-0.02922 -0.24967,-0.02201 -0.49882,-0.05952 -0.74912,-0.06703 -0.20662,-5.3e-4 -0.41323,-0.0016 -0.61985,-5.3e-4 -0.18759,0.0024 -0.3752,0.0011 -0.56281,0.0013 -0.1834,0 -0.36679,6e-6 -0.55019,-3.1e-5 -0.18349,-5.1e-5 -0.36698,-1.35e-4 -0.55047,-2.65e-4 -0.1832,-2.25e-4 -0.36641,-7.94e-4 -0.5496,5.29e-4 -0.17597,0.0021 -0.35244,0.0047 -0.52728,0.02744 -0.16502,0.02492 -0.32814,0.07614 -0.49615,0.06595 -0.20539,0.0033 -0.41279,0.0054 -0.61459,0.04928 -0.18339,0.04497 -0.3598,0.113864 -0.54347,0.157848 -0.18313,0.0511 -0.37003,0.09145 -0.55483,0.135093 -0.1611,0.04044 -0.32574,0.07501 -0.47939,0.138237 -0.0627,0.03411 -0.12673,0.05684 -0.18969,0.08744 -0.0206,0.01003 -0.0769,0.05056 -0.0572,0.03878 1.81911,-1.085818 2.71487,-1.63872 1.97848,-1.184465 -0.71537,0.432615 -1.48081,0.787381 -2.14611,1.297839 -0.62815,0.481955 2.72709,-1.587378 2.03394,-1.211776 -0.37789,0.204775 -5.19039,3.096819 -0.13017,0.06979 0.0455,-0.02719 -0.197,0.103121 -0.13069,0.09094 -0.1657,0.07351 -0.29058,0.212042 -0.42767,0.33002 -0.0344,0.02838 -0.0754,0.04865 -0.10667,0.08065 -0.0618,0.06317 -0.10938,0.140774 -0.18548,0.188862 -0.11857,0.169728 0.037,-0.03881 -0.0943,0.09642 -0.0661,0.06807 -0.11637,0.1494 -0.18972,0.211265 -0.0133,0.02318 -0.0266,0.04634 -0.0399,0.0695 -0.0161,0.01773 -0.0353,0.0329 -0.0482,0.05322 -0.0429,0.06771 -0.0634,0.157419 -0.12744,0.208608 -0.20865,0.872742 0.006,0.02593 -2.23513,1.179508 -0.009,0.0046 0.0225,0.0024 0.0296,-0.0049 0.0473,-0.04778 0.0332,-0.138155 0.066,-0.193731 0.006,-0.194127 0.0158,-0.389027 0.0559,-0.57944 0.0127,-0.0553 0.0324,-0.108937 0.0419,-0.16492 0.0191,-0.113099 0.009,-0.232492 0.0466,-0.342932 0.0145,-0.04903 0.0376,-0.09557 0.0472,-0.145846 0.0243,-0.127079 0.01,-0.263192 0.0474,-0.388779 0.0399,-0.187319 0.0543,-0.374076 0.0745,-0.564996 0.0325,-0.194763 0.072,-0.384411 0.0643,-0.583967 0.0149,-0.209429 0.0333,-0.420249 0.0789,-0.625203 0.003,-0.187423 0.008,-0.375573 0.038,-0.56089 0.016,-0.08765 0.0465,-0.179086 0.0561,-0.267309 0.0115,-0.105822 -0.007,-0.214646 0.01,-0.320352 0.0198,-0.198821 0.0525,-0.396806 0.13579,-0.579337 0.0842,-0.170971 0.0134,-0.389686 0.0485,-0.575955 0.0152,-0.209169 0.0344,-0.419333 0.0777,-0.624504 7e-5,-0.191379 1.6e-4,-0.38276 7.5e-4,-0.574138 6.9e-4,-0.209788 0.002,-0.419577 0.002,-0.629367 -0.001,-0.19738 -0.004,-0.39474 -0.003,-0.59214 0,-0.18921 -1e-5,-0.37842 1.9e-4,-0.56763 2.6e-4,-0.197918 7.5e-4,-0.395837 0.002,-0.593754 8.7e-4,-0.211627 5.6e-4,-0.423227 -0.002,-0.634834 1.9e-4,-0.188739 5.9e-4,-0.377478 3.8e-4,-0.566217 -6.1e-4,-0.179325 -7.1e-4,-0.358862 -0.0128,-0.537845 -0.0146,-0.169524 -0.0469,-0.335032 -0.0795,-0.501699 -1e-5,-0.188857 -3e-5,-0.377715 5e-5,-0.566572 1e-4,-0.192927 2.8e-4,-0.385855 0.001,-0.578781 8.5e-4,-0.213293 0.003,-0.426593 0.001,-0.639885 -0.003,-0.192 -7.7e-4,-0.384029 -0.001,-0.576052 -3.9e-4,-0.188473 -4.6e-4,-0.377096 -0.0112,-0.565313 -0.015,-0.213996 -0.045,-0.425781 -0.0784,-0.637492 -0.002,-0.18398 -0.005,-0.368359 -0.0216,-0.551677 -0.0204,-0.171913 -0.0718,-0.339638 -0.0714,-0.513056 -8.7e-4,-0.182732 -9.5e-4,-0.366147 -0.0234,-0.547724 -0.0321,-0.207448 -0.0997,-0.403029 -0.1597,-0.603204 -0.001,-0.212154 -0.003,-0.424986 -0.028,-0.635841 -0.0284,-0.210694 -0.079,-0.417536 -0.0849,-0.630923 -0.0253,-0.198183 -0.082,-0.385334 -0.13081,-0.577825 -0.0374,-0.163794 -0.0574,-0.328139 -0.0915,-0.492509 -0.0421,-0.154224 -0.0574,-0.309751 -0.0944,-0.464623 -0.0477,-0.157515 -0.0699,-0.317885 -0.11017,-0.477549 -0.0413,-0.17602 -0.0379,-0.361043 -0.0962,-0.534075 -0.0442,-0.158315 -0.0584,-0.324615 -0.11791,-0.479299 -0.0256,-0.190676 -0.0866,-0.37183 -0.11407,-0.56182 -0.0387,-0.209408 -0.0894,-0.417146 -0.14602,-0.621865 -0.0811,-0.216152 -0.19022,-0.423621 -0.24702,-0.646992 -0.0511,-0.21389 -0.0853,-0.432107 -0.16221,-0.638485 -0.0415,-0.179632 -0.0932,-0.356266 -0.13664,-0.535284 -0.05,-0.157336 -0.0852,-0.324026 -0.11122,-0.486673 -0.0227,-0.169399 -0.0789,-0.329622 -0.10037,-0.498591 -0.0266,-0.181631 -0.078,-0.358399 -0.0834,-0.542678 -0.0209,-0.172488 -0.0733,-0.340683 -0.0727,-0.514794 -1.9e-4,-0.189226 -5.8e-4,-0.378451 -5.9e-4,-0.567677 3.7e-4,-0.192413 4.3e-4,-0.384982 0.0114,-0.577133 0.0135,-0.189494 0.0352,-0.378492 0.083,-0.56252 0.006,-0.193557 0.0157,-0.388439 0.0631,-0.576822 0.0457,-0.159083 0.0787,-0.32343 0.15068,-0.472639 0.0365,-0.191801 0.10778,-0.369061 0.17113,-0.552431 0.0487,-0.116105 0.0711,-0.234693 0.10749,-0.355316 0.0247,-0.08189 0.0587,-0.160687 0.0823,-0.242942 0.01,-0.03452 0.0148,-0.07036 0.0222,-0.105543 0,0 2.2169,-1.072947 2.2169,-1.072947 z"
         inkscape:connector-curvature="0" />
    </g>
  </g>
</svg>
