<?xml version="1.0" encoding="UTF-8" standalone="no"?>
<!-- Created with Inkscape (http://www.inkscape.org/) -->

<svg
   xmlns:dc="http://purl.org/dc/elements/1.1/"
   xmlns:cc="http://creativecommons.org/ns#"
   xmlns:rdf="http://www.w3.org/1999/02/22-rdf-syntax-ns#"
   xmlns:svg="http://www.w3.org/2000/svg"
   xmlns="http://www.w3.org/2000/svg"
   xmlns:sodipodi="http://sodipodi.sourceforge.net/DTD/sodipodi-0.dtd"
   xmlns:inkscape="http://www.inkscape.org/namespaces/inkscape"
   width="28.455904mm"
   height="40.32mm"
   viewBox="0 0 28.455904 40.32"
   version="1.1"
   id="svg8"
   inkscape:version="0.92.4 5da689c313, 2019-01-14"
   sodipodi:docname="corner_2_blue.svg">
  <defs
     id="defs2">
    <inkscape:path-effect
       effect="skeletal"
       id="path-effect6778"
       is_visible="true"
       pattern="M 0,5 C 0,2.24 2.24,0 5,0 7.76,0 10,2.24 10,5 10,7.76 7.76,10 5,10 2.24,10 0,7.76 0,5 Z"
       copytype="single_stretched"
       prop_scale="0.26458332"
       scale_y_rel="false"
       spacing="0"
       normal_offset="0"
       tang_offset="0"
       prop_units="false"
       vertical_pattern="false"
       fuse_tolerance="0" />
    <inkscape:path-effect
       effect="skeletal"
       id="path-effect6774"
       is_visible="true"
       pattern="M 0,5 C 0,2.24 2.24,0 5,0 7.76,0 10,2.24 10,5 10,7.76 7.76,10 5,10 2.24,10 0,7.76 0,5 Z"
       copytype="single_stretched"
       prop_scale="0.26458333"
       scale_y_rel="false"
       spacing="0"
       normal_offset="0"
       tang_offset="0"
       prop_units="false"
       vertical_pattern="false"
       fuse_tolerance="0" />
    <inkscape:path-effect
       effect="skeletal"
       id="path-effect6762"
       is_visible="true"
       pattern="M 0,5 C 0,2.24 2.24,0 5,0 7.76,0 10,2.24 10,5 10,7.76 7.76,10 5,10 2.24,10 0,7.76 0,5 Z"
       copytype="single_stretched"
       prop_scale="0.26458333"
       scale_y_rel="false"
       spacing="0"
       normal_offset="0"
       tang_offset="0"
       prop_units="false"
       vertical_pattern="false"
       fuse_tolerance="0" />
    <inkscape:path-effect
       effect="skeletal"
       id="path-effect6758"
       is_visible="true"
       pattern="M 0,5 C 0,2.24 2.24,0 5,0 7.76,0 10,2.24 10,5 10,7.76 7.76,10 5,10 2.24,10 0,7.76 0,5 Z"
       copytype="single_stretched"
       prop_scale="0.26458333"
       scale_y_rel="false"
       spacing="0"
       normal_offset="0"
       tang_offset="0"
       prop_units="false"
       vertical_pattern="false"
       fuse_tolerance="0" />
  </defs>
  <sodipodi:namedview
     id="base"
     pagecolor="#ffffff"
     bordercolor="#666666"
     borderopacity="1.0"
     inkscape:pageopacity="0.0"
     inkscape:pageshadow="2"
     inkscape:zoom="2.8"
     inkscape:cx="152.34051"
     inkscape:cy="38.040504"
     inkscape:document-units="mm"
     inkscape:current-layer="layer1-3"
     showgrid="false"
     inkscape:window-width="1920"
     inkscape:window-height="1027"
     inkscape:window-x="0"
     inkscape:window-y="0"
     inkscape:window-maximized="1"
     fit-margin-top="0"
     fit-margin-left="0"
     fit-margin-right="0"
     fit-margin-bottom="0" />
  <metadata
     id="metadata5">
    <rdf:RDF>
      <cc:Work
         rdf:about="">
        <dc:format>image/svg+xml</dc:format>
        <dc:type
           rdf:resource="http://purl.org/dc/dcmitype/StillImage" />
        <dc:title></dc:title>
      </cc:Work>
    </rdf:RDF>
  </metadata>
  <g
     inkscape:label="Layer 1"
     inkscape:groupmode="layer"
     id="layer1"
     transform="translate(257.3452,111.40029)">
    <g
       transform="matrix(1.0305506,0,0,1,-422.75525,-126.53028)"
       id="layer1-3"
       inkscape:label="Layer 1">
      <path
         style="fill:#95c6c2;fill-opacity:1;stroke:none;stroke-width:0.26063204px;stroke-linecap:butt;stroke-linejoin:miter;stroke-opacity:1"
         d="m 188.11881,17.062162 c 0,0.490231 -6.67991,0.918457 -16.59639,1.146997 -0.70408,0.01678 -1.46165,0.08226 -2.28315,0.115831 -0.44501,0.01896 -0.91525,0.03544 -1.40048,0.03259 -0.16854,-3.32e-4 -0.3597,-0.0047 -0.57218,-0.02172 -0.0295,0.03516 -0.27086,-0.0084 -0.70969,-0.178662 -0.19582,-0.163773 -0.72564,-0.0648 -1.49941,-0.127605 -0.66642,-0.0081 -1.38288,0.02761 -2.15421,0.0347 8.3e-4,-8e-6 -0.91776,0.0084 -0.91693,0.0084 -0.92442,0.721705 -0.61938,0.232605 1.11221,-1.293966 -0.13161,-0.255031 -0.20014,-0.982131 0.28191,-0.05747 0.58973,0.768645 0.75764,1.398155 0.75174,1.696538 0.18505,0.463286 0.12651,0.676443 0.0827,0.468113 0.50478,1.522755 0.49466,1.881934 0.33579,0.983617 0,0 0,-1.8e-5 0,-1.8e-5 -0.0269,-0.0021 0.18015,0.28155 0.36966,0.944539 0.20223,1.02098 -0.006,1.4841 0.0413,1.25013 0.0698,0.200264 0.12751,0.395489 0.17577,0.585086 0.2401,0.943288 0.24472,1.729454 0.3453,2.287945 -0.0989,-0.20651 0.0591,-0.04104 0.24913,0.560892 0.198,0.801512 0.1827,1.450329 0.1863,1.886478 0,1e-6 0,2e-6 0,3e-6 0.0166,0.312258 0.0303,0.606708 0.0509,0.8896 0,0 0,5e-6 0,5e-6 0.0877,0.351809 0.0137,0.324242 -0.0612,0.03178 0,0 0,-5e-6 0,-5e-6 0.36477,0.911988 0.37381,1.688489 0.29843,2.222881 0.006,0.589124 -0.0955,0.941547 -0.009,1.003299 0.35099,1.026028 0.35553,1.94334 0.34101,2.634417 0.0207,1.188566 -0.0294,2.353878 -0.0896,3.436239 0,1e-6 0,1e-6 0,2e-6 -0.12345,2.175424 -0.35421,4.144657 -0.41492,5.930842 0,0 0,3e-6 0,3e-6 0.0477,0.388706 0.0277,0.69992 0.008,0.92542 -0.0202,0.451414 -0.0548,0.890415 -0.0965,1.310548 -0.0427,0.43432 -0.0932,0.85894 -0.16267,1.283644 -0.0118,0.19938 -0.0616,0.554527 -0.26164,1.005174 -0.0703,0.134231 -0.12255,0.264875 -0.13315,0.375805 -0.008,0.205614 -0.0315,0.380711 -0.0529,0.523927 0,0 0,1e-6 0,1e-6 -0.0123,0.09425 -0.0272,0.19975 -0.0491,0.316436 0,0 1e-5,-6e-6 1e-5,-6e-6 0.2184,-0.169099 0.0793,0.0977 -0.46191,0.712243 -0.71834,0.05224 -0.69745,-0.110962 0.0197,-0.303575 0,0 0,0 0,0 -0.006,-0.0058 0.003,0.001 0.006,0.0026 0.008,0.0037 0.0188,0.0083 0.0291,0.01342 0.0311,0.01554 0.0635,0.03638 0.0947,0.06175 -0.0146,0.126595 -0.0417,0.247464 -0.0564,0.374059 -0.0344,0.466106 -0.16577,0.801407 -0.25462,1.018977 -0.1541,0.44478 -0.3034,0.841225 -0.4272,1.20473 -0.15132,0.453917 -0.25882,0.780143 -0.31975,1.127921 -0.006,0.30886 -0.0876,0.49589 -0.0234,0.558015 0.35347,0.609339 0.0725,0.744932 0.0939,0.748368 0,0 0,0 0,0 0.1972,0.399492 -0.19639,0.752021 -0.0744,0.633658 -0.0567,0.05499 -0.17068,-0.595293 -0.25783,-0.311288 0,1e-6 0,0 0,0 -0.23905,-0.265069 -0.22915,-0.774506 -0.27293,-0.574548 -0.29705,-0.310272 -0.42549,-0.740201 -0.39092,-1.108519 -0.0139,-0.435615 0.0353,-0.868635 0.11842,-1.354264 0.0732,-0.436501 0.1552,-0.810238 0.25074,-1.281963 0.0534,-0.302122 0.13059,-0.54498 0.0971,-0.661087 -0.009,-0.211533 0.002,-0.382299 0.0107,-0.514341 0.048,-0.156301 0.0989,-0.320751 0.15471,-0.489675 0.0185,-0.05609 0.0375,-0.113169 0.0587,-0.170369 0.009,-0.02532 0.0143,-0.0562 0.0332,-0.07464 0,0 0,-2e-6 0,-2e-6 0.83327,-0.251369 0.98702,-0.297445 0.38646,-0.303575 -0.46215,0.574263 -0.62193,0.712419 -0.3909,0.454496 0,0 1e-5,-9e-6 1e-5,-9e-6 0.005,-0.05916 0.006,-0.130111 0.009,-0.216072 0,0 0,-2e-6 0,-2e-6 0.004,-0.153649 0.009,-0.286099 0.001,-0.386706 -0.0106,-0.400537 0.0707,-0.789515 0.23361,-1.136099 0.0162,0.0048 -0.0168,-0.155399 0.0342,-0.466357 0.0294,-0.37657 0.0432,-0.763553 0.0526,-1.178997 0.009,-0.398852 0.0111,-0.807689 7.9e-4,-1.216626 -0.0139,-0.318096 -0.01,-0.576277 -0.0506,-0.73972 0,0 0,-1e-6 0,-1e-6 -0.0607,-1.940589 0.062,-4.024442 0.0913,-6.177208 0,0 0,-2e-6 0,-2e-6 0.0156,-1.066676 0.026,-2.184592 -0.0264,-3.272876 -0.0614,-0.764291 -0.0359,-1.418362 -0.22853,-1.793948 -0.28278,-0.89086 -0.25175,-1.602711 -0.19263,-2.053587 -0.0217,-0.529407 0.0404,-0.89258 -0.0678,-0.956841 0,0 0,-9e-6 0,-9e-6 -0.22673,-0.61714 -0.25385,-0.954302 -0.19867,-0.961368 0,0 1e-5,0 1e-5,0 -0.0278,-0.326813 -0.0466,-0.639839 -0.0659,-0.943666 0,-1e-6 0,-2e-6 0,-3e-6 -0.0586,-0.628299 -0.0184,-1.093459 -0.10961,-1.334714 0.0625,0.142064 -0.11066,-0.08424 -0.30103,-0.762026 -0.18137,-0.894338 -0.17261,-1.640056 -0.29988,-2.14494 -0.0256,-0.101477 -0.0567,-0.192872 -0.096,-0.273695 -0.2987,-1.126008 -0.12115,-1.685639 -0.14214,-1.584692 0.0293,0.0026 -0.17806,-0.288292 -0.36388,-0.945341 0,0 0,-2.3e-5 0,-2.3e-5 -0.22263,-1.162712 0.0158,-1.098271 0.33579,0.22767 -0.59409,-0.779047 -0.7544,-1.409299 -0.74729,-1.710193 -0.18101,-0.463353 -0.11811,-0.687876 -0.0687,-0.471882 -0.19127,0.08335 -0.70325,-0.465278 -1.00179,-1.758362 1.72602,-1.650726 2.28007,-2.020655 1.47897,-1.293966 8.4e-4,7e-6 0.91609,0.0083 0.91693,0.0084 0.70537,0.0071 1.44641,-0.01201 2.21576,0.01495 0.63701,-0.02856 1.54599,-0.0048 2.56635,0.459104 -0.27735,-0.08736 -0.33352,-0.128011 -0.18325,-0.07509 0.10845,0.01391 0.23983,0.02009 0.39108,0.0269 0.41825,0.01731 0.85349,0.0171 1.29081,0.01568 0.75437,-0.0028 1.53768,-0.03623 2.33837,-0.01945 9.91648,0.22854 16.59639,0.656766 16.59639,1.146997 z"
         id="path6776"
         inkscape:connector-curvature="0"
         inkscape:path-effect="#path-effect6778"
         inkscape:original-d="m 188.11881,17.062162 c -5.53213,0 -11.06426,0 -16.59639,0 -0.64375,0 -4.0512,0.180373 -4.40125,0 -0.78464,-0.404303 -3.23044,-0.283482 -4.21787,-0.283482 -0.30564,0 -0.61129,0 -0.91693,0 -0.0611,0 -0.18338,-0.063 -0.18338,0 0,0.276516 0.54845,0.754195 0.64185,0.850447 0.41996,0.432795 0.39887,1.733978 0.82523,2.173363 0.0864,0.08909 -0.0297,0.255746 0,0.377976 0.074,0.304906 0.29357,0.643194 0.36677,0.94494 0.0994,0.409685 -0.057,1.034392 0.0917,1.417411 0.32014,0.824817 0.28083,1.730543 0.45846,2.645833 0.0395,0.2035 0.2162,0.449097 0.27508,0.661459 0.13321,0.48048 0.16965,2.806507 0.27508,3.023809 0.44877,0.924959 -0.0522,2.275236 0.27507,3.118304 0.67501,1.739082 0,9.236635 0,11.622767 0.0989,0.616847 -0.0593,3.618498 -0.27508,4.063245 -0.0971,0.200236 -0.18338,0.525783 -0.18338,0.755952 0,0.106124 -0.0415,0.824571 -0.0917,0.850447 -0.0547,0.02817 -0.12871,-0.02817 -0.18339,0 -0.0329,0.01696 -0.0917,0.782881 -0.0917,0.850446 0,0.670913 -1.18951,3.498851 -0.55016,4.157738 0.13754,0.141741 0.0459,0.519717 0.18339,0.661458 0.0917,0.09449 0,0.377977 0.0917,0.472471" />
    </g>
  </g>
</svg>
