<?xml version="1.0" encoding="UTF-8" standalone="no"?>
<!-- Created with Inkscape (http://www.inkscape.org/) -->

<svg
   xmlns:dc="http://purl.org/dc/elements/1.1/"
   xmlns:cc="http://creativecommons.org/ns#"
   xmlns:rdf="http://www.w3.org/1999/02/22-rdf-syntax-ns#"
   xmlns:svg="http://www.w3.org/2000/svg"
   xmlns="http://www.w3.org/2000/svg"
   xmlns:sodipodi="http://sodipodi.sourceforge.net/DTD/sodipodi-0.dtd"
   xmlns:inkscape="http://www.inkscape.org/namespaces/inkscape"
   width="651.16553mm"
   height="298.14951mm"
   viewBox="0 0 651.16553 298.14951"
   version="1.1"
   id="svg8"
   inkscape:version="0.92.4 5da689c313, 2019-01-14"
   sodipodi:docname="frame_5_orange.svg">
  <defs
     id="defs2">
    <inkscape:path-effect
       effect="sketch"
       id="path-effect4609"
       is_visible="true"
       nbiter_approxstrokes="5"
       strokelength="100"
       strokelength_rdm="0.3;1"
       strokeoverlap="0.3"
       strokeoverlap_rdm="0.3;1"
       ends_tolerance="0.1;1"
       parallel_offset="5;1"
       tremble_size="5;1"
       tremble_frequency="1"
       nbtangents="5"
       tgt_places_rdmness="1;1"
       tgtscale="10"
       tgtlength="100"
       tgtlength_rdm="0.3;1" />
  </defs>
  <sodipodi:namedview
     id="base"
     pagecolor="#ffffff"
     bordercolor="#666666"
     borderopacity="1.0"
     inkscape:pageopacity="0.0"
     inkscape:pageshadow="2"
     inkscape:zoom="0.35"
     inkscape:cx="1726.0124"
     inkscape:cy="359.31265"
     inkscape:document-units="mm"
     inkscape:current-layer="layer1"
     showgrid="false"
     inkscape:window-width="1920"
     inkscape:window-height="1027"
     inkscape:window-x="0"
     inkscape:window-y="0"
     inkscape:window-maximized="1"
     fit-margin-top="0"
     fit-margin-left="0"
     fit-margin-right="0"
     fit-margin-bottom="0" />
  <metadata
     id="metadata5">
    <rdf:RDF>
      <cc:Work
         rdf:about="">
        <dc:format>image/svg+xml</dc:format>
        <dc:type
           rdf:resource="http://purl.org/dc/dcmitype/StillImage" />
        <dc:title></dc:title>
      </cc:Work>
    </rdf:RDF>
  </metadata>
  <g
     inkscape:label="Layer 1"
     inkscape:groupmode="layer"
     id="layer1"
     transform="translate(443.73517,-0.30225504)">
    <path
       style="fill:none;stroke:#febb67;stroke-width:2.09020829;stroke-linecap:butt;stroke-linejoin:miter;stroke-miterlimit:4;stroke-dasharray:50.165, 2.09020833;stroke-dashoffset:0;stroke-opacity:1"
       d="m -425.86111,14.058907 c 28.0372,0.01447 53.88409,2.106866 79.52394,4.033504 M -366.86515,6.6994841 c 23.48167,1.0279138 48.13312,3.0452941 72.96916,5.0990249 m -21.89367,4.704252 c 11.29704,0.585883 22.94588,1.131433 34.78428,1.527342 13.19698,0.441343 26.59143,0.695376 39.9505,0.613552 m -11.06341,1.871338 c 33.17782,2.871584 64.58871,3.78012 96.71767,4.727595 m -35.26667,-9.189005 c 21.02904,-0.07213 43.54321,-0.301812 66.95331,-1.625537 8.7912,-0.497099 13.73523,-0.765021 22.52643,-1.26212 m -22.06103,7.173134 c 0.39759,-0.0037 0.79571,-0.0083 1.19437,-0.01385 24.403024,-0.341236 51.028292,-2.63342 78.466708,-6.026728 m -24.805058,4.160432 c 24.158402,-0.318006 50.370144,-0.652632 77.3829559,-1.36885 m -11.89255,-3.858608 c 15.1117781,-0.230113 29.6742661,0.014 43.8613431,0.572154 8.21378,0.32315 16.303541,0.751639 24.302782,1.254528 m -15.816873,1.445177 c 31.44007,0.09513 60.985092,-2.440467 90.855702,-6.9072839 M 118.07737,9.9082946 C 145.42341,9.8280577 174.09762,7.7621582 204.04869,5.9263923 203.515,8.34179 203.00304,10.788272 202.51201,13.26743 M 182.11718,9.3815056 c 6.12767,-0.5248878 12.16038,-1.1388938 18.12543,-1.8394996 -5.47493,19.503496 -10.86274,40.911865 -14.58655,62.280411 m -1.39312,-24.971129 c -4.13755,28.384729 -8.98628,58.893862 -10.83701,86.951532 m 0.44113,-16.49554 c -0.469,10.41465 -0.81836,21.20689 -0.93606,32.29457 -0.19632,18.4951 0.25045,37.86434 1.86605,58.04366 m 3.33264,-28.24078 c -0.72858,25.83949 0.48141,51.75595 2.10907,77.98512 m 0.64571,-22.21788 c 1.88079,18.55917 4.00114,37.30642 6.53186,55.33368 -0.73511,-1.5806 -1.97352,-2.97479 -3.70188,-4.20113 -1.72845,-1.22641 -3.94473,-2.28347 -6.6326,-3.19156 -2.93801,-0.9926 -6.43315,-1.80522 -10.46682,-2.46901 m 17.92025,9.47873 c -0.34932,-0.31092 -0.72697,-0.61135 -1.13256,-0.9016 -1.65689,-1.18569 -3.77751,-2.19945 -6.32904,-3.06184 -5.09375,-1.72165 -11.92379,-2.84346 -20.11056,-3.49867 -8.14224,-0.65164 -17.81528,-0.85265 -28.39315,-0.64733 -9.38437,0.18216 -19.80503,0.69189 -30.706569,1.56756 m 24.694199,-1.81314 c -9.06133,0.20541 -18.78416,0.30634 -29.41574,0.16493 -20.682343,-0.2751 -42.954317,-1.44904 -67.710312,-4.02548 m 26.799806,0.35768 c -16.317765,0.87089 -35.166263,1.90182 -52.98735075,3.1301 -14.10284825,0.97201 -28.66875725,2.13803 -43.23941325,3.64306 m 26.506172,-6.64057 c -26.376663,0.48688 -52.632001,-0.45416 -78.175436,-3.00555 m 8.406715,9.9269 c -9.564056,-0.50088 -19.280381,-1.04749 -28.924061,-1.71577 -19.66854,-1.36298 -39.40116,-2.18899 -56.25796,-2.93436 m 25.08751,0.90002 c -33.18146,-1.2168 -65.19662,-1.47383 -95.20043,-2.21895 m 30.1961,0.25921 c -24.79006,-0.61046 -47.88872,1.47848 -68.67735,3.78587 -9.0926,1.00922 -17.93868,2.08487 -26.62317,3.08817 m 25.70695,-0.256 c 6.5e-4,-2e-5 -0.67785,0.027 -0.6772,0.0269 -33.38448,1.31873 -64.17814,1.13468 -93.77415,-2.51137 m 20.83561,6.15861 c -26.22577,1.25048 -49.41937,2.4506 -72.19679,2.42137 1.52567,-0.0384 2.94021,-0.27406 4.25149,-0.69707 1.31127,-0.423 2.5194,-1.03338 3.63255,-1.8213 2.22536,-1.57516 4.07444,-3.86262 5.60198,-6.78117 1.30399,-2.49145 2.37577,-5.44732 3.24273,-8.81561 m -10.56581,8.75913 c -1.21567,0.06 -2.43256,0.11638 -3.65035,0.16909 1.49866,0.0252 2.88281,-0.15142 4.16058,-0.51684 1.2776,-0.36538 2.4492,-0.91962 3.52086,-1.64943 2.14231,-1.45893 3.88994,-3.62291 5.27739,-6.38897 1.38807,-2.76731 2.41725,-6.14034 3.12064,-10.02495 0.70373,-3.88652 1.08011,-8.27745 1.1676,-13.08255 0.17575,-9.65225 -0.81452,-20.79396 -2.55338,-32.71376 -0.36696,-2.51549 -0.76569,-5.05545 -1.1914,-7.61333 m 6.11612,26.33341 c -0.40353,-4.90714 -0.93567,-10.04741 -1.57587,-15.35026 -1.58959,-13.16695 -3.87719,-27.59907 -6.6181,-42.25133 -0.73519,-3.93017 -1.50556,-7.89008 -2.30825,-11.86683 m 5.52859,17.82971 c -0.13124,-0.95741 -0.26418,-1.91586 -0.39874,-2.8754 -4.01852,-28.65543 -8.99039,-55.33314 -13.00891,-83.988574 m 0.9348,23.326574 c -2.27414,-10.68885 -4.30256,-21.486816 -6.0913,-32.020614 -2.50357,-14.743415 -4.65427,-29.670623 -6.17639,-42.658427 m 1.11353,18.346142 c -0.76257,-5.788809 -1.38473,-11.503382 -1.85019,-17.071729 -1.10336,-13.199589 -1.32253,-25.536148 -0.45083,-35.985876 11.20549,-0.470713 22.52421,-1.1006861 33.94365,-1.8493869 m -28.74237,-7.715726 c 32.42891,0.1106537 66.92275,4.389345 100.90825,8.7716779 m -29.3781,5.996283 c 26.3217,2.855661 54.21816,4.30292 82.0336,6.109228 -0.0197,-0.0013 2.03359,0.1327 2.01384,0.131418 m -10.59816,-9.876431 c 6.15876,0.453246 12.28284,0.890798 18.37387,1.312221 21.63937,1.497173 43.01353,2.801313 64.16703,3.883239 m -23.88693,2.060451 c 31.31941,1.46576 60.1575,3.478875 87.60737,5.141555 m -24.43294,-7.652632 c 14.68379,-0.07916 29.4899,-0.216831 44.34449,-0.596853 16.60707,-0.424855 33.316643,-0.448039 49.924732,-0.305785 M -91.96432,11.234304 c 30.80676,-0.532174 59.158915,0.600372 88.0719618,3.37138 M -37.353015,25.821848 c 23.780752,0.252867 48.476967,0.01133 73.723937,-0.396251 7.068593,-0.114115 14.174334,-0.241129 21.318787,-0.373894 M 31.103693,9.6872751 C 32.818797,9.5843021 34.542457,9.4895957 36.274046,9.4023082 57.575149,8.3285425 79.973829,8.379689 102.48783,7.9695055 M 90.432168,19.512213 c 33.529592,-1.374142 62.625982,-3.755309 89.743682,-8.849682 m -16.05935,7.938418 c 14.14828,-0.881614 28.01173,-2.170131 41.87084,-3.809831 -4.86568,16.773259 -8.97759,34.741859 -11.63566,53.400637 m -4.02766,-43.378618 c -5.3801,23.146747 -8.47687,48.210597 -9.22592,75.136934 m 2.39361,-1.589838 c -3.09058,19.005977 -3.81259,37.606387 -2.86149,56.030887 0.52215,10.11511 1.54581,20.12727 2.93838,30.06244 m -5.2521,-28.97318 c -1.62926,30.45375 2.02137,64.78079 8.4773,98.12958 m -0.0248,-24.11399 c 1.42617,23.48883 4.50087,46.65623 8.722,68.56164 -0.64786,-1.59099 -1.79473,-2.99739 -3.41054,-4.23763 -0.21277,-0.16332 -0.43369,-0.32376 -0.66267,-0.48137 m 0.40315,-10.32059 c 0.44702,3.68984 0.95161,7.32351 1.50729,10.90157 -0.70614,-1.55622 -1.90606,-2.92923 -3.5798,-4.14123 -1.6734,-1.21175 -3.81589,-2.25938 -6.39997,-3.16902 -5.1561,-1.81505 -12.09939,-3.08787 -20.51742,-3.99306 -8.34777,-0.89763 -18.4596,-1.46174 -29.70135,-1.73697 -0.97153,-0.0238 -1.95374,-0.0454 -2.94605,-0.065 m 13.97798,-0.56309 c -4.79979,-0.23834 -9.8435,-0.38464 -15.11551,-0.451 -11.50749,-0.14486 -23.81526,0.0922 -37.214664,0.54659 -6.388212,0.21663 -12.90608,0.47807 -19.71173,0.76518 m 13.405235,4.78932 c -27.460579,1.58404 -54.04491,1.4008 -85.00859962,-0.16221 -2.5428e-4,-2e-5 -0.40375394,-0.0204 -0.40400822,-0.0205 M 21.305243,284.0848 c 6.328039,-0.14995 -29.3484909,0.6821 -23.020452,0.53216 -23.888144,0.52711 -49.090741,0.97215 -74.308871,0.94971 m 23.295198,-3.14913 c -19.136938,-0.54223 -39.640933,-0.99454 -58.846988,-1.92579 -9.5531,-0.4632 -18.83381,-0.78425 -27.63838,-1.02649 m 25.1128,-0.18076 c -35.15813,-1.99837 -72.45791,-2.21532 -108.52593,-2.10787 m 38.29317,2.36379 c -31.86597,-0.70559 -65.71466,-0.43024 -97.52626,-1.75523 m 30.50557,-4.1208 c -10.73956,0.0977 -21.24266,0.53447 -31.43346,1.13447 -21.8388,1.28579 -42.63809,3.30523 -63.05753,4.79783 m 34.16551,2.74958 c -29.0823,2.55516 -57.68903,2.52936 -83.69313,0.76187 m 12.71619,-2.78888 c -14.54848,-0.0377 -28.45494,0.66856 -41.66272,1.54637 1.48249,0.0595 2.85673,-0.0783 4.13106,-0.40105 1.27405,-0.32271 2.44628,-0.82996 3.524,-1.5074 2.15445,-1.35428 3.93114,-3.389 5.3776,-5.98208 1.446,-2.59225 2.56637,-5.7508 3.40013,-9.35934 0.83334,-3.60674 1.38473,-7.68295 1.68106,-12.11354 0.0331,-0.49468 0.063,-0.99399 0.0898,-1.49777 m -10.6268,28.54501 c 0.52037,-1.72465 0.96508,-3.59387 1.34118,-5.59873 0.75806,-4.04107 1.23669,-8.62973 1.49526,-13.69208 0.51681,-10.11802 0.1538,-22.1375 -0.6092,-35.35546 -0.41703,-7.22454 -0.95635,-14.84788 -1.53773,-22.67022 m 5.73402,10.11931 c -1.31906,-12.18825 -3.27608,-25.1967 -5.68797,-38.82967 -3.39935,-19.21446 -7.57259,-38.96705 -11.97346,-59.19972 m 10.27884,33.86311 c -4.53697,-20.88856 -7.83208,-41.85535 -10.27871,-61.344309 -0.68051,-5.420729 -1.29662,-10.744775 -1.84354,-15.864318 m -1.02285,14.162163 c -0.16699,-0.952404 -0.32994,-1.899215 -0.48889,-2.840488 -2.63309,-15.59288 -4.16472,-29.666077 -4.69276,-42.188525 -0.52592,-12.472052 -0.0573,-23.518901 1.3957,-32.6088566 0.012,0.00102 1.9687,0.1676028 1.98073,0.1686196 m 4.31014,12.955558 c -0.31126,-6.744915 -0.47317,-12.8541204 -0.36281,-18.2812107 19.62616,0.851324 38.05212,3.0361495 55.31827,5.9371863 m -61.18634,-2.2797573 c 30.92013,1.3690402 61.78744,2.1421856 94.82119,2.4932092 m -19.80963,-4.340107 c 27.32125,1.1036507 55.54438,5.2865037 81.90503,10.5430795 0.81259,0.16204 1.62347,0.32511 2.43255,0.489153 m -24.46699,0.344762 c 7.02541,0.455286 13.96459,0.851533 20.83981,1.181999 25.11065,1.206975 49.36319,1.535823 73.75153,0.658863 m -23.97711,1.0394 c 25.19008,0.161339 51.47305,1.592361 78.03746,2.017917 m -21.05285,-7.455365 c 15.87851,0.0785 32.096,-0.05126 48.35165,-0.551203 8.22314,-0.252905 16.47394,-0.42858 24.712682,-0.546208 m -13.239422,10.338325 c 29.215821,-0.395133 61.490422,-0.567461 93.612372,0.406875 m -28.464797,-5.367556 c 23.972907,-0.116338 49.6239167,0.547153 76.576097,1.828605 M 17.532911,22.740733 C 26.943807,22.304442 36.337809,22.074643 45.69854,21.940334 61.374019,21.71542 77.318919,21.762241 92.994397,21.537327 M 76.459684,16.476176 C 101.14941,14.916742 123.62672,14.714985 145.48876,13.997368 M 123.4301,20.70959 c 25.43046,-0.395491 50.44239,-3.421278 76.52902,-7.856366 -0.39131,1.476912 -0.77067,2.961228 -1.13757,4.452824 M 182.25748,6.8835538 c 4.71466,-0.4561663 9.40581,-0.9559217 14.07945,-1.4990703 -5.60201,19.2930175 -10.51006,40.1152185 -14.16112,61.5480805 m 7.95073,-14.085301 c -6.99498,30.878619 -10.98307,61.838207 -15.31231,93.582397 0.003,-0.0248 -0.20549,1.50535 -0.20211,1.48058 m 7.81965,-34.95551 c -1.10033,8.74279 -1.67478,17.60607 -1.81038,26.53961 -0.28439,18.7344 1.36394,37.66746 4.06358,56.16757 m -0.0577,-10.9099 c 0.38015,24.01239 2.41474,48.29804 6.0508,71.1763 m -11.54299,-15.62319 c 1.34803,18.40355 3.32681,35.69912 5.60856,51.89777 -0.74064,-1.62614 -1.98511,-3.0702 -3.72107,-4.35738 -1.73532,-1.28672 -3.96276,-2.41715 -6.66364,-3.41112 -4.61441,-1.69818 -10.65638,-3.01245 -17.98126,-3.9917 m 28.89111,1.39965 c -0.79892,-0.43015 -1.66412,-0.83746 -2.59449,-1.22175 -4.94896,-2.04415 -11.7506,-3.4433 -20.38027,-4.17398 -8.68304,-0.73519 -19.05014,-0.78524 -31.36096,-0.22129 -12.44899,0.57028 -26.09255,1.72248 -41.894561,3.25821 -0.001,1e-4 -0.494004,0.0481 -0.495043,0.0482 m 27.052824,-2.70887 c -8.10775,-0.13672 -16.175438,-0.19825 -24.896856,-0.2774 -20.428834,-0.18541 -43.515182,-0.43677 -67.289486,-2.37755 m 22.162044,3.10094 c -15.496156,0.83482 -31.948462,1.29045 -49.904339,1.45917 -7.150385,0.0672 -14.411389,0.0879 -21.820204,0.0737 m 10.490564,4.98459 c -22.861794,0.75581 -45.291804,0.63271 -67.48038,-0.10038 m 16.573739,-5.83268 c -15.70062,0.22213 -30.597079,-0.25498 -45.123572,-1.24847 -8.76757,-0.59963 -17.02288,-1.14343 -25.18723,-1.59683 m 21.10198,2.65846 c -10.53988,-0.44427 -73.98462,-3.02202 -84.5245,-3.46629 m 10.579,1.19088 c -34.64617,-1.48111 -66.81212,3.78515 -93.08992,8.85606 m 30.30662,-4.52162 c -10.75787,0.27875 -21.09304,0.9168 -31.03976,1.78685 -14.98666,1.3109 -29.36847,3.17424 -43.10842,5.19811 m 22.56821,-6.0535 c -22.87127,0.58776 -48.27837,3.43597 -72.05315,6.09605 m 10.39042,2.84849 c -20.62642,1.74205 -40.04538,1.61824 -58.77835,0.12113 1.45399,-0.15425 2.80129,-0.50177 4.0448,-1.03605 1.24378,-0.5344 2.38493,-1.25612 3.42784,-2.16054 1.5757,-1.36645 2.92716,-3.14999 4.07071,-5.33441 m -7.62778,9.74365 c 0.002,1e-5 -1.26873,-0.009 -1.26637,-0.009 1.45836,-0.0474 2.80749,-0.29019 4.05312,-0.71906 1.2456,-0.42886 2.38758,-1.04381 3.43102,-1.83534 2.08675,-1.58297 3.77953,-3.87245 5.11461,-6.78839 1.33491,-2.9156 2.31233,-6.45806 2.96582,-10.54383 0.65348,-4.08572 0.98328,-8.71632 1.02182,-13.80876 0.0771,-10.19055 -1.01112,-22.21649 -3.00737,-35.48811 -0.10626,-0.70644 -0.21508,-1.41639 -0.32644,-2.12977 m -1.89072,13.99689 c -0.19742,-5.58511 -0.547,-11.45837 -1.002,-17.60571 -1.01347,-13.69265 -2.49769,-28.12415 -3.93743,-43.79005 -0.43621,-4.74644 -0.86343,-9.55768 -1.26544,-14.43361 m -1.09999,12.21039 c -0.15742,-0.84544 -0.31392,-1.69318 -0.46951,-2.54337 -4.00449,-21.88164 -7.11035,-43.83744 -9.42573,-65.82561 m 3.28423,16.60147 c -2.43448,-14.10904 -4.40352,-27.619709 -5.81867,-40.660435 -1.26346,-11.64294 -2.06511,-22.736127 -2.35925,-33.207107 m 1.40284,24.412803 c -1.66822,-8.774455 -2.8379,-17.280668 -3.56853,-25.27765 -1.18107,-12.927363 -1.242,-24.805432 -0.26441,-34.5146995 4.63037,0.1112925 9.27948,0.2379211 13.9366,0.3799836 M -434.21824,3.431056 c 30.25564,1.8562181 57.98168,3.2241971 84.60555,5.7276409 m -14.28732,2.4712281 c 23.6016,1.058939 47.44336,2.152855 71.65125,2.452339 m -27.81847,2.072676 c 12.18231,0.700239 24.54676,1.407364 37.14513,2.035247 17.68565,0.881425 35.74198,1.60194 54.21059,1.923089 m -26.55751,-9.801412 c 24.78733,2.568318 51.25646,4.249515 77.38555,6.644883 m -16.1527,5.1582 c 21.84137,1.402981 45.44036,0.830934 69.36412,-0.796936 8.15961,-0.555214 16.38554,-1.084786 24.64153,-1.554485 m -14.68435,-6.790001 c 0.008,-6.47e-4 1.7396,-0.139749 1.74756,-0.140396 24.27552,-1.928432 47.446458,-1.387656 70.091361,-0.432017 m -19.400253,6.165407 c 32.774511,0.534369 64.4560012,-1.383671 97.044969,-3.799277 M 8.1323272,12.43953 c 12.2029878,-0.154431 24.4288358,0.114299 36.7460998,0.732536 14.803012,0.743004 29.746547,1.991266 44.947909,3.618445 M 63.020429,19.15124 c 31.612623,0.313274 65.645251,-2.229409 99.106831,-5.609921 m -37.30938,1.376703 c 21.6525,-1.702263 44.49359,-3.808438 67.48582,-7.0458178 -0.53802,1.8937299 -1.06267,3.7985088 -1.57481,5.7140178 m -1.88016,3.584919 c 3.47649,-0.232771 6.93582,-0.528845 10.38167,-0.88496 -7.36541,26.965548 -13.8537,54.933613 -16.70256,82.270829 m 7.42059,-36.848603 c -3.49867,24.905668 -6.04039,54.023273 -5.81667,83.570203 0,-1.7e-4 0.004,0.50958 0.004,0.50941 m 1.33781,-22.51163 c -0.0878,5.27373 -0.27106,14.78387 -0.35883,20.05761 -0.39432,22.71477 -0.60676,45.20105 0.85134,67.70102 m -5.2123,-17.65035 c 0.67592,29.15682 2.13168,58.18816 4.12353,82.59433 m 1.64483,-18.12997 c 1.40525,12.29815 3.06196,23.67652 4.93672,34.23542 -0.69373,-1.70468 -1.88902,-3.23669 -3.56478,-4.63979 -1.67547,-1.40286 -3.8317,-2.67709 -6.44502,-3.86342 -5.21577,-2.36774 -12.29495,-4.40149 -20.99869,-6.38306 -0.53745,-0.12236 -1.08127,-0.24455 -1.63134,-0.36662 m 14.66664,5.46543 c -3.87335,-0.70143 -8.32349,-1.22301 -13.28652,-1.59383 -8.47335,-0.63308 -18.6549,-0.83958 -30.01009,-0.69369 -11.29058,0.14505 -24.31369,0.64863 -38.231797,1.54141 -4.630366,0.29702 -9.415536,0.64072 -14.327613,1.03516 m 30.93658,1.26011 c -4.24057,-0.12993 -8.54527,-0.20147 -12.939628,-0.22279 -20.926992,-0.10153 -43.422948,1.08577 -67.508823,1.65443 m 17.328151,-5.65096 c -14.531564,0.0728 -27.777371,0.32072 -43.3307138,0.50286 -16.5131592,0.19337 -33.8019292,0.28032 -50.8090852,-0.24002 m 20.987778,3.40819 c -25.81473,0.78737 -52.41791,-0.0359 -77.824319,-1.7353 -4.21187,-0.28172 -8.31547,-0.52587 -12.31383,-0.72873 m 23.850271,-5.71433 c -4.693312,-0.20047 -9.427541,-0.41258 -14.191921,-0.63896 -19.54264,-0.92858 -38.78286,-1.10802 -57.53258,-0.75432 m 22.59309,5.25025 c -35.5061,-0.26258 -65.60343,-0.0847 -98.87579,0.97078 m 32.74513,2.01257 c -22.99964,-0.24825 -45.70288,1.14382 -67.21141,2.61632 -9.30893,0.6373 -18.57244,1.30417 -27.85171,1.9125 m 24.06677,-2.9678 c -24.67358,1.08404 -50.90476,3.14978 -75.02428,4.79058 m 16.14362,-4.38932 c -27.99933,1.63164 -52.50515,3.74616 -75.46692,5.15149 m 13.27027,-5.20759 c -7.57059,0.0494 -15.14142,0.15004 -22.51511,0.24479 1.46273,-0.0178 2.8173,-0.22977 4.07046,-0.6265 1.25303,-0.39668 2.40355,-0.97775 3.45772,-1.7324 2.10823,-1.50924 3.82914,-3.71158 5.20804,-6.51204 1.3787,-2.80006 2.4153,-6.19784 3.15393,-10.09632 0.7386,-3.89826 1.17969,-8.29938 1.36639,-13.10883 0.22982,-5.92034 0.0745,-12.46614 -0.38834,-19.47684 m 1.31521,20.93939 c 0.006,-0.25542 0.0119,-0.51208 0.017,-0.76996 0.20114,-10.05342 -0.39161,-22.2274 -1.24243,-35.42076 -0.85561,-13.26753 -1.97379,-27.77827 -3.01888,-42.83303 0.003,0.0374 -0.23058,-3.34433 -0.22798,-3.30689 m -2.84422,20.34268 c -1.07336,-5.94435 -2.10145,-11.74438 -3.12633,-17.65037 -3.50595,-20.20356 -6.15736,-36.91755 -9.23141,-55.98385 m 6.47823,18.47163 c -3.56897,-17.17445 -6.62642,-34.42618 -9.15078,-50.564258 -2.13132,-13.62539 -3.97331,-27.05221 -5.25848,-38.563457 m -4.4029,21.540936 c -1.73677,-9.458118 -3.01099,-18.875222 -3.84161,-27.833457 -1.2343,-13.311806 -1.51535,-25.872672 -0.76611,-36.2921797 11.64616,-0.5361997 23.34471,-1.181977 34.92512,-1.8670317 m -24.01609,1.9463432 c 34.42395,0.9166144 63.7158,1.5888001 92.51575,0.7790363 m -19.60404,4.8229109 c 26.30827,2.335585 51.63834,4.486839 77.23712,7.462486 m -20.42239,-7.251095 c 8.13246,0.691106 16.35243,1.299693 24.58531,1.836848 22.66898,1.47904 45.62656,2.428336 67.2208,3.052375 m -28.28918,4.948726 c 30.1344,2.991339 63.61674,0.03223 97.9359,-5.629919 m -21.27063,6.192689 c 15.64923,0.564476 30.47693,0.569423 44.6247,0.214413 13.74977,-0.345023 26.9483,-0.469165 39.795795,-0.190547 m -19.347768,0.132094 c 27.641497,0.08938 55.755554,-1.841909 82.224457,-4.376204 m -22.081114,7.701759 c 24.746483,0.422044 50.403978,-1.815643 75.672783,-6.066469 M 24.099511,13.595477 c 5.646977,0.0029 11.405698,0.05392 17.255098,0.153048 20.648017,0.34993 42.477026,1.300836 64.512551,2.862341 M 83.385423,17.520705 C 113.75415,16.44298 144.67781,14.077556 176.90197,9.2254071 M 152.60732,5.8195632 c 16.49461,-1.1053981 33.77638,-2.3470079 51.44604,-3.7270322 -2.18536,7.92021 -4.13898,16.10714 -5.94567,24.605398 m 0.61682,-9.043153 c -7.12202,23.140223 -11.01258,49.227226 -11.93319,75.683059 m -4.00554,-15.744683 c -4.2703,23.445278 -6.43604,48.065818 -7.48003,72.844328 m 3.33221,-15.86022 c -0.37498,5.43 -0.62821,10.8381 -0.76239,16.20866 -0.50047,20.03132 0.65724,39.44149 3.28811,57.44991 m -10.98299,-26.06994 c 1.06801,23.94784 3.29552,48.82989 7.302,73.94186 m 7.5495,-10.99877 c 2.10936,15.89672 4.65294,31.40626 7.89268,46.81823 -0.59663,-1.48822 -1.68903,-2.78534 -3.23713,-3.89081 -1.5482,-1.10556 -3.55222,-2.01962 -5.97427,-2.74503 -4.82871,-1.44621 -11.37739,-2.15494 -19.22407,-2.08604 2e-5,0 -0.16018,0.002 -0.16017,0.002 m 9.9708,-3.50976 c -4.77393,-1.48429 -10.82384,-2.52722 -17.95857,-3.19151 -8.25677,-0.76876 -17.96015,-1.02989 -28.81466,-0.88035 -7.62748,0.10508 -15.80349,0.41255 -24.44039,0.88595 m 7.66342,-2.05219 c -8.40182,-0.0957 -17.539659,0.0702 -27.434259,0.46415 -19.265346,0.76703 -40.024141,2.3335 -62.890427,4.25396 m 29.612677,7.17415 c -16.905663,1.07161 -35.053974,1.45361 -55.2421541,1.3398 -12.3834679,-0.0698 -25.0237779,-0.32149 -38.1933379,-0.6631 m 31.397967,-14.03374 c -22.953683,-0.20608 -47.78436,1.42288 -73.561177,4.07056 m 23.357578,10.60893 c -12.432834,-0.32098 -25.470761,-0.90377 -38.946157,-1.82406 -15.30607,-1.04531 -30.69063,-1.94856 -45.82336,-2.75712 m 8.04051,-4.43801 c -28.3529,-2.14031 -55.69287,-0.29548 -78.40623,2.17811 m 27.42734,-1.62857 c -30.51942,0.43123 -58.92342,1.59707 -85.28387,2.97589 -3.7e-4,2e-5 -0.43295,0.0227 -0.43331,0.0227 m 23.32386,-5.99512 c -7.8803,0.36188 -15.70071,0.84286 -23.47749,1.41735 -19.81205,1.46358 -39.58671,3.5537 -59.37335,5.86305 m 14.30077,2.85288 c -25.77885,1.92525 -51.37063,3.37986 -74.9013,4.02201 m 26.48169,-1.15187 c -16.08882,0.53628 -31.49528,0.77177 -46.8379,0.43834 1.40083,-0.0698 2.69669,-0.33554 3.88971,-0.78851 1.19306,-0.45298 2.28367,-1.0933 3.27375,-1.91257 1.98045,-1.63879 3.55824,-3.9932 4.75237,-6.99801 1.19358,-3.0034 2.00472,-6.65945 2.44761,-10.89367 0.44262,-4.23161 0.51869,-9.05593 0.23206,-14.38451 -0.17191,-3.19577 -0.47474,-6.58059 -0.90954,-10.1336 m -10.28065,31.517 c 0.30006,-1.2705 0.56279,-2.61976 0.79169,-4.04574 0.63436,-3.95177 1.00943,-8.49712 1.19738,-13.57658 0.37059,-10.01484 0.0185,-22.63212 -0.61931,-36.41262 -0.27259,-5.88967 -0.60773,-12.17873 -0.97618,-18.565 m 6.10357,9.65748 c -1.86288,-13.82346 -3.24163,-23.63248 -5.23849,-39.1082 -1.94053,-15.03921 -3.67345,-29.45138 -5.3294,-44.25558 m -1.60219,20.48574 c -3.84414,-22.97331 -8.68495,-45.99924 -13.5128,-68.732924 -2.14836,-10.11637 -4.26448,-20.048798 -6.11085,-29.204697 0,0 -0.002,-0.0098 -0.002,-0.0098 m 0.40725,30.132958 c 1e-5,5.5e-5 -0.0418,-0.287535 -0.0418,-0.28748 -2.26893,-15.620819 -3.71947,-30.045886 -4.19772,-43.35573 -0.47579,-13.24129 0.0256,-25.16138 1.59142,-35.2242858 -0.35319,8.465e-4 6.9391,-0.021259 6.58591,-0.020412 M 1.0832295,282.99172 -159.71026,278.38821 M -411.6249,183.01557 -435.72984,41.53876 m 14.97358,254.29426 18.80026,-28.89339 M -230.85748,21.430107 -40.751645,17.051644 M 197.19104,294.81145 170.51482,277.28181"
       id="path817"
       inkscape:connector-curvature="0"
       inkscape:original-d="M -435.42857,5.9583332 C -328.37883,9.2051905 -223.13416,22.707184 -121.66565,18.807956 -14.768936,14.700132 91.389326,20.74867 199.57142,7.4702381 174.34036,91.035548 171.31282,200.71597 188.23214,290.95238 177.72207,265.4788 39.443371,287.30758 -108.86247,279.499 c -130.29109,-6.86007 -227.1617,8.42957 -313.71491,8.42957 46.82523,-1.17109 -16.89029,-204.129166 -12.85119,-281.9702368 z"
       inkscape:path-effect="#path-effect4609"
       sodipodi:nodetypes="csccscc" />
  </g>
</svg>
