<?xml version="1.0" encoding="UTF-8" standalone="no"?>
<!-- Created with Inkscape (http://www.inkscape.org/) -->

<svg
   xmlns:dc="http://purl.org/dc/elements/1.1/"
   xmlns:cc="http://creativecommons.org/ns#"
   xmlns:rdf="http://www.w3.org/1999/02/22-rdf-syntax-ns#"
   xmlns:svg="http://www.w3.org/2000/svg"
   xmlns="http://www.w3.org/2000/svg"
   xmlns:sodipodi="http://sodipodi.sourceforge.net/DTD/sodipodi-0.dtd"
   xmlns:inkscape="http://www.inkscape.org/namespaces/inkscape"
   width="654.89539mm"
   height="303.29269mm"
   viewBox="0 0 654.89539 303.2927"
   version="1.1"
   id="svg8"
   inkscape:version="0.92.4 5da689c313, 2019-01-14"
   sodipodi:docname="frame_6_orange.svg">
  <defs
     id="defs2">
    <inkscape:path-effect
       effect="sketch"
       id="path-effect4671"
       is_visible="true"
       nbiter_approxstrokes="5"
       strokelength="100"
       strokelength_rdm="0.3;1"
       strokeoverlap="0.3"
       strokeoverlap_rdm="0.3;1"
       ends_tolerance="0.1;1"
       parallel_offset="5;1"
       tremble_size="5;1"
       tremble_frequency="1"
       nbtangents="5"
       tgt_places_rdmness="1;1"
       tgtscale="10"
       tgtlength="100"
       tgtlength_rdm="0.3;1" />
    <inkscape:path-effect
       effect="sketch"
       id="path-effect4669"
       is_visible="true"
       nbiter_approxstrokes="5"
       strokelength="100"
       strokelength_rdm="0.3;1"
       strokeoverlap="0.3"
       strokeoverlap_rdm="0.3;1"
       ends_tolerance="0.1;1"
       parallel_offset="5;1"
       tremble_size="5;1"
       tremble_frequency="1"
       nbtangents="5"
       tgt_places_rdmness="1;1"
       tgtscale="10"
       tgtlength="100"
       tgtlength_rdm="0.3;1" />
    <inkscape:path-effect
       effect="sketch"
       id="path-effect4609"
       is_visible="true"
       nbiter_approxstrokes="5"
       strokelength="100"
       strokelength_rdm="0.3;1"
       strokeoverlap="0.3"
       strokeoverlap_rdm="0.3;1"
       ends_tolerance="0.1;1"
       parallel_offset="5;1"
       tremble_size="5;1"
       tremble_frequency="1"
       nbtangents="5"
       tgt_places_rdmness="1;1"
       tgtscale="10"
       tgtlength="100"
       tgtlength_rdm="0.3;1" />
  </defs>
  <sodipodi:namedview
     id="base"
     pagecolor="#ffffff"
     bordercolor="#666666"
     borderopacity="1.0"
     inkscape:pageopacity="0.0"
     inkscape:pageshadow="2"
     inkscape:zoom="0.175"
     inkscape:cx="1754.0172"
     inkscape:cy="447.61287"
     inkscape:document-units="mm"
     inkscape:current-layer="layer1"
     showgrid="false"
     inkscape:window-width="1920"
     inkscape:window-height="1027"
     inkscape:window-x="0"
     inkscape:window-y="0"
     inkscape:window-maximized="1"
     fit-margin-top="0"
     fit-margin-left="0"
     fit-margin-right="0"
     fit-margin-bottom="0" />
  <metadata
     id="metadata5">
    <rdf:RDF>
      <cc:Work
         rdf:about="">
        <dc:format>image/svg+xml</dc:format>
        <dc:type
           rdf:resource="http://purl.org/dc/dcmitype/StillImage" />
        <dc:title></dc:title>
      </cc:Work>
    </rdf:RDF>
  </metadata>
  <g
     inkscape:label="Layer 1"
     inkscape:groupmode="layer"
     id="layer1"
     transform="translate(445.99167,-2.3548146)">
    <path
       style="fill:none;stroke:#febb67;stroke-width:2.59291673;stroke-linecap:butt;stroke-linejoin:miter;stroke-miterlimit:4;stroke-dasharray:none;stroke-opacity:1"
       d="m -425.82659,67.917817 c 1.78283,15.739757 1.48271,32.646463 0.21155,50.378783 -0.70602,9.84878 -1.70021,19.81534 -2.76431,29.84887 m 0.10577,-29.55718 c -1.29766,16.45143 -2.41362,33.20776 -3.08003,50.40517 -0.27933,7.20833 -0.47659,14.42817 -0.57227,21.61914 m -5.45345,-9.68425 c -2.09672,17.97798 -2.98488,35.78353 -2.69114,52.58075 0.11636,6.65461 0.41905,13.17714 0.91229,19.50128 m 5.20859,-13.90776 c 0.87347,18.7026 2.08694,35.94251 5.22998,52.24098 14.89275,2.14691 29.57751,3.89343 43.8739,5.50134 m -35.13181,-11.60984 c 29.362,2.76994 58.84865,4.28884 89.27171,4.02353 m -22.05854,5.68321 c 12.15192,0.93349 24.68256,0.98774 37.34333,0.44225 13.84758,-0.59663 28.02789,-1.91857 42.31984,-3.65894 m -24.80598,4.02899 c 24.08875,0.0228 50.18164,-0.71284 77.38197,-1.45823 m -11.89205,-3.79794 c 9.56536,-0.1977 18.98102,-0.18827 28.30095,0.0566 14.42918,0.37905 27.91209,0.9958 39.86228,1.71974 m -15.81623,1.47855 c 21.11978,0.0249 40.53123,-1.22129 58.08696,-2.61962 10.75164,-0.85638 22.062214,-1.87878 32.822491,-2.79741 m -22.263751,-0.79451 c 21.755312,0.53854 47.08235,0.64152 73.597751,2.72356 6.217665,0.48823 12.643846,0.91656 20.324336,1.46239 m -29.698263,0.3899 c 1.980432,0.0907 3.966882,0.18391 5.961186,0.27999 14.265293,0.68726 31.335524,0.66695 50.8611063,0.15052 8.2572987,-0.21839 16.7115367,-0.51662 25.5380267,-0.86242 m -25.2134276,-4.6402 c 19.2208766,0.1972 37.9315636,-0.62162 57.2548726,-2.00047 10.96332,-0.78231 21.846805,-1.72411 32.482972,-2.67234 m -25.445524,8.49164 c 19.355132,-0.3662 37.251964,0.0697 54.415694,1.28667 11.51156,0.81621 22.165,1.94854 31.87857,3.26927 m -17.12847,-6.8254 c 10.76894,0.2627 19.5129,0.46862 28.17009,0.83094 M -428.40141,59.867257 c 1.01199,15.220995 0.503,31.54629 -0.93823,48.462133 -0.85082,9.98617 -2.02176,20.12489 -3.38156,30.30886 m 1.91586,-15.94137 c -1.23335,16.77842 -2.24578,33.33508 -2.73514,50.23847 -0.42244,14.59206 -0.44598,29.21343 0.10873,43.85357 m 0.78911,-26.66137 c -0.64777,14.77841 -1.28732,28.66215 -1.39192,41.76446 -0.14364,17.99149 0.72846,34.31714 3.88072,49.097 m -4.93526,-27.0544 c 0.66853,10.2496 1.84612,20.1993 3.68842,29.79613 24.29941,4.07486 47.44759,7.39628 70.02967,10.94964 m -31.04937,-8.67742 c 26.72808,2.60216 53.38755,2.92877 80.02287,2.21344 2.01319,-0.0541 4.02907,-0.11417 6.04777,-0.17986 m -32.10516,8.83525 c 5.10948,0.0172 10.1666,0.0208 15.21844,0.009 26.33537,-0.0637 52.10339,-0.56346 79.85054,-1.70493 m -23.67664,0.80876 c 18.99416,-0.4078 38.11788,-1.0523 57.05751,-1.82285 13.07979,-0.53214 25.18529,-1.33749 36.6991,-2.34908 m -23.35905,1.54106 c 25.20727,-1.52563 53.9089,-1.1466 76.23751,-0.62721 8.12503,0.189 16.20085,0.42022 24.333676,0.66916 m -31.866276,2.10405 c 1.90887,-0.0835 3.81179,-0.17171 5.70882,-0.26433 23.98485,-1.17095 53.286749,-3.39082 80.269582,-6.39768 2.774271,-0.30915 5.726182,-0.68926 8.834293,-1.14525 m -32.951892,6.78413 c 5.77578,0.06 11.73995,0.1932 17.945033,0.40683 13.181388,0.45383 31.659145,0.49356 51.7483822,0.22692 10.2101078,-0.13551 21.0927378,-0.35487 32.1720318,-0.66297 M 7.3228765,285.7437 c 19.4061595,0.55533 41.1812885,0.79652 61.2559165,1.80259 9.324602,0.46731 18.451718,1.099 27.523397,1.99505 m -20.272909,3.02045 c 19.859943,-0.6118 38.963469,-0.9118 56.575299,-0.89981 4.59241,0.003 9.03154,0.0275 13.29569,0.0721 m -12.13315,3.17507 c 0.004,-2.5e-4 1.60883,-0.09 1.61324,-0.0903 18.0049,-0.991 35.14129,-1.37957 47.03687,-1.4145 M -428.81563,64.015395 c 0.54457,16.839946 0.15118,34.567426 -0.91298,52.149075 -0.44434,7.3411 -1.01027,14.73447 -1.68829,22.14321 m 0.22208,-15.19223 c -0.974,18.57358 -2.10426,35.90272 -2.72157,52.95557 -0.32583,9.00097 -0.50003,17.74727 -0.42347,26.26366 m -4.481,-27.91721 c -1.61771,17.00695 -2.39415,34.7912 -2.05494,52.36252 0.32995,17.09207 1.71697,34.06 4.46928,49.93155 m -2.50616,-21.4764 c 0.32436,13.57777 1.65604,26.31354 4.18578,38.22571 15.48303,2.1213 31.11779,3.62275 46.03241,4.90241 m -10.54805,-10.49853 c 29.2886,3.35362 56.4435,4.84753 82.48586,5.74484 m -23.89675,2.33183 c 70.5773,2.68523 -40.58701,-1.5401 29.99029,1.14513 19.98857,0.7858 39.21474,1.62974 57.63844,2.8695 m -24.43281,-7.56282 c 23.40413,-0.39827 47.46243,-0.54205 72.03107,-0.12759 7.7508,0.13076 15.0912,0.22584 22.26012,0.29019 m -21.71364,-5.39768 c 1.54812,0.004 3.09273,0.0113 4.63413,0.023 32.21193,0.24396 59.01064,0.86618 83.42675,2.72034 m -33.45258,11.70471 c 8.31782,-0.0806 16.6793,-0.24445 24.88342,-0.41585 22.28938,-0.46566 45.085551,-1.02204 70.146572,-0.41771 m -26.585833,-16.08389 c 11.729038,-0.55488 24.157096,-0.48383 37.680253,0.15982 8.923682,0.42473 21.342194,0.82019 33.711934,1.05972 m -12.066082,10.92968 c 10.114152,0.008 21.0917889,-0.15847 32.1527899,-0.49045 18.6122891,-0.55861 37.2068971,-1.5727 55.1030411,-3.10439 0.908049,-0.0777 1.81342,-0.15668 2.716203,-0.23689 m -16.182247,5.94415 c 8.860021,-0.0583 17.653632,-0.2007 26.438065,-0.38887 21.754734,-0.466 43.070214,-1.18545 62.589074,-1.55683 2.90007,-0.0552 5.75113,-0.10319 8.56285,-0.14317 M 111.71794,281.2751 c 6.62768,-0.12746 13.10107,-0.2025 19.43574,-0.22094 15.73691,-0.0458 29.80183,0.26251 41.88202,0.85961 M -427.89635,70.492781 c 0.31994,17.463062 0.45942,30.605989 0.94518,48.335989 0.35017,12.78084 0.81889,25.14957 1.46797,37.85658 m -3.78101,-28.91709 c -1.31823,14.12636 -2.23064,29.06617 -2.598,44.60692 -0.41653,17.62101 -0.12347,35.76476 1.03996,53.49085 m 3.62673,-24.20487 c -0.8904,12.3762 -1.44142,24.64347 -1.49279,36.61082 -0.0574,13.3633 0.508,26.39575 1.93437,38.8064 m -3.1575,-21.50176 c 0.0939,12.00036 1.06851,23.33813 2.95244,33.94423 14.44542,1.94284 28.81749,3.21992 42.33134,4.18118 m -21.10816,-2.59697 c 24.31882,2.39177 48.40487,4.0295 72.22165,4.99774 m -17.87829,4.64646 c 11.69972,0.89795 23.45044,1.1815 35.16677,1.08047 18.61767,-0.16054 37.54607,-1.2973 56.63921,-2.609 m -25.93609,-0.97935 c 25.75668,-0.0984 51.95609,-0.36837 78.70523,0.0603 7.29669,0.11692 14.30312,0.20781 21.13734,0.28305 m -35.02349,-3.3934 c 2.90086,-0.0771 5.80961,-0.14096 8.7296,-0.19162 32.30211,-0.56046 59.49759,-0.97643 87.13188,-1.51694 m -24.77557,-0.47353 c 54.083612,-1.89588 -27.1384,0.9559 26.94521,-0.93998 22.745234,-0.7572 42.447028,-1.22199 64.011689,-0.96134 m -21.417204,2.33149 c 12.87616,-0.29939 24.945826,-0.40787 37.95917,-0.41081 12.84159,-0.003 29.444704,-0.82887 47.1693165,-2.89225 1.6014288,-0.18643 3.216132,-0.38332 4.8435936,-0.59116 m -22.2367371,-2.53871 c 6.6196088,-0.249 13.427747,-0.44967 20.7669838,-0.60723 21.9489992,-0.47119 38.1331812,-0.39903 61.7419722,-0.64434 3.168393,-0.0329 6.320583,-0.0715 9.458013,-0.11846 m -18.025391,5.10832 c 5.542034,-0.0168 11.082655,-0.12749 16.626936,-0.3199 21.767199,-0.75543 42.969188,-2.75504 62.482608,-4.90536 2.30048,-0.2535 4.5742,-0.50882 6.81205,-0.76343 m -30.49341,-1.45989 c 4.88589,-0.37943 9.73482,-0.6205 14.49323,-0.75174 14.01676,-0.38659 27.4522,0.17822 38.4534,1.01352 M -437.86509,61.873684 c 1.42059,17.550492 1.63346,36.104487 1.61499,55.124566 -0.005,5.63008 -0.071,18.25702 -0.0765,23.8871 m 4.53644,-26.61343 c -0.90105,18.09748 -2.69251,36.42111 -4.61973,54.68646 -1.46756,13.90894 -3.01963,27.83741 -4.24672,41.19334 m 6.95902,-22.90005 c -1.69057,15.99079 -2.39063,31.8482 -2.10821,47.39156 0.22312,12.27936 1.06232,24.45027 2.54463,36.26876 m -5.11933,-24.96324 c 0.0683,13.33112 1.55566,26.9063 4.56028,39.97142 15.10071,2.39369 29.36876,4.62974 44.24131,6.66356 m -13.9173,-7.18165 c 26.56843,2.42842 52.74407,5.67408 73.14624,8.37147 m -27.71372,-0.46155 c 12.27676,0.65181 24.36536,0.8745 36.41546,0.79986 19.13855,-0.11855 38.44203,-0.98966 58.52089,-2.14479 m -19.85745,-2.63229 c 24.60565,-0.67088 50.24607,0.48194 75.08287,3.38686 3.22,0.37661 6.37191,0.75986 9.43725,1.14478 m -24.51445,1.98616 c 4.46519,-0.035 8.92355,-0.0831 13.37555,-0.14097 30.74474,-0.39943 57.22304,-2.53649 81.33577,-4.81214 m -23.98899,2.85206 c 10.24127,-0.69818 20.53683,-1.12538 30.61221,-1.351 15.47685,-0.34657 31.051671,-0.23577 47.438624,0.19569 m -21.052807,-7.3752 c 16.086189,-0.23711 33.024606,-0.0547 51.641325,0.82415 6.29626,0.29723 13.532802,0.50438 21.428799,0.64327 m -13.243957,9.60126 c 12.400431,0.6386 27.2678225,0.81552 45.3034035,0.8684 14.8368835,0.0435 31.7436555,0.004 48.3104465,0.18983 m -28.458437,-4.95685 c 13.477139,-0.22173 27.660999,-0.33183 42.647286,-0.22838 11.218324,0.0774 22.522739,0.27237 33.904087,0.60565 m -11.91689,3.99912 c 15.96241,-1.10225 31.68549,-1.56606 45.80478,-1.78843 10.51875,-0.16566 21.15136,-0.20778 29.6411,-0.20369 M 153.266,289.61164 c 12.66443,-0.81838 23.7635,-1.05428 32.36843,-1.0059 m -378.95948,5.15425 160.821819,-3.47578 m 92.598425,1.24734 143.461066,-3.95686 m -225.638537,6.166 149.091547,-3.82586 M -428.53915,97.329532 -440.18081,287.12909 m 120.1295,8.03634 169.5204,-1.91765"
       id="path4667"
       inkscape:connector-curvature="0"
       inkscape:path-effect="#path-effect4671"
       inkscape:original-d="m -429.37208,53.523184 c 6.40587,72.482866 -15.14914,164.133116 -2.26785,232.833336 84.10287,11.392 151.11353,7.9095 224.49813,7.61581 64.99574,-0.26013 107.503798,-3.86706 165.573296,-1.5682 53.747314,2.12775 173.447584,-3.77976 223.005954,-3.77976"
       sodipodi:nodetypes="ccssc" />
  </g>
</svg>
