<?xml version="1.0" encoding="UTF-8" standalone="no"?>
<!-- Created with Inkscape (http://www.inkscape.org/) -->

<svg
   xmlns:dc="http://purl.org/dc/elements/1.1/"
   xmlns:cc="http://creativecommons.org/ns#"
   xmlns:rdf="http://www.w3.org/1999/02/22-rdf-syntax-ns#"
   xmlns:svg="http://www.w3.org/2000/svg"
   xmlns="http://www.w3.org/2000/svg"
   xmlns:sodipodi="http://sodipodi.sourceforge.net/DTD/sodipodi-0.dtd"
   xmlns:inkscape="http://www.inkscape.org/namespaces/inkscape"
   width="170.29036mm"
   height="135.19226mm"
   viewBox="0 0 170.29036 135.19226"
   version="1.1"
   id="svg8"
   inkscape:version="0.92.4 5da689c313, 2019-01-14"
   sodipodi:docname="frame_1_blue.svg">
  <defs
     id="defs2" />
  <sodipodi:namedview
     id="base"
     pagecolor="#ffffff"
     bordercolor="#666666"
     borderopacity="1.0"
     inkscape:pageopacity="0.0"
     inkscape:pageshadow="2"
     inkscape:zoom="0.35"
     inkscape:cx="259.18659"
     inkscape:cy="165.5492"
     inkscape:document-units="mm"
     inkscape:current-layer="layer1"
     showgrid="false"
     inkscape:window-width="1920"
     inkscape:window-height="1027"
     inkscape:window-x="0"
     inkscape:window-y="0"
     inkscape:window-maximized="1"
     fit-margin-top="0"
     fit-margin-left="0"
     fit-margin-right="0"
     fit-margin-bottom="0" />
  <metadata
     id="metadata5">
    <rdf:RDF>
      <cc:Work
         rdf:about="">
        <dc:format>image/svg+xml</dc:format>
        <dc:type
           rdf:resource="http://purl.org/dc/dcmitype/StillImage" />
        <dc:title></dc:title>
      </cc:Work>
    </rdf:RDF>
  </metadata>
  <g
     inkscape:label="Layer 1"
     inkscape:groupmode="layer"
     id="layer1"
     transform="translate(137.74609,3.0335789)">
    <path
       style="fill:#95c6c2;stroke:none;stroke-width:0.03527778;fill-opacity:1"
       inkscape:connector-curvature="0"
       d="m -25.651059,-2.8567048 c -0.10583,0.0706 -3.175,0.17639 -6.84389,0.24695 -3.70417,0.0353 -7.97278,0.17639 -9.525,0.3175 -1.65806,0.14111 -0.38806,0.17639 2.96333,0.10583 3.175,-0.0706 7.76112,-0.14111 10.16,-0.14111 2.64584,0 4.33917,-0.14111 4.33917,-0.35278 0,-0.35278 -0.81139,-0.49389 -1.09361,-0.17639 z"
       id="path4810" />
    <path
       style="fill:#95c6c2;stroke:none;stroke-width:0.03527778;fill-opacity:1"
       inkscape:connector-curvature="0"
       d="m 21.656441,-2.2922548 c -13.08805,0.45861 -21.69583005,1.09361 -29.10417,2.08139004 -2.29305,0.28222 -2.32833,0.3175 -0.35277,0.17638 1.16416,-0.10583 7.09082995,-0.28222 13.15861,-0.42333 6.0325,-0.10583 11.00667,-0.35278 11.00667,-0.52917 0,-0.17638004 3.03388,-0.24694004 6.70277,-0.21166004 3.70417,0.0705 6.70278,0.21166004 6.70278,0.35278004 0,0.14111 -4.16278,0.3175 -9.27805,0.42333 -5.08,0.10583 -9.63084,0.24694 -10.08945,0.35278 -0.45861,0.10583 -10.23056005,0.35277 -21.69583,0.59972 -11.46528,0.21167 -27.90473,0.56443996 -36.54778,0.77610996 -8.64306,0.24694 -16.15723,0.38806 -16.72167,0.28222 -1.905,-0.24694 -0.10583,-0.74082996 3.13972,-0.81138996 1.76389,-0.0353 -2.92805,-0.17639 -10.40694,-0.3175 -16.79223,-0.28222 -45.720011,-1.30527 -53.798621,-1.90500004 -1.86972,-0.14111 -1.94028,-0.10583 -0.81139,0.17639 0.74084,0.17639 2.01084,0.84667004 2.8575,1.48167004 0.84667,0.635 1.83445,1.30527996 2.15195,1.51693996 0.42333,0.24695 -1.23473,0.35278 -5.46806,0.35278 h -6.06778 l -0.3175,1.05833 c -0.14111,0.56445 -0.52916,5.75028 -0.81139,11.4652798 -0.3175,5.715 -0.70555,12.77056 -0.88194,15.69862 -0.49389,7.09083 -0.98778,19.05 -1.27,28.75139 -0.14111,4.37444 -0.35278,8.07861 -0.49389,8.29027 -0.10583,0.17639 -0.10583,7.33778 0.0706,15.87501 0.17639,9.877773 0.17639,17.215555 -0.0706,20.178885 -0.52917,7.05556 -1.19944,25.82334 -0.9525,26.07028 0.14111,0.14111 2.50472,0.28222 5.25639,0.3175 4.1275,0.0706 4.445,0.0353 1.69333,-0.14111 -4.51555,-0.28222 -3.175,-0.74083 2.2225,-0.74083 7.54945,-0.0353 26.56417,-1.27 32.349731,-2.11667 2.15194,-0.3175 -0.24695,-0.24695 -12.170841,0.35278 -3.66889,0.17639 -11.04194,0.45861 -16.29833,0.56444 l -9.63083,0.24695 0.0706,-14.78139 c 0.0706,-16.792228 0.42333,-15.698617 0.84667,2.39888 l 0.24694,11.53584 4.62139,-0.14111 c 20.6375,-0.70556 58.031951,-1.30528 55.245001,-0.91722 l -1.5875,0.21166 1.23473,0.42334 c 2.71639,0.9525 25.15305,1.65805 25.47055,0.81138 0.0706,-0.17638 0.635,-0.21166 1.44639,-0.0353 0.74084,0.17639 2.32834,0.17639 3.70417,0 3.28083,-0.45861 36.83,-0.81138 39.22889,-0.42333 2.29306,0.38806 -4.19805,0.635 -28.01056,1.16417 -8.11389,0.17639 -14.85194,0.42333 -14.99305,0.56444 -0.3175,0.35278 28.82194,-0.14111 36.12444,-0.59972 7.19667,-0.45861 25.04723,-0.59972 29.28056,-0.24694 1.62278,0.14111 2.32833,0.10583 1.65806,-0.0705 -2.29306,-0.56445 -1.51695,-0.70556 3.56305,-0.70556 2.8575,0 5.18584,-0.10583 5.22111,-0.28222 0,-0.14111 0.0706,-0.56445 0.14112,-0.9525 0.10583,-0.38806 0.38805,-5.53861 0.70555,-11.46528 0.3175,-5.92667 0.70556,-13.15861 0.88195,-16.051392 0.45861,-6.914444 0.91722,-18.026953 1.48166,-34.431113 0.3175,-10.54806 0.3175,-16.79223 -0.0353,-30.69167 -0.42333,-16.36889 -0.98777,-35.6658398 -1.05833,-35.8774998 -0.0353,-0.0353 -0.56444,-0.0353 -1.16417,0 -0.635,0 -4.40972,0.14111 -8.39611,0.3175 z m 8.32556,17.1097198 c 0.0353,16.75695 -0.38806,15.16945 -0.77611,-2.82222 -0.21167,-10.1599998 -0.17639,-11.92388976 0.24694,-11.78277976 0.42334,0.14111 0.49389,2.57527996 0.52917,14.60499976 z m -62.19473,-6.6674998 c 3.95111,0.14111 5.82084,0.35278 5.78556,0.59972 -0.0353,0.28222 1.02305,0.35278 3.45722,0.28222 1.94028,-0.0705 4.33917,0.0706 5.29167,0.28223 0.98778,0.21166 3.59833,0.56444 5.82083,0.7055498 4.40972,0.35278 6.70278,0.84667 6.70278,1.48167 0,0.24694 -0.52917,0.9525 -1.12889,1.62278 -1.09361,1.09361 -1.12889,1.19944 -0.52917,1.65805 0.635,0.45861 3.31612,1.02306 6.77333995,1.41111 1.55222005,0.17639 1.69333005,0.14111 1.16416005,-0.28222 -0.91722005,-0.74083 -0.42333005,-0.9525 2.15195,-0.9525 l 2.32833,-0.0353 -1.41111,-0.49389 c -0.77611,-0.28222 -1.44639,-0.52916 -1.48167,-0.52916 -0.0706,0 -0.10583,-0.21167 -0.10583,-0.49389 0,-0.28222 0.28222,-0.59972 0.67028,-0.74083 1.30528,-0.38806 6.63222,-0.88195 10.01889,-0.88195 3.88055,0 3.88055,0 2.89278,2.82222 -0.635,1.76389 -0.635,1.76389 -0.21167,1.76389 0.17639,0 0.42333,-0.59972 0.56444,-1.34055 0.24695,-1.27 0.28223,-1.27 0.59973,-0.42334 0.35277,0.91723 0.17639,7.76111 -0.42334,17.10973 -0.17639,2.71639 -0.42333,6.13833 -0.52916,7.58472 -0.14111,2.57528 -0.14111,2.54 0.49389,-1.16417 0.38805,-2.11666 0.77611,-3.91583 0.84666,-4.02166 0.42334,-0.38806 0.67028,4.30388 0.52917,9.2075 -0.10583,2.92805 -0.10583,4.72722 -0.0353,3.98639 0.28222,-2.61056 0.81139,-1.23473 0.84667,2.29305 0.0353,3.52778 0.0705,3.45722 0.52916,-2.54 0.635,-8.255 0.67028,-8.32556 1.05834,-2.64583 0.49389,7.40833 0.35278,14.71083 -0.35278,17.63889 -0.74083,2.99861 -1.27,16.65111 -0.635,16.26305 0.59972,-0.35277 0.74083,1.83445 0.91722,14.957782 0.10584,8.572503 0.0353,13.476113 -0.28222,16.580553 -0.24694,2.43417 -0.38806,5.57389 -0.28222,7.02028 l 0.14111,2.61056 -2.75167,-0.21167 c -1.55222,-0.10583 -7.37305,-0.38805 -13.0175,-0.635 -9.38389,-0.35278 -11.04194,-0.52916 -20.10833,-1.97555 -5.64445,-0.9525 -11.14778,-1.62278 -12.87639,-1.65806 -1.65806,-0.0353 -9.45445,0.17639 -17.39195,0.45861 -11.60639,0.42333 -15.875,0.45861 -22.26028,0.10583 -4.33916,-0.21166 -8.18444,-0.52916 -8.53722,-0.67027 -0.42333,-0.14111 -0.52917,-0.10584 -0.35278,0.17639 0.14111,0.24694 0.88195,0.52916 1.65806,0.635 0.74083,0.14111 1.37583,0.35277 1.37583,0.49388 0,0.14112 1.86972,0.38806 4.16278,0.52917 7.47889,0.45861 8.18444,0.81139 1.65805,0.81139 -6.87916,0 -7.83166,0.10583 -5.11527,0.42333 1.79916,0.21167 1.72861,0.24695 -1.16417,0.28223 -2.01083,0.0353 -3.03389,-0.0706 -2.89278,-0.28223 0.14111,-0.21166 -1.19944,-0.35277 -3.77472,-0.35277 -2.18722,0 -4.62139,-0.17639 -5.3975,-0.38806 -0.77611,-0.17639 -3.24556,-0.49389 -5.53861,-0.67028 -6.0325,-0.45861 -7.761111,-1.41111 -5.36222,-2.99861 0.45861,-0.28222 0.84666,-0.84667 0.84666,-1.23472 0,-0.77611 -1.16416,-1.16417 -5.115281,-1.76389 -3.31611,-0.45861 -3.59833,-0.45861 -3.06916,0.0705 0.81139,0.81139 0.42333,0.98778 -1.94028,0.98778 l -2.39889,0.0353 1.41111,0.49389 c 0.77611,0.28222 1.44639,0.52916 1.51695,0.52916 0.0353,0 0.0705,0.21167 0.0705,0.49389 0,0.81139 -2.99861,1.30528 -8.92528,1.51695 -5.50333,0.21166 -5.53861,0.21166 -5.53861,-0.56445 0,-0.42333 0.24695,-1.34055 0.52917,-2.04611 0.635,-1.48167 0.635,-1.51694 0.21166,-1.51694 -0.17638,0 -0.42333,0.59972 -0.56444,1.30527 -0.24694,1.30528 -0.28222,1.30528 -0.59972,0.45862 -0.38806,-1.02306 -0.17639,-8.14917 0.635,-19.014728 0.28222,-3.951111 0.45861,-7.231937 0.38805,-7.302497 -0.0705,-0.0706 -0.3175,1.30528 -0.56444,3.033886 -0.24695,1.728611 -0.56445,3.598333 -0.70556,4.1275 -0.49389,1.763889 -0.84666,-2.716389 -0.67027,-8.501946 0.10583,-2.92805 0.10583,-4.65666 0.0353,-3.81 -0.28222,2.71639 -0.81139,1.16417 -0.88194,-2.50472 -0.0353,-1.97555 -0.10583,-2.89278 -0.17639,-2.01083 -0.0706,0.88194 -0.35278,4.51555 -0.635,8.04333 -0.28222,3.56306 -0.52917,6.914444 -0.52917,7.408333 0,0.564444 -0.14111,0.776111 -0.3175,0.564444 -0.52916,-0.529167 -0.84666,-21.554717 -0.42333,-27.128607 0.24694,-3.10445 0.28222,-5.78556 0.0706,-7.23195 -0.28223,-2.11666 -0.3175,-2.18722 -0.35278,-0.70555 -0.0353,1.09361 -0.14111,1.41111 -0.35278,1.05833 -0.17639,-0.28222 -0.38806,-11.53583 -0.42333,-25.01195 l -0.10584,-24.5180498 5.43278,0.0705 c 12.02972,0.14111 24.659171,0.45861 27.340281,0.635 1.55222,0.10584 5.85611,0.6702798 9.525,1.2347198 l 6.70278,1.02306 8.11389,-0.42333 c 10.05417,-0.49389 36.15972,-0.52917 39.51111,-0.0353 2.71639,0.42333 3.28084,0.3175 1.72861,-0.24694 -1.44638,-0.56445 -7.23194,-1.3052798 -14.00527,-1.7991698 -3.24556,-0.24695 -5.78556,-0.56445 -5.64445,-0.70556 0.56445,-0.56444 7.54945,-0.74083 15.38111,-0.42333 z m 51.82306,24.2711098 -0.3175,3.88056 -0.0353,-5.11528 c -0.0353,-2.82222 0.0706,-5.50333 0.21167,-5.99722 0.38806,-1.41111 0.49389,2.75166 0.14111,7.23194 z m -143.263061,70.202785 -0.28223,3.175 -0.0706,-2.99861 c 0,-1.65806 0.0706,-5.080002 0.24694,-7.584725 l 0.24695,-4.586111 0.10583,4.409722 c 0.0353,2.434167 -0.0706,5.820834 -0.24694,7.584724 z m -11.88861,21.94278 0.21166,4.69194 h -1.05833 -1.05834 v -2.39889 c 0.0353,-2.78694 0.56445,-13.58194 0.95251,-18.59139 0.24694,-3.38666 0.28222,-3.24555 0.49388,4.05695 0.14112,4.16278 0.35278,9.70139 0.45862,12.24139 z m 158.503061,-8.29028 c -0.10583,0.28222 -0.21167,0.17639 -0.21167,-0.21167 -0.0353,-0.38805 0.0706,-0.59972 0.17639,-0.45861 0.10584,0.10584 0.14111,0.42334 0.0353,0.67028 z m -0.38805,1.69333 c 0.3175,-0.74083 0.42333,-0.88194 0.3175,-0.35277 -0.0706,0.49389 -0.17639,1.41111 -0.17639,2.01083 0,1.05833 -0.10584,1.16417 -1.09361,1.16417 -0.88195,0 -1.05834,-0.10584 -0.88195,-0.56445 0.14111,-0.3175 0.42333,-1.30528 0.67028,-2.2225 l 0.42333,-1.62278 0.14111,1.41111 0.10584,1.41112 z m -82.58529,0.3175 c -0.77611,0.10584 -3.06916,0.10584 -5.11528,0 -3.63361,-0.17638 -3.63361,-0.17638 1.41112,-0.21166 2.82222,0 4.48027,0.0705 3.70416,0.21166 z m 79.90417,2.01084 c 0,0.52916 -0.3175,0.56444 -2.15194,0.35278 -1.19945,-0.10584 -4.33917,-0.24695 -6.985,-0.28223 -6.17361,-0.0705 -3.175,-0.49389 4.1275,-0.56444 4.445,-0.0706 5.00944,0 5.00944,0.49389 z"
       id="path4816" />
    <path
       style="fill:#95c6c2;stroke:none;stroke-width:0.03527778;fill-opacity:1"
       inkscape:connector-curvature="0"
       d="m -19.336339,11.324965 c 0.635,0.0706 1.5875,0.0706 2.11667,0 0.52917,-0.0706 0,-0.14111 -1.16417,-0.14111 -1.16416,0 -1.5875,0.0705 -0.9525,0.14111 z"
       id="path4818" />
    <path
       style="fill:#95c6c2;stroke:none;stroke-width:0.03527778;fill-opacity:1"
       inkscape:connector-curvature="0"
       d="m -35.211339,13.088855 c 0.21167,0.0705 0.635,0.0705 0.88195,0 0.21166,-0.10583 0.0353,-0.17639 -0.45862,-0.17639 -0.49388,0 -0.67027,0.0706 -0.42333,0.17639 z"
       id="path4820" />
    <path
       style="fill:#95c6c2;stroke:none;stroke-width:0.03527778;fill-opacity:1"
       inkscape:connector-curvature="0"
       d="m -33.447449,13.088855 c 0.24694,0.10583 0.56444,0.0705 0.67028,-0.0353 0.14111,-0.10583 -0.0706,-0.21167 -0.45861,-0.17639 -0.38806,0 -0.49389,0.10584 -0.21167,0.21167 z"
       id="path4822" />
    <path
       style="fill:#95c6c2;stroke:none;stroke-width:0.03527778;fill-opacity:1"
       inkscape:connector-curvature="0"
       d="m 15.765051,18.309965 c 0,0.9525 0.0706,1.34056 0.14111,0.77611 0.0706,-0.52917 0.0706,-1.30528 0,-1.76389 -0.0705,-0.42333 -0.14111,0 -0.14111,0.98778 z"
       id="path4824" />
    <path
       style="fill:#95c6c2;stroke:none;stroke-width:0.03527778;fill-opacity:1"
       inkscape:connector-curvature="0"
       d="m 15.377001,21.661355 c 0,0.67028 0.0705,0.9525 0.17639,0.59972 0.0705,-0.3175 0.0705,-0.88194 0,-1.23472 -0.10584,-0.3175 -0.17639,-0.0353 -0.17639,0.635 z"
       id="path4826" />
    <path
       style="fill:#95c6c2;stroke:none;stroke-width:0.03527778;fill-opacity:1"
       inkscape:connector-curvature="0"
       d="m -119.7369,105.79886 c 0,0.56444 0.0706,0.77611 0.17639,0.42333 0.0706,-0.3175 0.0706,-0.81139 0,-1.05833 -0.10583,-0.21167 -0.17639,0.0353 -0.17639,0.635 z"
       id="path4828" />
    <path
       style="fill:#95c6c2;stroke:none;stroke-width:0.03527778;fill-opacity:1"
       inkscape:connector-curvature="0"
       d="m -120.0544,108.79747 c 0,0.88195 0.0706,1.23472 0.14111,0.77611 0.0706,-0.42333 0.0706,-1.12889 0,-1.5875 -0.0705,-0.42333 -0.14111,-0.0706 -0.14111,0.81139 z"
       id="path4830" />
    <path
       style="fill:#95c6c2;stroke:none;stroke-width:0.03527778;fill-opacity:1"
       inkscape:connector-curvature="0"
       d="m -47.558559,-2.0805948 c 0.21167,0.0706 0.635,0.0706 0.88194,0 0.21167,-0.10583 0.0353,-0.17639 -0.45861,-0.17639 -0.49389,0 -0.67028,0.0706 -0.42333,0.17639 z"
       id="path4832" />
    <path
       style="fill:#95c6c2;stroke:none;stroke-width:0.03527778;fill-opacity:1"
       inkscape:connector-curvature="0"
       d="m -4.343279,-1.3750348 c 0.3175,0.0706 0.88194,0.0706 1.23472,0 0.3175,-0.10583 0.0353,-0.17639 -0.635,-0.17639 -0.67028,0 -0.9525,0.0706 -0.59972,0.17639 z"
       id="path4834" />
    <path
       style="fill:#95c6c2;stroke:none;stroke-width:0.03527778;fill-opacity:1"
       inkscape:connector-curvature="0"
       d="m -121.81829,130.21108 c 1.30528,0.0706 3.38667,0.0706 4.58611,0 1.19945,-0.0706 0.14111,-0.10583 -2.39889,-0.10583 -2.50472,0 -3.4925,0.0353 -2.18722,0.10583 z"
       id="path4838" />
    <path
       style="fill:#95c6c2;stroke:none;stroke-width:0.03527778;fill-opacity:1"
       inkscape:connector-curvature="0"
       d="m -113.17523,130.56386 c 0.81139,0.0705 2.08139,0.0705 2.82222,0 0.70556,-0.0706 0.0353,-0.14111 -1.51694,-0.14111 -1.55223,0 -2.15195,0.0705 -1.30528,0.14111 z"
       id="path4840" />
    <path
       style="fill:#95c6c2;stroke:none;stroke-width:0.03527778;fill-opacity:1"
       inkscape:connector-curvature="0"
       d="m -103.65023,130.91664 c 0.42333,0.0705 1.05833,0.0705 1.41111,0 0.3175,-0.10583 -0.0353,-0.17639 -0.81139,-0.14111 -0.77611,0 -1.05833,0.0705 -0.59972,0.14111 z"
       id="path4842" />
    <path
       style="fill:#95c6c2;stroke:none;stroke-width:0.03527778;fill-opacity:1"
       inkscape:connector-curvature="0"
       d="m -74.546059,131.62219 c -3.95111,0.0706 -7.16139,0.24695 -7.16139,0.38806 0,0.28222 11.67694,0.14111 17.10972,-0.24694 l 3.88056,-0.28223 -3.35139,0.0353 c -1.83445,0 -6.56167,0.0705 -10.4775,0.10584 z"
       id="path4844" />
    <path
       style="fill:#95c6c2;stroke:none;stroke-width:0.03527778;fill-opacity:1"
       inkscape:connector-curvature="0"
       d="m -58.847449,131.62219 c 0.24694,0.10584 0.56444,0.0706 0.67028,-0.0353 0.14111,-0.10583 -0.0706,-0.21166 -0.45861,-0.17638 -0.38806,0 -0.49389,0.10583 -0.21167,0.21166 z"
       id="path4846" />
  </g>
</svg>
