<?xml version="1.0" encoding="UTF-8" standalone="no"?>
<!-- Created with Inkscape (http://www.inkscape.org/) -->

<svg
   xmlns:dc="http://purl.org/dc/elements/1.1/"
   xmlns:cc="http://creativecommons.org/ns#"
   xmlns:rdf="http://www.w3.org/1999/02/22-rdf-syntax-ns#"
   xmlns:svg="http://www.w3.org/2000/svg"
   xmlns="http://www.w3.org/2000/svg"
   xmlns:sodipodi="http://sodipodi.sourceforge.net/DTD/sodipodi-0.dtd"
   xmlns:inkscape="http://www.inkscape.org/namespaces/inkscape"
   width="271.11566mm"
   height="147.39207mm"
   viewBox="0 0 271.11566 147.39208"
   version="1.1"
   id="svg8"
   inkscape:version="0.92.4 5da689c313, 2019-01-14"
   sodipodi:docname="frame_4_orange.svg">
  <defs
     id="defs2">
    <inkscape:path-effect
       effect="skeletal"
       id="path-effect6813"
       is_visible="true"
       pattern="M 0,5 C 0,2.24 2.24,0 5,0 7.76,0 10,2.24 10,5 10,7.76 7.76,10 5,10 2.24,10 0,7.76 0,5 Z"
       copytype="single_stretched"
       prop_scale="0.26200112"
       scale_y_rel="false"
       spacing="0"
       normal_offset="0"
       tang_offset="0"
       prop_units="false"
       vertical_pattern="false"
       fuse_tolerance="0" />
    <inkscape:path-effect
       effect="skeletal"
       id="path-effect6790"
       is_visible="true"
       pattern="M 0,5 C 0,2.24 2.24,0 5,0 7.76,0 10,2.24 10,5 10,7.76 7.76,10 5,10 2.24,10 0,7.76 0,5 Z"
       copytype="single_stretched"
       prop_scale="0.26458333"
       scale_y_rel="false"
       spacing="0"
       normal_offset="0"
       tang_offset="0"
       prop_units="false"
       vertical_pattern="false"
       fuse_tolerance="0" />
    <inkscape:path-effect
       effect="skeletal"
       id="path-effect6778"
       is_visible="true"
       pattern="M 0,5 C 0,2.24 2.24,0 5,0 7.76,0 10,2.24 10,5 10,7.76 7.76,10 5,10 2.24,10 0,7.76 0,5 Z"
       copytype="single_stretched"
       prop_scale="0.26458332"
       scale_y_rel="false"
       spacing="0"
       normal_offset="0"
       tang_offset="0"
       prop_units="false"
       vertical_pattern="false"
       fuse_tolerance="0" />
    <inkscape:path-effect
       effect="skeletal"
       id="path-effect6774"
       is_visible="true"
       pattern="M 0,5 C 0,2.24 2.24,0 5,0 7.76,0 10,2.24 10,5 10,7.76 7.76,10 5,10 2.24,10 0,7.76 0,5 Z"
       copytype="single_stretched"
       prop_scale="0.26458333"
       scale_y_rel="false"
       spacing="0"
       normal_offset="0"
       tang_offset="0"
       prop_units="false"
       vertical_pattern="false"
       fuse_tolerance="0" />
    <inkscape:path-effect
       effect="skeletal"
       id="path-effect6762"
       is_visible="true"
       pattern="M 0,5 C 0,2.24 2.24,0 5,0 7.76,0 10,2.24 10,5 10,7.76 7.76,10 5,10 2.24,10 0,7.76 0,5 Z"
       copytype="single_stretched"
       prop_scale="0.26458333"
       scale_y_rel="false"
       spacing="0"
       normal_offset="0"
       tang_offset="0"
       prop_units="false"
       vertical_pattern="false"
       fuse_tolerance="0" />
    <inkscape:path-effect
       effect="skeletal"
       id="path-effect6758"
       is_visible="true"
       pattern="M 0,5 C 0,2.24 2.24,0 5,0 7.76,0 10,2.24 10,5 10,7.76 7.76,10 5,10 2.24,10 0,7.76 0,5 Z"
       copytype="single_stretched"
       prop_scale="0.26458333"
       scale_y_rel="false"
       spacing="0"
       normal_offset="0"
       tang_offset="0"
       prop_units="false"
       vertical_pattern="false"
       fuse_tolerance="0" />
  </defs>
  <sodipodi:namedview
     id="base"
     pagecolor="#ffffff"
     bordercolor="#666666"
     borderopacity="1.0"
     inkscape:pageopacity="0.0"
     inkscape:pageshadow="2"
     inkscape:zoom="0.7"
     inkscape:cx="704.16437"
     inkscape:cy="95.97382"
     inkscape:document-units="mm"
     inkscape:current-layer="layer1-3"
     showgrid="false"
     inkscape:window-width="1920"
     inkscape:window-height="1027"
     inkscape:window-x="0"
     inkscape:window-y="0"
     inkscape:window-maximized="1"
     fit-margin-top="0"
     fit-margin-left="0"
     fit-margin-right="0"
     fit-margin-bottom="0" />
  <metadata
     id="metadata5">
    <rdf:RDF>
      <cc:Work
         rdf:about="">
        <dc:format>image/svg+xml</dc:format>
        <dc:type
           rdf:resource="http://purl.org/dc/dcmitype/StillImage" />
        <dc:title></dc:title>
      </cc:Work>
    </rdf:RDF>
  </metadata>
  <g
     inkscape:label="Layer 1"
     inkscape:groupmode="layer"
     id="layer1"
     transform="translate(405.5408,168.05297)">
    <g
       transform="matrix(1.0305506,0,0,1,-422.75525,-126.53028)"
       id="layer1-3"
       inkscape:label="Layer 1">
      <path
         style="fill:#febb67;fill-opacity:1;stroke:none;stroke-width:0.26063204px;stroke-linecap:butt;stroke-linejoin:miter;stroke-opacity:1"
         d="m 186.21419,16.595681 c 0.15355,0.241187 -1.15549,0.974144 -3.87658,1.098796 -0.8881,0.06153 -2.53563,-0.05718 -3.4562,0.401854 0,1e-6 0,1e-6 0,1e-6 -1.55613,0.01923 -3.33347,-0.03115 -5.30275,-0.01799 -1.27512,0.0016 -2.62176,-0.04256 -4.02335,-0.01096 -1.75528,-0.113825 -3.67222,-0.05608 -5.75863,-0.124032 -2.13231,0.03057 -3.9285,-0.364953 -6.07212,-0.626701 -1.83638,0.02071 -3.66057,-0.22451 -5.44525,-0.200025 -1.49621,-0.157716 -3.26099,-0.004 -5.17946,-0.526528 -0.1886,-0.08741 -0.55332,-0.04646 -1.06409,-0.07727 -0.6759,-0.01034 -1.36319,0.01 -2.078,0.03566 0,0 0,0 0,0 -1.20951,0.04444 -2.47631,0.145852 -3.80997,0.157549 -8.74511,-0.227727 -18.47998,0.272162 -29.00348,-0.585566 0.26696,-0.22053 0.88617,-0.31893 1.68252,-0.04521 0.28592,2.918686 1.2121,6.033995 1.29841,9.487944 -0.007,2.537721 -0.43346,4.890795 -0.70809,7.251634 -0.68498,3.025425 -0.48296,6.126867 -1.16794,9.152293 -0.51351,1.438711 -0.98353,2.88943 -1.33414,4.333482 -0.19599,0.807247 -0.35375,1.608558 -0.46197,2.403552 2.03193,-1.170999 3.87901,-1.058389 4.79969,-1.965185 6.2891,-0.861732 12.36738,-1.429479 18.41732,-1.377945 0.0353,1.11e-4 11.11062,0.04303 11.14592,0.04314 2.0213,0.0098 4.04493,0.125732 5.95464,0.220437 1.93065,0.09638 3.72104,0.212255 5.54838,0.245518 6.5e-4,-5.6e-5 6.6e-4,-5.6e-5 6.6e-4,-5.6e-5 0.0176,-0.0016 0.0371,-0.0032 0.0547,-0.0047 0.0434,-0.0035 0.0866,-0.0067 0.12952,-0.0096 0.17732,-0.0107 0.35571,-0.01887 0.53517,-0.02401 0.35325,-0.02138 0.81431,-0.03005 1.3656,0.07216 1.75679,0.380102 3.6358,0.45647 5.53595,0.703231 1.45825,0.373675 3.15695,0.243263 4.93744,0.426742 0,0 0,10e-7 0,10e-7 2.92028,0.166364 5.4295,0.39546 8.02746,0.240183 0,0 0,-3e-6 0,-3e-6 0.69247,-0.225005 1.31798,-0.245292 1.81371,-0.251818 0.80475,-0.04243 1.61738,-0.05274 2.36437,-0.07327 0.76452,-0.02242 1.47509,-0.04259 2.15919,-0.126947 0.49165,0.05723 0.82477,0.279069 0.80905,0.336916 -0.60981,-1.109589 -0.64732,-2.275557 -0.52239,-3.252011 0.14705,-1.259154 0.40177,-2.372261 0.40624,-3.393589 0.11727,-1.664441 0.20434,-3.057696 0.33869,-4.581652 0.117,-1.367321 0.20122,-2.603719 0.53304,-3.887983 0.4638,-1.733205 -0.0525,-3.780032 0.51187,-5.504646 0.1994,-0.375273 0.23061,-0.939011 0.30236,-1.454637 0.10168,-0.850692 0.15724,-1.732099 0.19944,-2.426603 0.1666,-2.742238 0.19331,-4.224204 0.36071,-4.224693 0.0867,-2.53e-4 0.30517,1.471166 0.37084,4.238012 0.017,0.709067 0.027,1.590933 -0.0205,2.490991 -0.0127,0.47284 -0.0175,1.10324 -0.26591,1.735782 -0.41252,1.368655 0.23753,3.182556 -0.20377,5.438909 -0.25193,1.146236 -0.27309,2.293024 -0.34998,3.695544 -0.0782,1.521153 -0.1143,2.832705 -0.18007,4.519651 0.0194,1.282875 -0.20026,2.357375 -0.30941,3.533554 -0.10236,1.178372 -0.14829,2.401674 0.23586,3.351969 -0.74351,0.710973 -1.47357,1.009006 -1.97106,1.200517 -0.79161,0.114759 -1.5623,0.158365 -2.32955,0.196621 -0.76609,0.0394 -1.56521,0.06751 -2.31529,0.124431 -0.61692,0.0646 -1.1595,0.08208 -1.53919,0.234189 0,0 -1e-5,2e-6 -1e-5,2e-6 -2.86907,0.233209 -5.57529,0.07212 -8.57071,-0.02709 0,0 -1e-5,0 -1e-5,0 -1.52177,-0.117541 -3.27321,0.03393 -5.17706,-0.375066 -1.69014,-0.186341 -3.68878,-0.253436 -5.61595,-0.633117 -0.16317,-0.04508 -0.4401,-0.0157 -0.82101,-0.01171 -0.15256,0.0063 -0.30643,0.01543 -0.46164,0.02676 -0.062,0.004 -0.12371,0.0083 -0.18517,0.01283 -0.025,0.0018 -0.0519,0.0039 -0.0767,0.0059 0,0 -1e-5,0 -1e-5,0 -1.9296,-0.0098 -3.78478,-0.103821 -5.72959,-0.177346 -1.9235,-0.07335 -3.91629,-0.168233 -5.84987,-0.15845 0.0343,-1.59e-4 -11.19215,0.0433 -11.15788,0.04314 -5.7463,-0.05963 -11.55396,0.480545 -17.63182,1.294751 -2.46766,0.839131 -4.85052,0.31245 -6.35219,0.707509 -0.10822,-1.03692 -0.16599,-2.069522 -0.18467,-3.097263 -0.0334,-1.838748 0.0587,-3.645319 0.20398,-5.400065 0.66142,-2.735696 0.46495,-5.850797 1.16618,-9.022034 0.2805,-2.432091 0.70359,-4.635691 0.69699,-6.818863 0.0863,-2.693781 -0.70322,-5.505777 -0.88471,-8.513904 0.30452,-0.232773 0.19822,-0.52437 -0.1329,-1.114291 10.57311,0.02709 20.56949,-1.159647 29.60878,-1.387374 1.22976,0.0117 2.48294,-0.06723 3.75344,-0.08985 0,0 1e-5,0 1e-5,0 0.72546,-0.01326 1.44977,-0.02017 2.18571,0.0047 0.40489,-0.008 0.96621,-0.0052 1.63218,0.201053 1.33812,0.45338 2.97594,0.312326 4.6757,0.542549 1.82313,0.02254 3.62416,0.311974 5.44729,0.334513 2.31207,0.330672 4.03765,0.773971 5.99108,0.794593 2.00323,0.128029 3.94795,0.138655 5.7787,0.325563 1.30849,0.02045 2.8841,0.12679 3.99288,0.175622 1.90615,0.09464 3.60194,0.248459 5.09461,0.329957 0,0 0,-1e-6 0,-1e-6 1.27252,-0.483778 2.84441,-0.220543 3.628,-0.183687 2.6111,0.04423 3.82055,-0.491058 3.8868,-0.387001 z"
         id="path6811"
         inkscape:connector-curvature="0"
         inkscape:path-effect="#path-effect6813"
         inkscape:original-d="m 186.21419,16.595681 c -1.96996,1.254148 -5.90662,0.381691 -7.42379,1.03567 -1.492,-0.03047 -2.24906,-0.111959 -5.19868,-0.173976 -0.93406,-0.01964 -2.72968,-0.09744 -4.00812,-0.09329 -2.09573,-0.175753 -3.54372,-0.118177 -5.76866,-0.224797 -1.77241,0.0044 -3.84544,-0.419949 -6.0316,-0.710647 -1.74479,0 -3.62655,-0.267269 -5.44627,-0.267269 -2.13707,-0.259407 -3.50566,-0.108445 -4.92758,-0.534539 -0.96024,-0.329858 -5.89918,0 -7.2617,0 -9.87002,0 -19.4608,0.813828 -29.30613,0.400904 0.41073,0.253363 0.72493,0.346172 0.90771,0.534539 0.38679,4.904511 1.09156,7.219414 1.09156,9.000924 0,2.13695 -0.41591,4.560522 -0.70254,7.035248 -0.85177,3.809977 -0.59749,6.65692 -1.16706,9.087164 -0.58974,2.858483 -0.90771,6.199954 -0.90771,7.617181 1.6421,-0.727763 4.03735,-0.54355 5.57594,-1.336347 6.1854,-0.838231 12.00556,-1.393068 18.02457,-1.336348 h 11.1519 c 2.90684,0 8.98553,0.371548 11.54091,0.400904 0,0 1.27983,-0.110392 1.81542,0 1.13179,0.233273 3.73447,0.446316 5.57595,0.668174 1.21165,0.282062 3.27363,0.238317 5.05725,0.400904 2.39382,0.107462 5.65108,0.321837 8.29909,0.133635 1.45576,-0.512148 6.7041,-0.08766 7.65071,-0.935443 -0.99689,-2.066498 -0.007,-4.483622 -0.0213,-6.765562 0.14344,-2.619734 0.31461,-6.734523 0.70089,-8.342415 0.47594,-2.097881 -0.19166,-3.731965 0.35782,-5.471777 0.52804,-1.187115 0.39318,-6.861784 0.38902,-8.285355"
         sodipodi:nodetypes="ccscccccsccscccccssccccccccc"
         transform="matrix(3.4128754,0,0,4.157088,-356.94656,-101.57524)" />
    </g>
  </g>
</svg>
