<?xml version="1.0" encoding="UTF-8" standalone="no"?>
<!-- Created with Inkscape (http://www.inkscape.org/) -->

<svg
   xmlns:dc="http://purl.org/dc/elements/1.1/"
   xmlns:cc="http://creativecommons.org/ns#"
   xmlns:rdf="http://www.w3.org/1999/02/22-rdf-syntax-ns#"
   xmlns:svg="http://www.w3.org/2000/svg"
   xmlns="http://www.w3.org/2000/svg"
   xmlns:sodipodi="http://sodipodi.sourceforge.net/DTD/sodipodi-0.dtd"
   xmlns:inkscape="http://www.inkscape.org/namespaces/inkscape"
   width="617.65411mm"
   height="297.89709mm"
   viewBox="0 0 617.65412 297.8971"
   version="1.1"
   id="svg8"
   inkscape:version="0.92.4 5da689c313, 2019-01-14"
   sodipodi:docname="frame_7_orange.svg">
  <defs
     id="defs2">
    <inkscape:path-effect
       effect="sketch"
       id="path-effect5250"
       is_visible="true"
       nbiter_approxstrokes="5"
       strokelength="100"
       strokelength_rdm="0.3;1"
       strokeoverlap="0.3"
       strokeoverlap_rdm="0.3;1"
       ends_tolerance="0.1;1"
       parallel_offset="5;1"
       tremble_size="5;1"
       tremble_frequency="1"
       nbtangents="5"
       tgt_places_rdmness="1;1"
       tgtscale="10"
       tgtlength="100"
       tgtlength_rdm="0.3;1" />
    <inkscape:path-effect
       effect="sketch"
       id="path-effect4609"
       is_visible="true"
       nbiter_approxstrokes="5"
       strokelength="100"
       strokelength_rdm="0.3;1"
       strokeoverlap="0.3"
       strokeoverlap_rdm="0.3;1"
       ends_tolerance="0.1;1"
       parallel_offset="5;1"
       tremble_size="5;1"
       tremble_frequency="1"
       nbtangents="5"
       tgt_places_rdmness="1;1"
       tgtscale="10"
       tgtlength="100"
       tgtlength_rdm="0.3;1" />
  </defs>
  <sodipodi:namedview
     id="base"
     pagecolor="#ffffff"
     bordercolor="#666666"
     borderopacity="1.0"
     inkscape:pageopacity="0.0"
     inkscape:pageshadow="2"
     inkscape:zoom="0.35"
     inkscape:cx="933.49488"
     inkscape:cy="399.67585"
     inkscape:document-units="mm"
     inkscape:current-layer="layer1"
     showgrid="false"
     inkscape:window-width="1920"
     inkscape:window-height="1027"
     inkscape:window-x="0"
     inkscape:window-y="0"
     inkscape:window-maximized="1"
     fit-margin-top="0"
     fit-margin-left="0"
     fit-margin-right="0"
     fit-margin-bottom="0" />
  <metadata
     id="metadata5">
    <rdf:RDF>
      <cc:Work
         rdf:about="">
        <dc:format>image/svg+xml</dc:format>
        <dc:type
           rdf:resource="http://purl.org/dc/dcmitype/StillImage" />
        <dc:title></dc:title>
      </cc:Work>
    </rdf:RDF>
  </metadata>
  <g
     inkscape:label="Layer 1"
     inkscape:groupmode="layer"
     id="layer1"
     transform="translate(409.05122,-11.234096)">
    <path
       style="fill:none;stroke:#febb67;stroke-width:3.06500006;stroke-linecap:butt;stroke-linejoin:miter;stroke-miterlimit:4;stroke-dasharray:none;stroke-dashoffset:0;stroke-opacity:1"
       d="m -196.05744,31.661192 c 28.04556,1.004297 53.69036,2.275593 79.57469,2.496027 m -20.56462,-10.320572 c 23.54757,-0.07068 48.034971,-0.05508 73.111913,-0.24029 m -21.922811,6.116456 c 23.854019,-0.966747 49.357869,-2.527828 74.828915,-4.997498 M -22.102374,28.18087 C -14.016376,28.126845 -6.067583,27.968878 1.7953869,27.760568 26.430685,27.107917 49.885044,25.978074 74.599588,25.940632 m -35.250492,-7.90482 c 27.391922,-1.825301 58.23932,-2.835648 89.470444,-3.919658 m -22.07174,6.670215 c 24.85004,0.304305 52.0238,-1.477639 79.6648,-3.536088 m -24.79446,3.333571 c 10.88498,0.313601 22.14045,0.744573 33.64894,1.332471 -1.1639,12.845435 -1.64577,26.243436 -1.60148,40.283855 m 6.33255,-20.631642 c -1.2742,16.456856 -2.82526,33.13321 -4.7406,51.918691 -0.69793,6.845283 -1.4187,13.723753 -2.16401,20.755023 m -0.28652,-13.60493 c -0.69046,25.6971 -2.05926,49.14969 -3.02338,71.83528 -0.23316,5.48628 -0.71911,11.13374 -1.34474,16.84555 m 4.08787,-26.61953 c -0.0838,2.56166 -0.14799,5.10071 -0.19386,7.61771 -0.23189,12.72358 -1.21812,27.11089 -2.062,40.45553 -0.86258,13.64024 -1.63657,26.99318 -1.67132,39.03068 -0.007,2.38327 0.0155,4.71008 0.0723,6.967 M 185.7892,233.0443 c -0.34126,6.4518 -0.73978,12.61525 -1.02408,18.34016 -0.28274,5.69348 -0.45126,10.92876 -0.34715,15.60986 0.104,4.67581 0.47994,8.76054 1.27189,12.12237 0.79115,3.35841 1.99539,5.98138 3.73629,7.70869 0.86987,0.86308 1.87303,1.50143 3.02222,1.89268 1.1492,0.39126 2.44436,0.53539 3.89804,0.40974 -6.54013,-1.03878 -13.07504,-2.03261 -19.57241,-2.97414 m 13.55143,-2.3285 c 0.26968,0.005 0.54468,0.002 0.82505,-0.0104 -28.39085,-3.61683 -59.19196,-8.20514 -89.01132,-12.09767 m 23.10152,9.79511 c -26.919882,-2.32961 -54.543004,-1.87806 -80.688102,1.60769 m 24.776177,-6.42412 c -25.609393,0.0272 -50.315631,0.36251 -75.9462969,2.77627 m 18.5562489,-5.94433 c -26.264214,-1.07856 -53.60854,-0.47911 -81.420598,0.26256 m 19.414398,2.40223 c -21.92404,0.93005 -42.626149,1.78499 -62.814767,3.21479 -8.58758,0.60819 -17.05704,1.31887 -25.44921,2.18036 m 24.67688,-2.48242 c -31.88014,1.87135 -64.8895,0.76098 -97.05606,-1.78059 m 26.7762,-0.25904 c -32.69014,2.36821 -64.73859,5.06429 -96.13007,9.95101 m 26.47561,-7.91808 c -27.27429,1.56353 -53.43504,2.00971 -78.12363,1.61864 m 8.40803,8.49428 c -29.10448,0.45345 -58.26705,1.20844 -85.21091,0.31322 M -198.95533,25.416451 c 31.91798,1.768904 62.79394,1.592757 93.71033,-0.787218 m -23.36219,1.179822 c 31.702146,-1.388897 66.33864,-0.05277 100.566192,0.162953 m -31.854607,2.520098 c 19.637085,-0.952844 39.163329,-2.748074 58.6563049,-5.5465 C 10.816461,21.214872 22.84298,19.102789 34.861002,16.57421 M 1.9211137,25.321538 C 34.531017,23.527432 69.369975,22.319925 103.74477,21.600009 M 75.304482,13.032388 C 106.3997,13.423877 135.14468,14.021675 164.0979,18.6322 m -20.27879,1.867201 c 18.40553,0.127022 36.84434,0.95687 54.95937,2.62038 -0.72624,5.082355 -1.43486,10.301057 -2.13901,15.665831 m 4.84916,-12.369708 c -2.48259,21.950691 -4.59074,48.238014 -5.65167,74.290036 -0.16609,4.0785 -0.30715,8.16367 -0.42063,12.2434 m -1.54745,-22.218157 c -0.35878,3.593705 -0.68642,7.182735 -0.98749,10.769377 -1.80553,21.50932 -2.65511,43.07665 -3.49886,63.52181 m -0.40712,-15.21887 c -0.30443,10.77472 -0.38236,21.04259 -0.25209,30.82866 0.15855,11.91106 -0.55752,24.63346 -1.2337,36.44438 -0.23368,4.08173 -0.46315,8.05393 -0.66101,11.95472 m -3.62343,-27.84603 c -0.30102,2.48115 -0.60028,4.96571 -0.89578,7.47256 -1.538,13.04712 -2.90787,26.1802 -3.43847,37.98546 -0.26413,5.87665 -0.31768,11.3963 -0.0714,16.33194 0.24642,4.93775 0.79336,9.30725 1.73887,12.90635 0.94653,3.603 2.2921,6.43841 4.15711,8.35448 0.93319,0.95874 1.99688,1.68853 3.21061,2.17699 1.21345,0.48836 2.57732,0.73563 4.10961,0.72912 -2.95535,-0.24557 -5.90799,-0.47525 -8.85871,-0.69186 m -2.27661,-4.64459 c 0.16959,1.35193 0.38554,2.62094 0.65112,3.80185 0.79344,3.52804 2.03075,6.27475 3.80594,8.09971 0.88798,0.91288 1.9117,1.59649 3.08475,2.03289 1.173,0.43639 2.49672,0.62614 3.98596,0.5496 -20.50999,-2.64426 -39.8904,-5.31337 -59.23348,-7.12265 m 29.66672,-6.50821 c -27.44817,-2.8447 -55.2122,-4.90615 -82.839414,-5.92092 m 17.285414,4.12286 c -30.074104,-1.98268 -62.433461,-1.77663 -95.4170125,0.19324 m 25.8653585,-7.42893 c -31.98913,-1.02204 -62.843383,-0.1955 -93.743285,1.2582 m 31.323477,-6.09427 c -22.933918,0.4845 -47.354075,2.02404 -71.702278,4.77239 -5.74875,0.6489 -11.49262,1.36508 -17.21163,2.15053 m 13.53241,10.19014 c -2.24118,0.11562 -4.47383,0.22812 -6.69807,0.33789 -28.7753,1.42008 -56.16568,2.38867 -82.93144,3.76799 m 24.58867,-16.97849 c -24.86229,0.0191 -48.25955,1.80756 -71.55314,3.51042 m 18.60883,10.22012 c -31.9662,1.32084 -68.45687,2.43073 -106.86728,2.07307 m 41.9724,4.06981 c -30.82251,1.87747 -63.34006,2.57187 -94.12945,3.20673 m 18.00458,-16.77001 c -12.49326,0.38512 -24.75586,0.83549 -36.79424,1.38612 M -203.11537,31.966592 c 28.39928,2.807828 60.66698,2.308532 93.83903,0.401471 m -29.12667,-5.416975 c 30.64797,-0.812175 64.391886,0.908652 98.730357,2.538176 m -24.246079,3.32806 c 23.25246,-0.667376 46.852839,-1.611491 70.3804225,-2.609081 0.1188671,-0.005 4.9418295,-0.210333 5.0606965,-0.215373 M -7.3894682,26.274526 C -3.5356865,26.252496 0.34879911,26.19037 4.2559617,26.096423 25.171931,25.593501 46.94897,24.169365 68.022875,23.097796 M 46.846881,22.833341 c 23.116774,-1.240108 47.865876,-1.769783 72.366239,-1.70798 m -17.88726,5.442555 c 29.67631,0.408547 60.41527,-1.02608 91.79605,-1.322362 m -25.91669,-2.116319 c 10.70349,0.306244 21.39498,0.817286 32.07842,1.565062 -2.36895,20.602859 -4.03881,43.559432 -4.91937,67.502923 M 190.6482,59.479068 c -0.6862,11.950579 -1.21837,24.555441 -1.44092,37.317893 -0.31173,17.876129 -0.0165,35.963459 1.26897,53.765989 m 0.9771,-26.09276 c -0.68364,16.95314 -1.85298,33.46335 -3.461,49.70122 -1.23705,12.49175 -4.04517,25.68044 -7.54033,38.78924 -0.90244,3.38467 -1.84217,6.73389 -2.80304,10.04484 m 11.29934,-26.91325 c -0.19002,6.30819 -0.69059,12.64453 -1.37329,18.93954 -1.41023,13.00345 -3.51117,25.13186 -5.03159,35.99072 -0.75093,5.3632 -1.33677,10.27095 -1.59949,14.6353 -0.26252,4.36102 -0.19915,8.13802 0.33147,11.22679 0.51121,2.97582 1.45635,5.29819 2.92599,6.81168 m -0.83249,-28.1358 c -0.078,1.84622 -0.11533,3.63248 -0.1066,5.34706 0.0233,4.56525 0.37266,8.62553 1.15155,11.97628 0.77938,3.35284 1.98836,5.99565 3.73501,7.74808 0.87327,0.87615 1.88032,1.52925 3.03476,1.93873 1.15448,0.4095 2.45551,0.57509 3.91708,0.47757 -19.76152,-2.77917 -39.52401,-4.57334 -59.42328,-6.177 m 34.06573,7.18147 c -27.82542,-2.68694 -56.22791,-6.74824 -83.488295,-10.77275 m 12.687429,-0.72898 c -29.447931,-3.24388 -56.671215,-1.70145 -83.923742,1.55368 m 13.484761,7.80361 c -26.2278653,-0.41776 -51.47237,-0.50592 -75.825535,0.10815 m 21.867453,-8.33618 c -30.054198,-0.1466 -61.142316,0.35392 -92.446021,0.6016 0.17084,-0.001 -7.88423,0.0568 -7.71339,0.0555 m 34.016741,4.68399 c -7.38269,0.36217 -14.605411,0.74642 -21.713361,1.16853 -20.05213,1.19081 -39.15125,2.68079 -58.22996,4.81336 m 15.73408,-6.21702 c -27.95792,-0.0405 -53.52707,2.83755 -77.91541,5.8773 m 26.02825,-6.20341 c -26.26372,0.81478 -54.46528,3.47802 -84.37995,6.84348 m 9.61348,-0.61588 c -28.8368,1.66999 -57.63682,1.7987 -83.89515,0.84913 m 28.1448,-3.43795 c -23.45657,0.16722 -46.26191,1.82 -69.69657,4.14014 M -200.51395,25.658246 c 32.45211,2.218817 63.34634,1.693222 94.67373,-0.773782 m -23.99848,2.165043 c 24.99153,-0.838448 51.37605,-0.672186 78.052969,-0.924967 m -21.045205,-6.904964 c 19.73121,-0.62352 50.429649,-1.678957 70.1608582,-2.302477 -0.021024,6.75e-4 2.89425805,-0.09259 2.87323442,-0.09192 M -13.028573,27.377393 c 4.2084713,-0.09406 8.4807709,-0.202921 12.80464535,-0.319597 C 25.649313,26.35963 53.123787,25.392396 80.524689,25.592454 M 52.074248,20.909538 c 24.12525,-0.825109 49.779912,-0.808286 76.553132,0.566092 m -11.92296,3.69179 c 25.56038,-1.394703 50.96221,-0.575217 75.45494,1.080067 m -16.528,-6.224499 c 10.79979,-0.130585 21.1696,0.223772 31.20022,0.959926 -2.11035,13.482677 -4.16504,26.070025 -6.70666,41.32309 m -5.26384,-9.618871 c -1.0309,16.467903 -1.96608,33.519357 -2.38685,49.791037 -0.24058,9.30387 -0.32008,18.52891 -0.16548,27.71158 m -3.23584,-26.17474 c -0.70881,23.21885 -1.58993,46.40474 -2.00044,68.48168 -0.053,2.85242 -0.16286,5.75865 -0.31716,8.70558 m 5.17296,-14.35974 c -0.14472,3.08308 -0.27638,6.13979 -0.3972,9.16126 -0.50162,12.54513 -2.08633,25.93853 -4.00177,38.90896 -1.9156,12.97155 -4.18701,25.52588 -5.87346,36.47081 -0.59324,3.85015 -1.11267,7.51609 -1.50207,10.91457 m 8.26082,-34.9208 c -0.88909,5.85472 -1.53757,11.51238 -1.91066,16.83669 -0.39165,5.58926 -0.47933,10.80748 -0.21895,15.45612 0.26032,4.64747 0.8696,8.75003 1.88598,12.10797 1.01658,3.35863 2.4474,6.00046 4.38815,7.73125 0.97249,0.86727 2.07707,1.51021 3.33492,1.90604 1.25819,0.39594 2.67101,0.54514 4.26344,0.4252 -6.75066,-1.15409 -13.40099,-2.2541 -19.98849,-3.32515 m 21.46473,13.01135 c -24.25546,-4.24245 -48.32858,-7.22093 -71.62776,-10.12316 m 6.23229,1.80227 c -27.99114,-1.37085 -56.001625,-4.13696 -85.210235,-5.84784 m 29.502657,-2.35086 c -29.468579,-2.8928 -62.895964,-1.25592 -97.383436,1.3752 m 27.05601,-2.12862 c -32.669504,-1.18689 -62.071864,-1.783 -92.206557,-4.13922 m 22.164588,3.20534 c -18.142369,0.7739 -37.20444,1.25778 -56.339337,1.78858 -5.11278,0.14183 -10.2369,0.28713 -15.36782,0.44246 m 10.48036,4.56194 c -1.4e-4,1e-5 -0.25601,0.0143 -0.25614,0.0143 -23.49058,1.30794 -45.9476,2.24429 -67.16337,3.33693 m 16.56051,-6.89423 c -25.35687,1.91429 -48.27408,2.70136 -70.27686,3.41145 m 21.09386,1.28094 c -27.29414,1.37521 -55.30233,1.84762 -84.45764,1.27775 m 10.56314,0.56899 c -33.04362,-0.0759 -64.24789,4.43642 -93.10925,8.52159 m 30.34133,-3.53949 c -16.32849,0.086 -32.12625,0.69015 -47.65222,1.55598 M -190.36238,21.856697 c 24.53538,0.668995 46.77294,2.486882 68.24454,4.387734 m -19.1885,3.419935 c 23.10526,1.221919 47.355889,-0.508282 71.133398,-3.537801 m -12.88033,2.884731 c 26.91246,-0.767864 53.106755,-1.718637 78.6416166,-2.778514 M -27.449945,21.602664 C -25.219517,21.472451 -7.2904037,20.445713 -5.0599758,20.3155 13.327156,19.267506 31.704921,18.224056 50.844487,17.017604 M 30.174439,13.225471 C 53.613445,12.905428 78.285768,12.41989 103.65822,13.142463 M 89.012764,14.929525 C 113.85243,13.573346 139.95454,13.77172 166.71579,14.672711 m -17.39837,7.529787 c 15.99254,0.363404 32.92052,0.909952 50.20571,1.879375 -0.62128,7.393062 -1.06456,14.988512 -1.39165,22.877754 m 0.18303,-21.543738 c -2.39188,22.720872 -4.9058,43.956943 -8.31953,68.795156 -0.97561,7.098505 -1.9854,14.204395 -3.03766,21.422945 m 10.84059,-19.949609 c -0.058,0.910607 -0.11441,1.821756 -0.16928,2.733369 -1.34686,22.37911 -1.73636,44.72832 -1.37451,65.78393 m -12.54295,-11.92477 c -0.22255,8.61239 -0.25069,17.11442 -0.0984,25.45932 0.22221,12.17943 -0.32827,25.9538 -0.73876,38.76391 -0.239,7.45825 -0.43737,14.68502 -0.46691,21.65538 m -1.30806,-31.41113 c 2.1e-4,-0.002 -0.0906,0.65157 -0.0904,0.65001 -1.92208,13.86011 -3.48634,27.19211 -4.1523,39.07388 -0.33141,5.91271 -0.43773,11.45068 -0.23818,16.40106 0.19966,4.9529 0.70634,9.34798 1.61487,12.97732 0.91012,3.6357 2.22284,6.50749 4.05838,8.46696 0.5081,0.54241 1.05623,1.01514 1.64761,1.41652 m -4.79672,-10.52309 c 0.12305,2.65004 0.40475,5.04353 0.85805,7.1495 0.74926,3.48091 1.96979,6.18904 3.73453,7.9749 0.88309,0.89367 1.9046,1.55877 3.07683,1.97495 1.17235,0.41622 2.49733,0.5842 3.99076,0.4818 -22.02741,-3.24223 -42.55411,-6.78785 -62.7417,-9.58109 m 34.3284,-5.12577 c -24.09838,-3.84466 -49.41311,-4.82739 -74.915347,-4.96678 m 12.995627,6.96607 C 69.220097,278.92109 36.137335,275.90201 5.0927496,273.61502 m 28.9436274,-2.12953 c -26.2850841,-0.7834 -52.373284,1.20516 -77.50903,5.35511 m 11.212749,1.66228 c -27.818919,1.02491 -54.277631,1.04031 -80.371846,1.4201 -5.83579,0.0849 -11.67347,0.18803 -17.53795,0.32422 m 20.9182,-1.80765 c -3.87752,0.0665 -7.72379,0.14388 -11.54249,0.22933 -17.80906,0.3985 -43.84119,1.28548 -61.65026,1.68398 m 22.74731,7.49378 c -32.03142,2.92011 -65.9232,1.69444 -98.06308,0.11963 m 32.80288,-9.00551 c -26.48564,0.21117 -53.75461,3.11225 -79.79512,6.0797 m 20.55759,-3.09679 c -27.65459,1.85604 -57.65864,2.57845 -86.49371,3.30539 m 18.61624,4.67738 c -18.51133,0.0161 -37.43856,-0.37132 -56.87851,-1.64981 m 524.91076,-9.98449 -160.800721,-4.34346 m -220.589589,11.18025 -143.44648,4.45451 m 267.04744,-11.19037 -148.95668,7.40484 M -89.05428,26.936024 100.92284,18.684244 m 80.5882,212.562356 4.42066,77.79765"
       id="path4701"
       inkscape:connector-curvature="0"
       inkscape:path-effect="#path-effect5250"
       inkscape:original-d="m -205.61017,23.285094 c 136.887607,10.723122 274.198788,-10.454837 405.19048,-2.267857 -5.69269,45.799784 -8.63465,102.783483 -9.13383,153.480053 -0.49225,49.99242 -18.26389,116.54972 5.35406,114.88304 -210.567987,-30.86829 -410.16555,-0.75595 -608.54166,-0.75595"
       sodipodi:nodetypes="ccscc" />
  </g>
</svg>
