<?xml version="1.0" encoding="UTF-8" standalone="no"?>
<!-- Created with Inkscape (http://www.inkscape.org/) -->

<svg
   xmlns:dc="http://purl.org/dc/elements/1.1/"
   xmlns:cc="http://creativecommons.org/ns#"
   xmlns:rdf="http://www.w3.org/1999/02/22-rdf-syntax-ns#"
   xmlns:svg="http://www.w3.org/2000/svg"
   xmlns="http://www.w3.org/2000/svg"
   xmlns:sodipodi="http://sodipodi.sourceforge.net/DTD/sodipodi-0.dtd"
   xmlns:inkscape="http://www.inkscape.org/namespaces/inkscape"
   width="169.22667mm"
   height="129.36359mm"
   viewBox="0 0 169.22667 129.36359"
   version="1.1"
   id="svg8"
   inkscape:version="0.92.4 5da689c313, 2019-01-14"
   sodipodi:docname="frame_2_orange.svg">
  <defs
     id="defs2" />
  <sodipodi:namedview
     id="base"
     pagecolor="#ffffff"
     bordercolor="#666666"
     borderopacity="1.0"
     inkscape:pageopacity="0.0"
     inkscape:pageshadow="2"
     inkscape:zoom="1.4"
     inkscape:cx="346.49521"
     inkscape:cy="231.54061"
     inkscape:document-units="mm"
     inkscape:current-layer="layer1"
     showgrid="false"
     inkscape:window-width="1920"
     inkscape:window-height="1027"
     inkscape:window-x="0"
     inkscape:window-y="0"
     inkscape:window-maximized="1"
     fit-margin-top="0"
     fit-margin-left="0"
     fit-margin-right="0"
     fit-margin-bottom="0" />
  <metadata
     id="metadata5">
    <rdf:RDF>
      <cc:Work
         rdf:about="">
        <dc:format>image/svg+xml</dc:format>
        <dc:type
           rdf:resource="http://purl.org/dc/dcmitype/StillImage" />
        <dc:title></dc:title>
      </cc:Work>
    </rdf:RDF>
  </metadata>
  <g
     inkscape:label="Layer 1"
     inkscape:groupmode="layer"
     id="layer1"
     transform="translate(236.75569,146.42718)">
    <path
       style="fill:#febb67;stroke:none;stroke-width:0.03527778;fill-opacity:1"
       inkscape:connector-curvature="0"
       d="m -138.00635,-146.18026 -6.35,0.21167 6.52639,0.0353 c 3.59834,0 8.11389,-0.10584 10.05417,-0.24695 l 3.52778,-0.24694 -3.70417,0.0353 c -2.04611,0 -6.56167,0.10584 -10.05417,0.21167 z"
       id="path5425" />
    <path
       style="fill:#febb67;stroke:none;stroke-width:0.03527778;fill-opacity:1"
       inkscape:connector-curvature="0"
       d="m -92.039396,-144.5222 c 0.98778,0.0705 2.68111,0.0705 3.70417,0 0.98778,-0.0706 0.17639,-0.10584 -1.86972,-0.10584 -2.04611,0 -2.8575,0.0353 -1.83445,0.10584 z"
       id="path5439" />
    <path
       style="fill:#febb67;stroke:none;stroke-width:0.03527778;fill-opacity:1"
       inkscape:connector-curvature="0"
       d="m -76.623006,-144.02831 c 4.48028,0.17638 8.29028,0.38805 8.46667,0.45861 0.21167,0.0705 0.28222,2.04611 0.14111,5.53861 -0.52917,13.05277 -0.635,18.27388 -0.3175,14.60499 0.45861,-4.7625 0.98778,-20.03777 0.74083,-20.35527 -0.10583,-0.14111 -4.02166,-0.3175 -8.67833,-0.42333 l -8.46667,-0.17639 z"
       id="path5441" />
    <path
       style="fill:#febb67;stroke:none;stroke-width:0.03527778;fill-opacity:1"
       inkscape:connector-curvature="0"
       d="m -188.27718,-142.96998 c -3.38667,0.14111 -9.98361,0.45861 -14.64028,0.67028 -4.65667,0.21166 -13.40556,0.49389 -19.43806,0.59972 l -11.00666,0.21167 -0.24695,2.15194 c -0.14111,1.16417 -0.35278,5.25638 -0.52917,9.03111 -0.3175,8.14916 -1.27,27.02278 -1.76389,35.454167 -0.21166,3.280833 -0.35277,8.748889 -0.35277,12.065 0,3.35139 -0.14111,6.103056 -0.28223,6.103056 -0.14111,0 -0.24694,0.740834 -0.21166,1.658056 0.0353,0.9525 0.17639,8.925278 0.3175,17.744723 0.10583,8.819445 0.35278,20.425835 0.52916,25.75278 0.17639,5.326945 0.31751,10.759723 0.35278,12.065001 v 2.398889 h 4.51556 c 6.45583,-0.03528 17.92111,-0.599723 28.29278,-1.446389 9.31333,-0.740834 12.13555,-1.199445 5.43278,-0.846667 -12.48834,0.635 -18.97945,0.881944 -27.34028,1.093611 l -9.38389,0.246945 -0.21167,-5.432779 c -0.0705,-2.998611 -0.17639,-9.242778 -0.17639,-13.899445 0,-12.488334 0.56445,-8.184445 0.84667,6.385278 l 0.24694,12.065001 4.26861,-0.141111 c 2.36362,-0.07056 11.57112,-0.282222 20.49639,-0.493889 8.92528,-0.176389 26.63473,-0.599722 39.33473,-0.9525 26.84639,-0.740833 28.18695,-0.740833 33.3375,-0.176389 5.75028,0.599722 15.31056,1.058333 33.69028,1.658056 9.031114,0.282222 18.168064,0.599722 20.284724,0.705555 2.15195,0.07056 3.56306,0.07056 3.175,-0.07055 -0.38805,-0.105834 -1.16416,-0.564445 -1.76388,-0.987778 -2.99862,-2.257778 -9.41917,-4.550834 -17.99167,-6.420556 -2.998614,-0.635 -4.268614,-1.058334 -3.810004,-1.234723 2.08139,-0.846666 19.614444,-3.069166 20.178894,-2.575278 0.0705,0.07056 -0.42334,0.282223 -1.05834,0.493889 -0.9525,0.282223 -0.70555,0.3175 1.09362,0.105834 1.27,-0.105834 2.92805,-0.246945 3.70416,-0.246945 1.23472,0 1.41111,0.105834 1.30528,0.740834 -0.14111,1.058333 0.70556,1.658055 1.72861,1.234722 1.23472,-0.458611 2.8575,-2.645834 4.445,-6.0325 2.11667,-4.445001 2.75167,-6.350001 2.29306,-6.667501 -0.24695,-0.141111 -0.52917,-3.421945 -0.81139,-8.960556 -0.42333,-8.149167 -0.42333,-8.819445 0.17639,-10.4775 0.42333,-1.199445 0.52916,-1.905001 0.28222,-2.222501 -0.35278,-0.458611 -0.98778,-11.641667 -1.30528,-23.706668 -0.45861,-16.333612 -0.91722,-28.821942 -1.27,-33.690282 -0.21166,-2.82222 -0.35278,-6.24417 -0.3175,-7.58472 0.0353,-1.37583 -0.0706,-4.69195 -0.21166,-7.44361 l -0.24695,-4.97416 -7.3025,-0.21167 c -5.22111,-0.17639 -7.65528,-0.10583 -8.50194,0.17639 -2.50473,0.88195 -51.540844,0.28222 -52.493344,-0.635 -0.35278,-0.35278 0.42333,-0.49389 4.02167,-0.70555 4.05694,-0.24695 5.67972,-0.635 4.05694,-0.98778 -2.25778,-0.45861 -4.65667,-0.59972 -14.39333,-0.91722 -6.45584,-0.21167 -10.51278,-0.21167 -10.65389,0 -0.10584,0.17639 -1.16417,0.3175 -2.29306,0.28222 -1.16417,0 -4.33917,0.0705 -7.05556,0.17639 -14.07583,0.59972 -36.30083,0.98778 -41.80416,0.74083 -3.38667,-0.14111 -5.92667,-0.3175 -5.64445,-0.38806 1.02306,-0.17639 33.72556,-1.16417 40.92223,-1.19945 3.98638,-0.0353 8.89,-0.17639 10.93611,-0.31749 5.18583,-0.3175 -17.78,-0.3175 -25.75278,0.0353 z m 111.724734,11.32416 c -0.0706,0.635 -0.14111,0.14111 -0.14111,-1.12889 0,-1.27 0.0706,-1.76389 0.14111,-1.16416 0.0705,0.635 0.0705,1.69333 0,2.29305 z m -73.730564,-2.68111 c -0.10584,0.10583 -0.42334,0.14111 -0.67028,0.0353 -0.28222,-0.10583 -0.17639,-0.21167 0.21167,-0.21167 0.38805,-0.0353 0.59972,0.0706 0.45861,0.17639 z m 6.94972,0.28222 c 0.24694,0.3175 1.55222,0.56445 3.91583,0.70556 3.63361,0.24694 4.23334,0.0705 1.55223,-0.45861 l -1.55223,-0.3175 1.94028,-0.0353 c 1.09361,-0.0353 2.11667,0.10583 2.29306,0.28222 0.42333,0.35278 3.81,1.44639 4.58611,1.44639 0.3175,0 0.45861,-0.17639 0.35278,-0.35278 -0.14112,-0.21167 0.45861,-0.38805 1.48166,-0.38805 1.62278,-0.0706 1.62278,-0.0706 0.45861,-0.28223 -1.12888,-0.24694 -1.05833,-0.28222 0.81139,-0.42333 1.12889,-0.0706 2.46945,-0.0353 2.99861,0.10583 1.83445,0.52917 7.12612,0.74084 7.12612,0.3175 0,-0.21166 0.59972,-0.38805 1.37583,-0.38805 0.77611,0 1.51694,-0.17639 1.65805,-0.38806 0.17639,-0.28222 0.9525,-0.3175 2.57528,-0.14111 3.66889,0.38806 21.201954,0.52917 21.201954,0.14111 0,-0.17639 2.50472,-0.3175 5.96194,-0.3175 h 5.96195 l 0.17639,8.89 c 0.10583,4.90361 0.35277,18.69723 0.56444,30.621116 0.21167,11.923889 0.52917,28.504446 0.74083,36.830002 0.17639,8.325556 0.35278,17.674168 0.35278,20.778612 v 5.609167 l -1.12889,-0.211666 c -3.98639,-0.846667 -10.05416,-0.846667 -25.329444,-0.07056 -2.46945,0.141111 -2.92806,0.105833 -1.76389,-0.141111 0.88194,-0.176389 2.2225,-0.3175 2.99861,-0.388056 l 1.41111,-0.07056 -1.23472,-0.211667 -1.23472,-0.246944 1.23472,-0.211667 c 4.233334,-0.776111 4.056944,-0.917222 -1.30528,-0.9525 -3.35139,-0.03528 -5.3975,0.105833 -5.46805,0.3175 -0.0706,0.211667 -2.18723,0.529167 -4.69195,0.705556 -5.04472,0.352777 -14.99306,0.388055 -12.7,0.03528 1.55222,-0.246945 -8.50195,-0.811389 -17.28611,-0.9525 -2.89278,-0.03528 -5.715,-0.246945 -6.20889,-0.423334 -1.51695,-0.599722 -19.79084,-0.917222 -23.07167,-0.388055 -2.82222,0.423333 -13.05278,0.811389 -10.75972,0.352777 0.67028,-0.105833 -7.44361,-0.211666 -18.06223,-0.211666 h -19.33222 l -0.0353,-1.058334 -0.0353,-1.058333 -0.24694,1.058333 c -0.10583,0.599723 -0.45861,1.058334 -0.74083,1.058334 -0.45861,0 -0.52917,-0.599723 -0.42334,-3.704167 0.10584,-3.421945 0.52917,-11.500556 0.9525,-17.462501 0.14111,-2.010834 0.0353,-1.728612 -0.45861,1.481666 -0.35278,2.187223 -0.74083,4.056945 -0.84666,4.162779 -0.38806,0.388055 -0.67028,-4.586112 -0.49389,-9.101668 0.10583,-2.575278 0.0705,-4.092222 -0.0706,-3.421944 -0.14111,0.670277 -0.38805,-7.020279 -0.52917,-17.109724 -0.17638,-10.089445 -0.42333,-24.306395 -0.56444,-31.573615 -0.14111,-7.26722 -0.17639,-14.85195 -0.10583,-16.86278 l 0.17639,-3.63361 1.44638,0.24694 c 0.77612,0.17639 1.83445,0.24695 2.32834,0.21167 0.49389,-0.0353 2.2225,-0.14111 3.88055,-0.24694 5.96195,-0.3175 8.53723,-0.635 8.04334,-0.91723 -0.24695,-0.17639 -1.02306,-0.3175 -1.69334,-0.35277 l -1.23472,-0.0353 1.41111,-0.35278 c 2.43417,-0.635 19.57917,-0.52917 19.57917,0.10583 0,0.17639 0.52917,0.3175 1.19945,0.3175 0.67027,0 1.34055,0.14111 1.44638,0.35278 0.28223,0.45861 2.18723,0.45861 2.46945,0 0.28222,-0.45861 28.61028,-0.3175 29.5275,0.14111 0.42333,0.17639 0.77611,0.0353 1.23472,-0.45861 0.52917,-0.67028 1.02306,-0.74083 3.98639,-0.74083 1.86972,0 3.52778,0.14111 3.73945,0.35277 0.21166,0.21167 0.74083,0.21167 1.37583,0.0353 l 1.05833,-0.3175 -0.9525,-0.0353 c -0.56444,-0.0353 -0.98777,-0.21166 -0.98777,-0.38805 0,-0.52917 2.50472,-0.42334 2.96333,0.14111 z m 67.133624,40.005006 c 0,18.520834 -0.10584,34.148891 -0.24695,34.748613 -0.17639,0.635 -0.28222,-14.816668 -0.28222,-34.32528 -0.0353,-19.508609 0.10583,-35.136669 0.24694,-34.748609 0.17639,0.38805 0.3175,15.83972 0.28223,34.325276 z m 0.14111,52.387503 c -0.28223,0.282222 -0.38806,-0.917223 -0.35278,-4.021667 l 0.0706,-4.374445 0.3175,4.021667 c 0.21167,2.751667 0.21167,4.1275 -0.0353,4.374445 z m -1.19945,11.394723 c -0.10583,0.105833 -0.42333,0.141111 -0.67028,0.03528 -0.28222,-0.105834 -0.17639,-0.211667 0.21167,-0.211667 0.38806,-0.03528 0.59972,0.07055 0.45861,0.176389 z"
       id="path5443" />
    <path
       style="fill:#febb67;stroke:none;stroke-width:0.03527778;fill-opacity:1"
       inkscape:connector-curvature="0"
       d="m -116.13412,-133.12749 -1.05834,0.28223 h 1.23473 c 0.67027,0 1.72861,-0.14111 2.29305,-0.28223 l 1.05834,-0.28222 h -1.23473 c -0.67027,0 -1.69333,0.14111 -2.29305,0.28222 z"
       id="path5445" />
    <path
       style="fill:#febb67;stroke:none;stroke-width:0.03527778;fill-opacity:1"
       inkscape:connector-curvature="0"
       d="m -123.50718,-132.77471 c 0.21167,0.21167 1.09361,0.49389 1.94028,0.56445 1.905,0.21166 1.16417,-0.35278 -0.91722,-0.70556 -1.05834,-0.21167 -1.30528,-0.17639 -1.02306,0.14111 z"
       id="path5447" />
    <path
       style="fill:#febb67;stroke:none;stroke-width:0.03527778;fill-opacity:1"
       inkscape:connector-curvature="0"
       d="m -149.78912,-132.6336 c 0.42333,0.35278 2.11666,0.56445 1.905,0.21167 -0.10584,-0.17639 -0.635,-0.35278 -1.12889,-0.35278 -0.52917,0 -0.84667,0.0706 -0.77611,0.14111 z"
       id="path5449" />
  </g>
</svg>
