<?xml version="1.0" encoding="UTF-8" standalone="no"?>
<!-- Created with Inkscape (http://www.inkscape.org/) -->

<svg
   xmlns:dc="http://purl.org/dc/elements/1.1/"
   xmlns:cc="http://creativecommons.org/ns#"
   xmlns:rdf="http://www.w3.org/1999/02/22-rdf-syntax-ns#"
   xmlns:svg="http://www.w3.org/2000/svg"
   xmlns="http://www.w3.org/2000/svg"
   xmlns:sodipodi="http://sodipodi.sourceforge.net/DTD/sodipodi-0.dtd"
   xmlns:inkscape="http://www.inkscape.org/namespaces/inkscape"
   width="28.455904mm"
   height="40.32mm"
   viewBox="0 0 28.455904 40.32"
   version="1.1"
   id="svg8"
   inkscape:version="0.92.4 5da689c313, 2019-01-14"
   sodipodi:docname="frame_4_blue.svg">
  <defs
     id="defs2">
    <inkscape:path-effect
       effect="skeletal"
       id="path-effect6813"
       is_visible="true"
       pattern="M 0,5 C 0,2.24 2.24,0 5,0 7.76,0 10,2.24 10,5 10,7.76 7.76,10 5,10 2.24,10 0,7.76 0,5 Z"
       copytype="single_stretched"
       prop_scale="0.26458333"
       scale_y_rel="false"
       spacing="0"
       normal_offset="0"
       tang_offset="0"
       prop_units="false"
       vertical_pattern="false"
       fuse_tolerance="0" />
    <inkscape:path-effect
       effect="skeletal"
       id="path-effect6790"
       is_visible="true"
       pattern="M 0,5 C 0,2.24 2.24,0 5,0 7.76,0 10,2.24 10,5 10,7.76 7.76,10 5,10 2.24,10 0,7.76 0,5 Z"
       copytype="single_stretched"
       prop_scale="0.26458333"
       scale_y_rel="false"
       spacing="0"
       normal_offset="0"
       tang_offset="0"
       prop_units="false"
       vertical_pattern="false"
       fuse_tolerance="0" />
    <inkscape:path-effect
       effect="skeletal"
       id="path-effect6778"
       is_visible="true"
       pattern="M 0,5 C 0,2.24 2.24,0 5,0 7.76,0 10,2.24 10,5 10,7.76 7.76,10 5,10 2.24,10 0,7.76 0,5 Z"
       copytype="single_stretched"
       prop_scale="0.26458332"
       scale_y_rel="false"
       spacing="0"
       normal_offset="0"
       tang_offset="0"
       prop_units="false"
       vertical_pattern="false"
       fuse_tolerance="0" />
    <inkscape:path-effect
       effect="skeletal"
       id="path-effect6774"
       is_visible="true"
       pattern="M 0,5 C 0,2.24 2.24,0 5,0 7.76,0 10,2.24 10,5 10,7.76 7.76,10 5,10 2.24,10 0,7.76 0,5 Z"
       copytype="single_stretched"
       prop_scale="0.26458333"
       scale_y_rel="false"
       spacing="0"
       normal_offset="0"
       tang_offset="0"
       prop_units="false"
       vertical_pattern="false"
       fuse_tolerance="0" />
    <inkscape:path-effect
       effect="skeletal"
       id="path-effect6762"
       is_visible="true"
       pattern="M 0,5 C 0,2.24 2.24,0 5,0 7.76,0 10,2.24 10,5 10,7.76 7.76,10 5,10 2.24,10 0,7.76 0,5 Z"
       copytype="single_stretched"
       prop_scale="0.26458333"
       scale_y_rel="false"
       spacing="0"
       normal_offset="0"
       tang_offset="0"
       prop_units="false"
       vertical_pattern="false"
       fuse_tolerance="0" />
    <inkscape:path-effect
       effect="skeletal"
       id="path-effect6758"
       is_visible="true"
       pattern="M 0,5 C 0,2.24 2.24,0 5,0 7.76,0 10,2.24 10,5 10,7.76 7.76,10 5,10 2.24,10 0,7.76 0,5 Z"
       copytype="single_stretched"
       prop_scale="0.26458333"
       scale_y_rel="false"
       spacing="0"
       normal_offset="0"
       tang_offset="0"
       prop_units="false"
       vertical_pattern="false"
       fuse_tolerance="0" />
  </defs>
  <sodipodi:namedview
     id="base"
     pagecolor="#ffffff"
     bordercolor="#666666"
     borderopacity="1.0"
     inkscape:pageopacity="0.0"
     inkscape:pageshadow="2"
     inkscape:zoom="2.8"
     inkscape:cx="-69.124931"
     inkscape:cy="49.90159"
     inkscape:document-units="mm"
     inkscape:current-layer="layer1-3"
     showgrid="false"
     inkscape:window-width="1920"
     inkscape:window-height="1027"
     inkscape:window-x="0"
     inkscape:window-y="0"
     inkscape:window-maximized="1"
     fit-margin-top="0"
     fit-margin-left="0"
     fit-margin-right="0"
     fit-margin-bottom="0" />
  <metadata
     id="metadata5">
    <rdf:RDF>
      <cc:Work
         rdf:about="">
        <dc:format>image/svg+xml</dc:format>
        <dc:type
           rdf:resource="http://purl.org/dc/dcmitype/StillImage" />
        <dc:title></dc:title>
      </cc:Work>
    </rdf:RDF>
  </metadata>
  <g
     inkscape:label="Layer 1"
     inkscape:groupmode="layer"
     id="layer1"
     transform="translate(257.3452,111.40029)">
    <g
       transform="matrix(1.0305506,0,0,1,-422.75525,-126.53028)"
       id="layer1-3"
       inkscape:label="Layer 1">
      <path
         style="fill:#95c6c2;stroke:none;stroke-width:0.26063204px;stroke-linecap:butt;stroke-linejoin:miter;stroke-opacity:1;fill-opacity:1"
         d="m 186.18177,16.428638 c 0.0816,0.07919 -0.18434,0.304787 -0.7745,0.481926 -0.37008,0.124983 -0.77508,0.226933 -1.35391,0.351603 0,0 0,10e-7 0,10e-7 -0.43476,0.09372 -0.85946,0.173932 -1.29422,0.267656 -0.14309,0.03106 -0.28955,0.06292 -0.42312,0.102597 -0.11609,0.06053 -0.13399,0.0329 -0.0379,-0.01028 -0.42642,0.296568 -0.8396,0.264995 -1.01827,0.165928 -0.30384,-0.0061 -0.50911,-0.113833 -0.47832,-0.04408 -0.7558,0.353787 -1.53731,0.0935 -1.7871,0.322244 -0.66908,0.34843 -1.36812,0.430505 -2.0464,0.488439 -0.90103,0.09651 -1.83315,0.12655 -2.8359,0.111766 -0.88842,-0.01228 -1.84511,-0.06014 -2.82738,-0.182589 -0.57174,-0.054 -1.28578,-0.129406 -2.00447,-0.467614 -0.88132,-0.314462 -1.89774,-0.216824 -3.11849,-0.169972 -0.9033,0.05964 -2.09063,0.232429 -3.33684,-0.09898 -0.55559,-0.201255 -1.23291,-0.190006 -2.01491,-0.196507 -0.99033,0.119972 -2.0291,-0.341782 -3.01943,-0.221811 -1.84584,0.02091 -3.67952,-0.224077 -5.47358,-0.199327 -0.59796,-0.07059 -0.99724,-0.241952 -1.22591,-0.366336 -0.17159,-0.174275 -0.72329,8.27e-4 -1.51189,-0.02461 -0.63808,0.05478 -1.51466,0.147384 -2.52192,-0.144939 0,0 -1e-5,-3e-6 -1e-5,-3e-6 -0.17979,-0.08479 -0.53719,-0.0416 -1.04184,-0.0705 -0.67562,-0.01031 -1.36275,0.01003 -2.07745,0.03574 0,0 -10e-6,0 -10e-6,0 -1.20931,0.04448 -2.4762,0.145943 -3.81025,0.157697 -8.74709,-0.230462 -18.47999,0.266079 -29.00064,-0.595332 0,0 0,-8e-6 0,-8e-6 0.20806,-0.354227 0.77037,-0.585147 1.51265,-0.442511 0,0 2e-5,3e-6 2e-5,3e-6 0.68772,0.869417 0.86333,1.667321 0.86195,2.131693 0.16179,0.894213 0.24036,1.770604 0.29587,2.622856 0.10447,1.564079 0.1314,3.119563 0.13488,4.681528 0.003,1.238646 0.0843,2.543634 0.0638,3.918696 -0.0114,1.252091 -0.0992,2.756886 -0.78663,4.273447 0,0 0,0 0,0 -0.14342,0.0069 -0.10174,0.527622 -0.31852,1.288262 0,0 0,10e-6 0,10e-6 -0.13108,0.904167 -0.19393,1.845081 -0.25438,2.823456 0,0 0,8e-6 0,8e-6 -0.0561,0.924543 -0.0961,1.872048 -0.16031,2.840421 -0.0217,0.336179 -0.0477,0.696727 -0.0958,1.078476 0,0 -1e-5,1e-5 -1e-5,1e-5 0.018,0.111175 -0.076,0.514863 -0.395,1.158478 0.0151,-0.208196 0.0817,0.106637 -0.15168,0.702153 -0.12458,0.677815 -0.19768,1.390734 -0.26435,2.133822 -0.15489,0.412698 -0.30618,0.824501 -0.45083,1.234661 -0.25364,0.71917 -0.4855,1.429315 -0.68183,2.131437 2.03444,-1.174783 3.87898,-1.064292 4.79198,-1.971537 6.28793,-0.861836 12.36827,-1.430266 18.42124,-1.379092 0.0352,1.1e-4 11.11061,0.04275 11.14586,0.04286 1.95877,0.01031 3.94719,-0.126618 5.95876,-0.136242 1.87813,-0.04591 3.9633,-0.125192 6.03048,0.689179 -0.19355,0.126215 0.40194,-0.246453 1.60216,-0.05289 0.8137,0.182407 1.78576,0.192872 2.80396,0.285627 0,0 1e-5,0 1e-5,0 0.54661,0.04697 1.10377,0.09727 1.67536,0.175958 0,0 0,0 0,0 0.29238,0.01243 0.77457,0.07578 1.37651,0.347687 -0.2255,-0.03646 -0.17318,-0.09964 0.1313,-0.04109 0.29111,0.0071 0.607,-0.004 0.94196,-0.01254 0.31612,-0.009 0.65715,-0.02 1.02613,-0.009 0,0 0,-6e-6 0,-6e-6 -0.009,-0.154723 0.46814,-0.08101 1.28672,0.430095 0,0 3e-5,2e-5 3e-5,2e-5 -0.2539,-0.07323 -0.40954,-0.28293 0.0652,-0.143572 0.27837,-0.06678 0.83847,-0.07595 1.58675,0.21427 0.17459,0.137556 0.61655,0.13077 1.19138,0.231501 0.80255,0.10129 1.61766,0.152888 2.42892,0.180975 0.84332,0.02798 1.65793,0.03101 2.45323,-0.02176 0.60885,-0.07289 1.06063,-0.03905 1.27094,-0.185491 0,0 1e-5,-5e-6 1e-5,-5e-6 0.68557,-0.289247 1.24202,-0.302146 1.58495,-0.265972 0.60501,-0.004 1.19203,0.02767 1.72978,0.04587 0.56169,0.01639 1.07283,0.03389 1.54724,-0.01204 0.38184,-0.106946 0.60884,-0.04814 0.50036,-0.0644 0.5394,-0.371903 0.88127,-0.461935 0.95605,-0.379267 0.25422,-0.01794 0.47259,-0.01626 0.64974,-0.01954 0.41833,0.07007 0.62032,0.362116 0.40522,0.531295 -0.60928,-1.141755 -0.62492,-2.324296 -0.53276,-3.295339 0.0932,-1.255418 0.26947,-2.287927 0.0837,-3.246353 -0.33084,-1.896684 -0.18384,-3.790865 -0.0259,-5.379538 0.09,-0.961425 0.21624,-1.879287 0.43112,-2.778247 0.10348,-0.587778 0.29104,-1.306089 0.84732,-1.922975 -0.10703,0.205262 -0.16317,0.228274 -0.0798,0.07563 0.0311,-0.132653 0.0534,-0.281789 0.0766,-0.440404 0.0654,-0.454163 0.11478,-0.929138 0.16257,-1.376118 0.0525,-0.492214 0.0973,-0.938429 0.15635,-1.41055 0.021,-0.16928 0.0436,-0.34185 0.0752,-0.520785 -0.017,-0.03233 0.0133,-0.19367 0.1432,-0.44787 0,0 3e-5,-1.2e-5 3e-5,-1.2e-5 0.92321,-0.379396 1.07446,-0.203229 0.26704,0.0048 -0.009,0.096 -0.0439,0.0174 0.0101,-0.187865 0.0348,-0.277611 0.0551,-0.567688 0.0739,-0.846687 0.0587,-0.881101 0.0959,-1.836674 0.12587,-2.546011 0.12168,-2.876755 0.18992,-4.42768 0.34825,-4.42768 0.10343,0 0.28805,1.54297 0.40522,4.428205 0.0299,0.733036 0.0616,1.651534 0.0601,2.577214 -2.8e-4,0.283358 -0.003,0.591168 -0.0226,0.905968 0.0267,0.07864 0.0218,0.308667 -0.14399,0.651094 -0.91793,0.383636 -1.06098,0.210091 -0.25166,0.0048 0,0 3e-5,-7e-6 3e-5,-7e-6 0.0364,-0.106318 0.0704,-0.101177 0.0257,0.04172 -0.0178,0.147025 -0.0288,0.301256 -0.0407,0.468418 -0.0323,0.462017 -0.0526,0.895051 -0.0808,1.398606 -0.0248,0.448285 -0.0519,0.937352 -0.0987,1.427215 -0.0154,0.165943 -0.035,0.347866 -0.0694,0.541528 0.0454,0.02121 -0.009,0.21902 -0.23945,0.555043 -0.25486,0.218265 -0.28502,0.714712 -0.44582,1.332686 -0.1618,0.819269 -0.24227,1.672977 -0.29631,2.601883 -0.083,1.573565 -0.16935,3.356104 0.17919,4.960808 0.25177,1.296563 0.12135,2.497083 0.0462,3.674561 -0.0593,1.218451 -0.11457,2.470305 0.28269,3.414492 -0.75575,0.725885 -1.44134,0.980259 -1.81177,1.078761 -0.2216,0.01094 -0.40972,0.01252 -0.55627,0.02896 -0.18243,0.106291 -0.12819,0.01274 0.22951,-0.173423 -0.63999,0.531316 -1.25769,0.676981 -1.64646,0.650767 -0.62621,0.06977 -1.22058,0.0688 -1.78783,0.0609 -0.56729,-0.0056 -1.13044,-0.02431 -1.65234,-0.008 -0.42646,0.05025 -0.69556,9.24e-4 -0.70291,0.06884 0,0 0,1e-6 0,1e-6 -0.78697,0.367699 -1.50348,0.423235 -2.03344,0.43726 -0.88769,0.07575 -1.77231,0.09147 -2.659,0.07759 -0.85428,-0.01221 -1.73365,-0.0524 -2.62455,-0.147542 -0.47558,-0.02119 -1.158,-0.07599 -1.93672,-0.429355 0.12981,-0.02836 -0.0528,0.06878 -0.47523,0.04077 -0.28586,0.137559 -0.93706,0.06564 -1.76305,-0.504611 0,0 2e-5,10e-6 2e-5,10e-6 0.48511,0.215872 0.68856,0.445766 0.2351,0.245587 0,0 -2e-5,-7e-6 -2e-5,-7e-6 -0.26997,-0.0052 -0.56598,0.01068 -0.89337,0.02386 -0.32414,0.01425 -0.67477,0.03098 -1.04805,0.02934 -0.12687,0.05174 -0.52036,0.03469 -1.13186,-0.198591 -0.0112,-0.04397 -0.24499,-0.02353 -0.64163,-0.101574 0,0 -1e-5,-2e-6 -1e-5,-2e-6 -0.50004,-0.06215 -1.01849,-0.100426 -1.56156,-0.140056 0,0 -1e-5,-10e-7 -1e-5,-10e-7 -0.9113,-0.0606 -1.97304,-0.06938 -3.09285,-0.285443 0.01,-0.0518 -0.69849,0.289444 -2.02868,-0.05289 -1.38111,-0.607236 -3.13595,-0.437558 -5.10987,-0.4453 -1.91011,0.02921 -3.90042,0.186116 -5.98271,0.196429 0.0342,-1.57e-4 -11.19217,0.04301 -11.15794,0.04286 -5.74602,-0.06002 -11.55316,0.480081 -17.6279,1.293604 -2.47556,0.838797 -4.86096,0.309979 -6.3599,0.701157 -0.19633,-1.03017 -0.35704,-2.054557 -0.49643,-3.074272 -0.0795,-0.581594 -0.15181,-1.159776 -0.21958,-1.733677 0.0671,-0.771382 0.15157,-1.565136 0.29833,-2.375409 -0.0713,-0.294571 0.0414,-0.993536 0.68441,-1.848931 -0.13079,0.342921 -0.2202,0.365851 -0.15704,0.125646 0,0 0,-7e-6 0,-7e-6 0.0372,-0.28163 0.0585,-0.588995 0.0816,-0.918529 0.0631,-0.925942 0.1045,-1.868909 0.16457,-2.825789 0,0 0,-9e-6 0,-9e-6 0.0612,-0.991492 0.13397,-2.004669 0.28392,-3.038287 0,0 0,-6e-6 0,-6e-6 -0.0345,-0.497724 0.0658,-1.367938 0.73707,-2.328213 0,0 1e-5,-1.3e-5 1e-5,-1.3e-5 0.38015,-0.684106 0.32867,-1.736907 0.36069,-2.903058 0.0263,-1.23809 -0.0492,-2.529814 -0.0462,-3.871893 0.003,-1.538047 -0.013,-3.037881 -0.10356,-4.517506 -0.0515,-0.818332 -0.11279,-1.598018 -0.24451,-2.335776 -0.18834,-0.576231 -0.1309,-0.931368 -0.17465,-0.815891 0,0 1e-5,-8e-6 1e-5,-8e-6 0.25038,-0.363786 0.0873,-0.788013 -0.30275,-1.511569 0,0 -1e-5,-1.7e-5 -1e-5,-1.7e-5 10.57072,0.02318 20.56733,-1.166678 29.61162,-1.39714 1.22914,0.01175 2.48224,-0.06712 3.75316,-0.0897 0,0 1e-5,0 1e-5,0 0.72545,-0.01324 1.44997,-0.02012 2.18625,0.0048 0.41092,-0.0061 0.97964,-0.0011 1.65443,0.207815 0,0 0,2e-6 0,2e-6 0.36576,0.178937 1.01476,0.06992 1.79463,0.08012 0.57386,-0.06895 1.45754,-0.150843 2.47063,0.284865 0.27326,0.134274 0.36902,0.23868 0.33017,0.168204 1.81387,0.02279 3.60509,0.312426 5.41896,0.335211 1.36829,-0.04327 2.31402,0.447395 2.94555,0.312729 0.83638,-0.0065 1.73973,0.03455 2.65331,0.338032 0.71944,0.271432 1.75361,0.115873 2.78061,0.117992 1.23045,-0.02645 2.48309,-0.0331 3.73138,0.414864 0.40799,0.242086 1.01545,0.316872 1.6322,0.435724 0.91227,0.153012 1.82236,0.238265 2.67879,0.29091 0.96907,0.05863 1.85153,0.07585 2.70225,0.03048 0.69901,-0.05364 1.24679,-0.04988 1.68621,-0.272576 0.92337,-0.375707 1.57063,-0.03592 1.84374,-0.212293 0.48472,-0.165158 0.8353,-0.05502 1.00224,0.01638 0.31129,-0.01412 0.46015,0.137967 0.35399,0.10546 0.21439,-0.160642 0.35855,-0.194177 0.39983,-0.174243 0.16977,-0.03385 0.33371,-0.0548 0.48102,-0.07226 0.44888,-0.05402 0.97978,-0.100388 1.32321,-0.132884 0,0 0,0 0,0 0.63652,-0.06073 0.93414,-0.08916 1.35865,-0.146984 0.60091,-0.108355 0.81142,-0.191137 0.85276,-0.151023 z"
         id="path6811"
         inkscape:connector-curvature="0"
         inkscape:path-effect="#path-effect6813"
         inkscape:original-d="m 186.18177,16.428638 c -0.46075,0.474824 -3.9425,0.722077 -4.14954,0.935444 -0.22867,0.235649 -1.12555,-0.155026 -1.42641,0 -0.5288,0.272469 -1.30348,0.0035 -1.81542,0.267269 -1.47821,0.761685 -7.81387,0.45047 -9.2068,-0.267269 -1.86823,-0.668857 -5.10372,0.02271 -6.48366,-0.400905 -0.61764,-0.212169 -1.72216,-0.267269 -2.33411,-0.267269 -1.25068,0.189064 -1.78937,-0.339721 -2.98249,-0.26727 -1.74479,0 -3.62655,-0.267269 -5.44627,-0.267269 -0.41471,0 -0.33746,-0.04025 -0.77804,-0.26727 -0.77303,-0.398324 -3.15381,0.07478 -4.14954,-0.267269 -0.96024,-0.329858 -5.89918,0 -7.2617,0 -9.87002,0 -19.4608,0.813828 -29.30613,0.400904 0.41073,0.253363 0.72493,0.346172 0.90771,0.534539 0.89237,0.919631 0.90771,6.771115 0.90771,8.552625 0,2.13695 0.31948,5.755986 -0.51869,7.483547 -0.94369,1.120183 -0.79249,8.488448 -1.16706,9.087164 -0.65474,0.674738 -0.90771,6.199954 -0.90771,7.617181 1.6421,-0.727763 4.03735,-0.54355 5.57594,-1.336347 6.1854,-0.838231 12.00556,-1.393068 18.02457,-1.336348 h 11.1519 c 2.90684,0 9.16815,-0.577196 11.54091,0.400904 0.50579,0.208497 1.27983,-0.110392 1.81542,0 1.13179,0.233273 4.87197,0.305429 5.57595,0.668174 0.42263,0.217771 2.87754,-0.10815 3.11216,0.133635 0.39849,0.410666 1.39074,-0.01837 1.94509,0.267269 1.02882,0.530122 7.11358,0.744497 8.29909,0.133635 0.9069,-0.467307 4.79443,0.270853 5.57594,-0.534539 0.23379,-0.240928 1.65136,0.03544 2.07477,-0.400904 -0.99689,-2.066498 0.0393,-4.60815 -0.38902,-6.815373 -0.43108,-2.221246 -0.145,-8.403192 0.90772,-9.488068 0.22315,-0.229968 0.35989,-4.030831 0.51869,-4.276313 0.0479,-0.07413 0.21139,0.07413 0.25935,0 0.24885,-0.384683 0.12967,-7.139983 0.12967,-8.285355"
         sodipodi:nodetypes="ccccccccssssccscccccsscccccccccccc" />
    </g>
  </g>
</svg>
