<?xml version="1.0" encoding="UTF-8" standalone="no"?>
<!-- Created with Inkscape (http://www.inkscape.org/) -->

<svg
   xmlns:dc="http://purl.org/dc/elements/1.1/"
   xmlns:cc="http://creativecommons.org/ns#"
   xmlns:rdf="http://www.w3.org/1999/02/22-rdf-syntax-ns#"
   xmlns:svg="http://www.w3.org/2000/svg"
   xmlns="http://www.w3.org/2000/svg"
   xmlns:sodipodi="http://sodipodi.sourceforge.net/DTD/sodipodi-0.dtd"
   xmlns:inkscape="http://www.inkscape.org/namespaces/inkscape"
   width="142.27974mm"
   height="40.519012mm"
   viewBox="0 0 142.27974 40.519013"
   version="1.1"
   id="svg8"
   inkscape:version="0.92.4 5da689c313, 2019-01-14"
   sodipodi:docname="frame_3_blue.svg">
  <defs
     id="defs2" />
  <sodipodi:namedview
     id="base"
     pagecolor="#ffffff"
     bordercolor="#666666"
     borderopacity="1.0"
     inkscape:pageopacity="0.0"
     inkscape:pageshadow="2"
     inkscape:zoom="1.4"
     inkscape:cx="117.85068"
     inkscape:cy="36.796002"
     inkscape:document-units="mm"
     inkscape:current-layer="layer1"
     showgrid="false"
     inkscape:window-width="1920"
     inkscape:window-height="1027"
     inkscape:window-x="0"
     inkscape:window-y="0"
     inkscape:window-maximized="1"
     fit-margin-top="0"
     fit-margin-left="0"
     fit-margin-right="0"
     fit-margin-bottom="0" />
  <metadata
     id="metadata5">
    <rdf:RDF>
      <cc:Work
         rdf:about="">
        <dc:format>image/svg+xml</dc:format>
        <dc:type
           rdf:resource="http://purl.org/dc/dcmitype/StillImage" />
        <dc:title></dc:title>
      </cc:Work>
    </rdf:RDF>
  </metadata>
  <g
     inkscape:label="Layer 1"
     inkscape:groupmode="layer"
     id="layer1"
     transform="translate(307.03565,101.93383)">
    <g
       transform="matrix(1.0305506,0,0,1,-422.75525,-126.53028)"
       id="layer1-3"
       inkscape:label="Layer 1">
      <path
         id="path3715"
         d="m 243.54601,24.717104 c -9.82936,0.452724 -19.73073,0.784727 -29.76412,1.011088 -1.90826,0.0453 -5.66479,0.135824 -8.34116,0.203732 -3.79253,0.09809 -7.66906,0.128271 -17.64245,0.135815 -7.03297,0 -12.91379,0.0226 -13.08181,0.05283 -0.36006,0.0679 -5.40075,0.120729 -20.46284,0.211275 -10.68148,0.06036 -14.24598,0.04529 -22.41911,-0.120729 -2.70037,-0.05283 -3.34847,-0.158453 -1.18817,-0.196188 0.84012,-0.0077 1.16417,-0.03776 1.02015,-0.08297 -0.12002,-0.0453 -1.72824,-0.05283 -4.16458,-0.01507 -4.53663,0.0679 -5.44876,0.06036 -12.85378,-0.03776 -2.96442,-0.03776 -5.66479,-0.07543 -5.98883,-0.07543 h -0.58808 l 0.096,1.976906 c 0.048,1.094091 0.10802,5.327086 0.12003,9.416715 0.024,7.726542 0.15601,16.939525 0.24003,17.294167 0.024,0.113185 -0.012,0.211274 -0.096,0.233905 -0.10801,0.0226 -0.15602,1.018639 -0.18002,4.187726 l -0.036,4.165085 h 1.32019 c 0.7201,0 1.34418,0.03023 1.38018,0.0679 0.036,0.03014 0.10802,0.490457 0.14403,1.018632 l 0.084,0.950732 h 0.49207 c 0.27603,0 2.78438,-0.08297 5.59277,-0.188636 2.8084,-0.105642 7.96911,-0.286735 11.46159,-0.415007 3.50449,-0.128271 8.25715,-0.294269 10.56147,-0.377272 2.31632,-0.08297 6.14485,-0.218809 8.52118,-0.301812 2.37633,-0.08297 5.80881,-0.203731 7.62106,-0.271639 2.61636,-0.09809 4.64464,-0.113185 9.84136,-0.08297 6.88896,0.04529 8.38916,0.09055 12.9618,0.399911 3.85253,0.256544 7.42903,0.332003 14.22198,0.286726 11.53359,-0.06036 30.04016,-0.08297 31.20433,-0.03776 0.66008,0.03022 1.30817,0.03022 1.44019,0 0.19203,-0.0453 0.18002,-0.06036 -0.12002,-0.06036 -0.64809,-0.0077 -2.43634,-0.249 -2.66436,-0.354634 -0.19203,-0.09055 -0.19203,-0.113185 -0.036,-0.181092 0.096,-0.03776 0.39606,-0.09809 0.6481,-0.128272 0.78011,-0.07543 0.16803,-0.158454 -1.63223,-0.218818 -2.77238,-0.09055 -2.1963,-0.173549 1.40419,-0.19618 6.85296,-0.04529 9.2893,-0.0226 10.63348,0.113186 0.87613,0.09054 1.96827,0.128271 3.48048,0.120719 2.1363,0 2.49635,-0.06036 1.03215,-0.17354 -0.38406,-0.03014 -0.84011,-0.105642 -1.02014,-0.166006 -0.18003,-0.05283 -0.56408,-0.105633 -0.86412,-0.113177 -0.80412,-0.0077 -0.24004,-0.128271 0.66008,-0.143367 0.39606,-0.0077 0.82812,-0.03776 0.96014,-0.0679 0.19203,-0.05283 0.15602,-0.0679 -0.24003,-0.120728 -0.39606,-0.04529 -0.44406,-0.0679 -0.24003,-0.113177 0.13201,-0.03776 0.45605,-0.0679 0.7081,-0.0679 0.91212,-0.01507 0.33603,-0.08297 -1.66824,-0.196179 -1.10415,-0.06036 -2.07629,-0.143359 -2.1483,-0.181084 -0.072,-0.03776 -0.32404,-0.08297 -0.55207,-0.0981 -0.22804,-0.01507 -0.40806,-0.04529 -0.38406,-0.07543 0.012,-0.03014 1.65623,-0.07543 3.66051,-0.09809 1.99228,-0.03023 4.08057,-0.07543 4.64465,-0.105633 l 1.02014,-0.06036 -1.16416,-0.0226 c -0.64809,-0.0077 -1.22418,-0.03014 -1.29618,-0.03776 -0.06,-0.0077 -1.59623,-0.03014 -3.38448,-0.03776 -2.50834,-0.0226 -3.02442,-0.03776 -2.1963,-0.08297 0.60008,-0.03014 1.86026,-0.06036 2.82039,-0.0679 2.58036,-0.0226 2.79639,-0.113185 0.48006,-0.188636 -1.94426,-0.0679 -1.96827,-0.0679 -1.02014,-0.120729 0.52808,-0.03022 2.85641,-0.113185 5.16073,-0.173549 2.31632,-0.0679 4.56062,-0.135815 5.00469,-0.158454 0.75611,-0.04529 0.80411,-0.03776 0.85211,0.128272 l 0.048,0.173549 0.096,-0.173549 c 0.072,-0.135815 0.18002,-0.165997 0.60008,-0.165997 0.27604,0 0.84011,-0.0226 1.26018,-0.05283 l 0.7441,-0.04529 -0.072,-0.988455 c -0.80411,-10.110894 -0.85212,-11.076713 -0.60008,-13.627071 0.084,-1.011097 0.28804,-11.333266 0.28804,-15.566261 v -3.825541 h -1.30819 c -1.5002,0 -1.4522,0.03014 -1.4522,-0.79227 0,-0.249 -0.036,-0.580995 -0.072,-0.739457 l -0.084,-0.279174 -0.6721,0.0077 c -0.37205,0.0077 -1.64423,0.05283 -2.83239,0.113185 z m 2.22031,1.003545 c 0,0.120728 0.036,0.324451 0.072,0.460275 l 0.084,0.241448 -7.72907,-0.04529 c -4.2486,-0.0226 -9.3133,-0.03776 -11.25758,-0.04529 -1.94426,0 -3.50448,-0.01507 -3.48047,-0.03023 0.048,-0.03776 0.92412,-0.0679 11.38958,-0.422549 3.66051,-0.128272 7.44102,-0.256544 8.40116,-0.29427 2.7964,-0.09809 2.52035,-0.113185 2.52035,0.135816 z m -0.036,7.303992 c -0.096,4.791361 -0.33605,10.518349 -0.44407,10.47308 -0.21602,-0.08297 -0.32404,4.376354 -0.15602,5.696815 l 0.096,0.641359 0.072,-0.414998 c 0.048,-0.226361 0.084,-0.626272 0.096,-0.890368 0.012,-0.256543 0.06,-0.467809 0.10801,-0.467809 0.06,0 0.16803,0.279173 0.24004,0.61872 0.072,0.34709 0.21603,0.980914 0.32404,1.403455 0.15602,0.648911 0.18003,1.509088 0.15602,5.130907 l -0.036,4.353715 -2.9404,0.09055 c -17.46243,0.520637 -25.03549,0.739455 -32.16447,0.920548 -3.20444,0.08297 -6.4449,0.17354 -7.20099,0.196179 -0.97214,0.03014 -1.3322,0.0226 -1.20017,-0.03023 0.096,-0.04529 0.58808,-0.09055 1.08014,-0.09809 0.6721,-0.0077 0.76811,-0.0226 0.36006,-0.04529 l -0.54008,-0.03014 0.40806,-0.09055 c 0.36005,-0.08297 0.12002,-0.105641 -1.98029,-0.181092 -5.34073,-0.211275 -9.07325,-0.467816 -10.12939,-0.701729 -0.56408,-0.12072 -1.21217,-0.158454 -4.3206,-0.21881 -4.52462,-0.09055 -7.81309,-0.211275 -8.52118,-0.316916 -0.51608,-0.07543 -1.82426,-0.105634 -12.84179,-0.286726 -4.3326,-0.0679 -8.55718,-0.19618 -16.38227,-0.482905 -1.94427,-0.07543 -3.50448,-0.09055 -4.80066,-0.05283 -2.1363,0.0679 -7.52505,-0.07543 -7.34502,-0.196179 0.036,-0.01507 0.32404,-0.08297 0.64809,-0.135815 l 0.57608,-0.0981 -0.44406,-0.0077 c -0.25204,-0.0077 -1.65623,-0.04529 -3.12044,-0.08297 -6.57692,-0.188636 -8.55719,-0.211275 -13.11782,-0.105633 -2.50835,0.05283 -4.78866,0.120719 -5.0647,0.143358 -0.56408,0.05283 -0.61209,0.0077 -0.33605,-0.241457 0.13209,-0.113178 0.2281,-0.505546 0.31212,-1.244994 0.19203,-1.743002 0.27603,-10.510805 0.12001,-14.396711 -0.20403,-5.311999 -0.49206,-10.118446 -0.61208,-10.405172 -0.06,-0.143367 -0.096,-0.271639 -0.072,-0.286726 0.30004,-0.188636 6.58891,-0.294277 15.67418,-0.264095 8.55718,0.03023 13.64589,-0.05283 32.10445,-0.550813 14.28198,-0.377272 19.38269,-0.467818 32.4045,-0.565908 15.01407,-0.113185 35.90897,-0.482914 45.96637,-0.82246 0.99613,-0.03023 2.08829,-0.0679 2.44834,-0.07543 l 0.64809,-0.0077 z m 1.16415,18.88625 c 0.072,2.022184 0.18003,3.772721 0.38406,6.541905 l 0.084,1.078996 h -0.51606 -0.51608 l 0.10802,-1.380817 c 0.06,-0.754544 0.10801,-2.105178 0.10801,-2.995537 0.024,-3.961365 0.072,-5.432728 0.15603,-5.432728 0.06,0 0.14402,0.988457 0.19201,2.188181 z m -111.74748,6.164633 c -0.15602,0.01507 -0.42006,0.01507 -0.60008,0 -0.19203,-0.01507 -0.06,-0.03014 0.26403,-0.03014 0.33605,0 0.48007,0.01507 0.33605,0.03014 z m -1.20017,0.07543 c -0.15602,0.01507 -0.39605,0.01507 -0.54007,0 -0.15602,-0.01507 -0.036,-0.03014 0.26403,-0.03014 0.30005,0 0.42007,0.01507 0.27604,0.03014 z m 114.69992,0.747001 c 0,0.543269 -0.024,0.641367 -0.19203,0.618729 -0.21603,-0.03014 -0.20403,0.03776 -0.10802,-0.716819 0.048,-0.34709 0.13203,-0.603633 0.19203,-0.581003 0.06,0.0226 0.10802,0.324459 0.10802,0.679093 z m -98.13765,-0.143363 c -0.084,0.01507 -0.25203,0.01507 -0.36005,0 -0.12002,-0.0226 -0.048,-0.03776 0.14402,-0.03776 0.20403,0 0.28804,0.01507 0.21603,0.03776 z m 78.46688,2.550364 c 0.6841,0.0679 1.30819,0.128271 1.36819,0.15091 0.12002,0.03014 -2.2203,0.0679 -2.9404,0.04529 -0.79212,-0.0226 -1.74025,-0.105633 -1.58423,-0.135815 0.072,-0.0226 0.12002,-0.0679 0.072,-0.105634 -0.096,-0.105641 1.69223,-0.08297 3.08442,0.04529 z M 118.0086,63.229041 c -0.58808,0.03023 -1.82425,0.08297 -2.72437,0.113185 -1.47621,0.04529 -1.65623,0.03776 -1.65623,-0.0679 0,-0.105641 0.30004,-0.120728 2.73638,-0.113185 2.14829,0.01507 2.49634,0.0226 1.64422,0.0679 z"
         inkscape:connector-curvature="0"
         style="opacity:1;fill:#95c6c2;fill-opacity:1;stroke:none;stroke-width:0.00951619" />
    </g>
  </g>
</svg>
