<?xml version="1.0" encoding="UTF-8" standalone="no"?>
<!-- Created with Inkscape (http://www.inkscape.org/) -->

<svg
   xmlns:dc="http://purl.org/dc/elements/1.1/"
   xmlns:cc="http://creativecommons.org/ns#"
   xmlns:rdf="http://www.w3.org/1999/02/22-rdf-syntax-ns#"
   xmlns:svg="http://www.w3.org/2000/svg"
   xmlns="http://www.w3.org/2000/svg"
   xmlns:sodipodi="http://sodipodi.sourceforge.net/DTD/sodipodi-0.dtd"
   xmlns:inkscape="http://www.inkscape.org/namespaces/inkscape"
   width="210mm"
   height="297mm"
   viewBox="0 0 210 297"
   version="1.1"
   id="svg8"
   inkscape:version="0.92.4 5da689c313, 2019-01-14"
   sodipodi:docname="square_frame.svg">
  <defs
     id="defs2" />
  <sodipodi:namedview
     id="base"
     pagecolor="#ffffff"
     bordercolor="#666666"
     borderopacity="1.0"
     inkscape:pageopacity="0.0"
     inkscape:pageshadow="2"
     inkscape:zoom="0.35"
     inkscape:cx="400"
     inkscape:cy="560"
     inkscape:document-units="mm"
     inkscape:current-layer="layer1"
     showgrid="false"
     inkscape:window-width="1920"
     inkscape:window-height="1027"
     inkscape:window-x="0"
     inkscape:window-y="0"
     inkscape:window-maximized="1" />
  <metadata
     id="metadata5">
    <rdf:RDF>
      <cc:Work
         rdf:about="">
        <dc:format>image/svg+xml</dc:format>
        <dc:type
           rdf:resource="http://purl.org/dc/dcmitype/StillImage" />
        <dc:title></dc:title>
      </cc:Work>
    </rdf:RDF>
  </metadata>
  <g
     inkscape:label="Layer 1"
     inkscape:groupmode="layer"
     id="layer1">
    <path
       style="fill:#000000;stroke:none;stroke-width:0.03527778"
       inkscape:connector-curvature="0"
       d="m 302.17967,41.035773 c -28.8925,2.11666 -57.99668,3.66888 -87.4889,4.72722 -5.60917,0.21166 -16.65112,0.635 -24.51806,0.9525 -11.14778,0.45861 -22.54249,0.59972 -51.85834,0.635 -20.67277,0 -37.95888,0.10583 -38.452772,0.24694 -1.05834,0.3175 -15.875,0.56445 -60.148615,0.98778 -31.3972299,0.28222 -41.8747299,0.21167 -65.8989,-0.56444 -7.9375,-0.24695 -9.8425,-0.74084 -3.4925,-0.91723 2.46945,-0.0353 3.42195,-0.17639 2.99862,-0.38805 -0.35278,-0.21167 -5.08001,-0.24695 -12.24139,-0.0705 -13.33501,0.3175 -16.01612,0.28222 -37.78251,-0.17639 -8.71361,-0.17639 -16.65111,-0.35278 -17.60361,-0.35278 h -1.72861 l 0.28222,9.24278 c 0.14111,5.11527 0.3175,24.90611 0.35278,44.02667 0.0706,36.124437 0.45861,79.198607 0.70556,80.856667 0.0705,0.52917 -0.0353,0.98778 -0.28223,1.09361 -0.3175,0.10583 -0.45861,4.7625 -0.52916,19.57917 l -0.10584,19.47333 h 3.88056 c 2.11667,0 3.95111,0.14111 4.05694,0.3175 0.10584,0.14111 0.3175,2.29306 0.42334,4.7625 l 0.24694,4.445 h 1.44639 c 0.81139,0 8.18445,-0.38805 16.43945,-0.88194 8.255,-0.49389 23.42444,-1.34056 33.69028,-1.94028 10.30111,-0.59972 24.27111,-1.37583 31.0444401,-1.76389 6.80861,-0.38805 18.0622299,-1.02305 25.0472299,-1.41111 6.985,-0.38806 17.07444,-0.9525 22.40139,-1.27 7.69055,-0.45861 13.6525,-0.52917 28.92778,-0.38806 20.249445,0.21167 24.659165,0.42334 38.099997,1.86973 11.32417,1.19944 21.83694,1.55222 41.80417,1.34055 33.90194,-0.28222 88.30028,-0.38805 91.72223,-0.17639 1.94027,0.14111 3.84527,0.14111 4.23333,0 0.56444,-0.21166 0.52917,-0.28222 -0.35278,-0.28222 -1.905,-0.0353 -7.16139,-1.16417 -7.83167,-1.65805 -0.56444,-0.42334 -0.56444,-0.52917 -0.10583,-0.84667 0.28222,-0.17639 1.16417,-0.45861 1.905,-0.59972 2.29306,-0.35278 0.49389,-0.74084 -4.79778,-1.02306 -8.14916,-0.42333 -6.45583,-0.81139 4.1275,-0.91722 20.14362,-0.21167 27.30502,-0.10583 31.25612,0.52917 2.57528,0.42333 5.78555,0.59972 10.23056,0.56444 6.27945,0 7.33778,-0.28222 3.03389,-0.81139 -1.12889,-0.14111 -2.46944,-0.49389 -2.99861,-0.77611 -0.52917,-0.24694 -1.65806,-0.49389 -2.54,-0.52917 -2.36361,-0.0353 -0.70556,-0.59972 1.94027,-0.67027 1.16418,-0.0353 2.43417,-0.17639 2.82223,-0.3175 0.56445,-0.24695 0.45861,-0.3175 -0.70556,-0.56445 -1.16417,-0.21167 -1.30527,-0.3175 -0.70555,-0.52917 0.38805,-0.17638 1.34055,-0.3175 2.08139,-0.3175 2.6811,-0.0705 0.98777,-0.38805 -4.90362,-0.91722 -3.24556,-0.28221 -6.10306,-0.67028 -6.31473,-0.84666 -0.21166,-0.17639 -0.95249,-0.38805 -1.62277,-0.45861 -0.67028,-0.0705 -1.19945,-0.21166 -1.12889,-0.35278 0.0353,-0.14111 4.86833,-0.35278 10.75972,-0.4586 5.85611,-0.14113 11.99445,-0.35278 13.6525,-0.49389 l 2.99861,-0.28223 -3.42194,-0.10583 c -1.905,-0.0353 -3.59834,-0.14111 -3.81,-0.17639 -0.17639,-0.0353 -4.69195,-0.14111 -9.94834,-0.17639 -7.37305,-0.10583 -8.89,-0.17639 -6.45583,-0.38805 1.76389,-0.14111 5.46806,-0.28222 8.29028,-0.3175 7.58472,-0.10584 8.21972,-0.52917 1.41111,-0.88195 -5.71499,-0.3175 -5.78555,-0.3175 -2.99861,-0.56444 1.55222,-0.14111 8.39612,-0.52917 15.16945,-0.81139 6.80862,-0.3175 13.40555,-0.63501 14.71084,-0.74084 2.2225,-0.21166 2.36361,-0.17638 2.50472,0.59973 l 0.14111,0.81139 0.28222,-0.81139 c 0.21167,-0.63501 0.52917,-0.77611 1.76389,-0.77611 0.81139,0 2.46945,-0.10584 3.70417,-0.24695 l 2.18722,-0.21166 -0.21166,-4.6214 c -2.36362,-47.27223 -2.50473,-51.78778 -1.76389,-63.71167 0.24694,-4.72723 0.84666,-52.987227 0.84666,-72.778067 V 48.938043 H 317.208 c -4.40972,0 -4.26861,0.14111 -4.26861,-3.70416 0,-1.16417 -0.10583,-2.71639 -0.21166,-3.45723 l -0.24695,-1.30527 -1.97555,0.0353 c -1.09362,0.0353 -4.83306,0.24694 -8.32556,0.52916 z m 6.52639,4.69194 c 0,0.56444 0.10583,1.51694 0.21167,2.15194 l 0.24694,1.12889 -22.71889,-0.21166 c -12.48833,-0.10584 -27.37556,-0.17639 -33.09057,-0.21167 -5.715,0 -10.3011,-0.0706 -10.23054,-0.14111 0.14111,-0.17639 2.71638,-0.3175 33.47861,-1.97556 10.75972,-0.59972 21.87221,-1.19944 24.69445,-1.37583 8.21972,-0.45861 7.40833,-0.52917 7.40833,0.635 z m -0.10584,34.14889 c -0.28223,22.401387 -0.98778,49.177227 -1.30528,48.965557 -0.63499,-0.38806 -0.95249,20.46111 -0.45861,26.63472 l 0.28222,2.99861 0.21167,-1.94027 c 0.14112,-1.05834 0.24694,-2.92806 0.28222,-4.16278 0.0353,-1.19945 0.1764,-2.18722 0.3175,-2.18722 0.1764,0 0.4939,1.30527 0.70556,2.89277 0.21167,1.62278 0.63499,4.58612 0.95249,6.56167 0.45862,3.03389 0.52918,7.05556 0.45862,23.98889 l -0.10584,20.35528 -8.64305,0.42333 c -51.32917,2.43417 -73.58945,3.45723 -94.54445,4.3039 -9.41917,0.38805 -18.94417,0.81139 -21.16667,0.91722 -2.8575,0.14111 -3.91584,0.10583 -3.52778,-0.14111 0.28222,-0.21167 1.72861,-0.42333 3.175,-0.45861 1.97556,-0.0353 2.25778,-0.10584 1.05833,-0.21167 l -1.5875,-0.14111 1.19945,-0.42333 c 1.05833,-0.38806 0.35278,-0.49389 -5.82084,-0.84667 -15.69861,-0.98778 -26.67,-2.18723 -29.77444,-3.28084 -1.65806,-0.56444 -3.56306,-0.74083 -12.7,-1.02305 -13.29972,-0.42334 -22.96583,-0.98778 -25.04722,-1.48167 -1.51695,-0.35278 -5.36222,-0.49389 -37.747227,-1.34056 -12.73528,-0.3175 -25.15306,-0.91722 -48.15417,-2.25777 -5.715,-0.35278 -10.30111,-0.42334 -14.11111,-0.24695 -6.2794499,0.3175 -22.1191699,-0.35278 -21.5899999,-0.91722 0.10583,-0.0705 0.9525,-0.38806 1.905,-0.635 l 1.69333,-0.45861 -1.30528,-0.0353 c -0.74083,-0.0353 -4.8683301,-0.21167 -9.1722201,-0.38806 -19.33223,-0.88194 -25.15306,-0.98778 -38.55862,-0.49389 -7.37305,0.24695 -14.07583,0.56445 -14.88722,0.67028 -1.65805,0.24695 -1.79917,0.0353 -0.98778,-1.12889 0.38806,-0.52916 0.67028,-2.36361 0.91723,-5.82083 0.56444,-8.14917 0.81138,-49.14195 0.35277,-67.31001 -0.59972,-24.835557 -1.44639,-47.307497 -1.79916,-48.648057 -0.17639,-0.67027 -0.28223,-1.27 -0.21167,-1.34055 0.88194,-0.88195 19.3675,-1.37584 46.07278,-1.23472 25.1530601,0.14111 40.11084,-0.24695 94.36806,-2.57528 41.980567,-1.76389 56.973617,-2.18722 95.250007,-2.64584 44.1325,-0.52916 105.55112,-2.25777 135.1139,-3.84527 2.92805,-0.14112 6.13833,-0.3175 7.19667,-0.35278 l 1.90499,-0.0353 z m 3.42194,88.300277 c 0.21168,9.45445 0.52918,17.63889 1.12889,30.58584 l 0.24694,5.04472 h -1.51693 -1.51694 l 0.3175,-6.45583 c 0.17638,-3.52778 0.3175,-9.8425 0.3175,-14.00528 0.0705,-18.52084 0.21166,-25.4 0.45861,-25.4 0.17639,0 0.42333,4.62139 0.56443,10.23055 z m -328.471407,28.82195 c -0.45861,0.0706 -1.23472,0.0706 -1.76389,0 -0.56444,-0.0705 -0.17639,-0.14111 0.77611,-0.14111 0.98778,0 1.41111,0.0706 0.98778,0.14111 z m -3.52778,0.35278 c -0.45861,0.0706 -1.16416,0.0706 -1.5875,0 -0.45861,-0.0706 -0.10583,-0.14111 0.77611,-0.14111 0.88195,0 1.23473,0.0706 0.81139,0.14111 z m 337.149757,3.4925 c 0,2.54 -0.0706,2.99861 -0.56445,2.89278 -0.635,-0.14112 -0.59972,0.17638 -0.3175,-3.35139 0.14111,-1.62278 0.38806,-2.82223 0.56445,-2.71639 0.17639,0.10583 0.3175,1.51694 0.3175,3.175 z M 28.706313,200.17383 c -0.24694,0.0706 -0.74083,0.0706 -1.05833,0 -0.35278,-0.10583 -0.14111,-0.17639 0.42333,-0.17639 0.59972,0 0.84667,0.0705 0.635,0.17639 z m 230.646137,11.92389 c 2.01083,0.3175 3.84526,0.59973 4.02165,0.70556 0.35278,0.14111 -6.52638,0.3175 -8.64305,0.21167 -2.32834,-0.10584 -5.11528,-0.49389 -4.65667,-0.635 0.21167,-0.10584 0.35278,-0.3175 0.21167,-0.49389 -0.28223,-0.49389 4.97417,-0.38806 9.0664,0.21166 z m -326.178367,8.99584 c -1.72861,0.14111 -5.36222,0.38805 -8.00805,0.52916 -4.33917,0.21167 -4.86834,0.17639 -4.86834,-0.3175 0,-0.49388 0.88195,-0.56444 8.04334,-0.52916 6.31472,0.0705 7.33777,0.10583 4.83305,0.3175 z"
       id="path3715" />
  </g>
</svg>
