<?xml version="1.0" encoding="UTF-8" standalone="no"?>
<!-- Created with Inkscape (http://www.inkscape.org/) -->

<svg
   xmlns:dc="http://purl.org/dc/elements/1.1/"
   xmlns:cc="http://creativecommons.org/ns#"
   xmlns:rdf="http://www.w3.org/1999/02/22-rdf-syntax-ns#"
   xmlns:svg="http://www.w3.org/2000/svg"
   xmlns="http://www.w3.org/2000/svg"
   xmlns:sodipodi="http://sodipodi.sourceforge.net/DTD/sodipodi-0.dtd"
   xmlns:inkscape="http://www.inkscape.org/namespaces/inkscape"
   width="243.5773mm"
   height="40.519012mm"
   viewBox="0 0 243.5773 40.519012"
   version="1.1"
   id="svg8"
   inkscape:version="0.92.4 5da689c313, 2019-01-14"
   sodipodi:docname="square_frame_orange.svg">
  <defs
     id="defs2" />
  <sodipodi:namedview
     id="base"
     pagecolor="#ffffff"
     bordercolor="#666666"
     borderopacity="1.0"
     inkscape:pageopacity="0.0"
     inkscape:pageshadow="2"
     inkscape:zoom="0.35"
     inkscape:cx="-287.0296"
     inkscape:cy="-316.41399"
     inkscape:document-units="mm"
     inkscape:current-layer="layer1"
     showgrid="false"
     inkscape:window-width="1920"
     inkscape:window-height="1027"
     inkscape:window-x="0"
     inkscape:window-y="0"
     inkscape:window-maximized="1"
     fit-margin-top="0"
     fit-margin-left="0"
     fit-margin-right="0"
     fit-margin-bottom="0" />
  <metadata
     id="metadata5">
    <rdf:RDF>
      <cc:Work
         rdf:about="">
        <dc:format>image/svg+xml</dc:format>
        <dc:type
           rdf:resource="http://purl.org/dc/dcmitype/StillImage" />
        <dc:title></dc:title>
      </cc:Work>
    </rdf:RDF>
  </metadata>
  <g
     inkscape:label="Layer 1"
     inkscape:groupmode="layer"
     id="layer1"
     transform="translate(-6.7736062,-24.596452)">
    <path
       style="opacity:1;fill:#febb67;fill-opacity:1;stroke:none;stroke-width:0.01245117"
       inkscape:connector-curvature="0"
       d="m 238.70119,24.717104 c -16.82748,0.452724 -33.77825,0.784727 -50.95503,1.011088 -3.26687,0.0453 -9.69789,0.135824 -14.27974,0.203732 -6.49266,0.09809 -13.12913,0.128271 -30.20318,0.135815 -12.04018,0 -22.10791,0.0226 -22.39556,0.05283 -0.6164,0.0679 -9.24587,0.120729 -35.031586,0.211275 -18.286285,0.06036 -24.388561,0.04529 -38.380651,-0.120729 -4.622934,-0.05283 -5.73244,-0.158453 -2.034095,-0.196188 1.438252,-0.0077 1.993005,-0.03776 1.746451,-0.08297 -0.205462,-0.0453 -2.958684,-0.05283 -7.129591,-0.01507 -7.766536,0.0679 -9.32807,0.06036 -22.005184,-0.03776 -5.074961,-0.03776 -9.6978947,-0.07543 -10.252648,-0.07543 H 6.7736062 l 0.1643617,1.976906 c 0.082159,1.094091 0.1849179,5.327086 0.2054738,9.416715 0.041133,7.726542 0.2670987,16.939525 0.410926,17.294167 0.041025,0.113185 -0.020567,0.211274 -0.1643725,0.233905 -0.1849178,0.0226 -0.2671094,1.018639 -0.3081892,4.187726 l -0.0617,4.165085 h 2.2601038 c 1.2327882,0 2.3011932,0.03023 2.3628292,0.0679 0.0616,0.03014 0.184918,0.490457 0.246565,1.018632 l 0.143817,0.950732 h 0.842407 c 0.472562,0 4.766761,-0.08297 9.574613,-0.188636 4.807863,-0.105642 13.642805,-0.286735 19.621798,-0.415007 5.99955,-0.128271 14.135913,-0.294269 18.08082,-0.377272 3.965451,-0.08297 10.519752,-0.218809 14.587935,-0.301812 4.068185,-0.08297 9.944448,-0.203731 13.046953,-0.271639 4.479108,-0.09809 7.951449,-0.113185 16.848033,-0.08297 11.79363,0.04529 14.36192,0.09055 22.1901,0.399911 6.59538,0.256544 12.7182,0.332003 24.34747,0.286726 19.74507,-0.06036 51.42759,-0.08297 53.4206,-0.03776 1.13004,0.03022 2.23954,0.03022 2.46555,0 0.32875,-0.0453 0.3082,-0.06036 -0.20546,-0.06036 -1.1095,-0.0077 -4.17092,-0.249 -4.56129,-0.354634 -0.32874,-0.09055 -0.32874,-0.113185 -0.0616,-0.181092 0.16437,-0.03776 0.67804,-0.09809 1.10951,-0.128272 1.33552,-0.07543 0.28766,-0.158454 -2.79431,-0.218818 -4.7462,-0.09055 -3.75998,-0.173549 2.40392,-0.19618 11.732,-0.04529 15.90292,-0.0226 18.20411,0.113186 1.49989,0.09054 3.3696,0.128271 5.95845,0.120719 3.65726,0 4.27365,-0.06036 1.76699,-0.17354 -0.65749,-0.03014 -1.43824,-0.105642 -1.74644,-0.166006 -0.3082,-0.05283 -0.96568,-0.105633 -1.47934,-0.113177 -1.37662,-0.0077 -0.41093,-0.128271 1.13004,-0.143367 0.67804,-0.0077 1.41771,-0.03776 1.64372,-0.0679 0.32875,-0.05283 0.2671,-0.0679 -0.41093,-0.120728 -0.67804,-0.04529 -0.76021,-0.0679 -0.41092,-0.113177 0.226,-0.03776 0.78075,-0.0679 1.21224,-0.0679 1.56152,-0.01507 0.57528,-0.08297 -2.85596,-0.196179 -1.89026,-0.06036 -3.55453,-0.143359 -3.67781,-0.181084 -0.12325,-0.03776 -0.55474,-0.08297 -0.94512,-0.0981 -0.39039,-0.01507 -0.69859,-0.04529 -0.65749,-0.07543 0.0206,-0.03014 2.8354,-0.07543 6.26665,-0.09809 3.4107,-0.03023 6.98578,-0.07543 7.95145,-0.105633 l 1.74644,-0.06036 -1.99299,-0.0226 c -1.10951,-0.0077 -2.09574,-0.03014 -2.21901,-0.03776 -0.10275,-0.0077 -2.73268,-0.03014 -5.79409,-0.03776 -4.29419,-0.0226 -5.17769,-0.03776 -3.75999,-0.08297 1.02732,-0.03014 3.18469,-0.06036 4.8284,-0.0679 4.41748,-0.0226 4.78731,-0.113185 0.82185,-0.188636 -3.32851,-0.0679 -3.3696,-0.0679 -1.74644,-0.120729 0.90405,-0.03022 4.89005,-0.113185 8.83496,-0.173549 3.96545,-0.0679 7.80761,-0.135815 8.56784,-0.158454 1.29443,-0.04529 1.37661,-0.03776 1.45878,0.128272 l 0.0821,0.173549 0.16438,-0.173549 c 0.12325,-0.135815 0.3082,-0.165997 1.02732,-0.165997 0.47257,0 1.43824,-0.0226 2.15738,-0.05283 l 1.27387,-0.04529 -0.12325,-0.988455 c -1.3766,-10.110894 -1.45879,-11.076713 -1.0273,-13.627071 0.14381,-1.011097 0.4931,-11.333266 0.4931,-15.566261 v -3.825541 h -2.23956 c -2.56829,0 -2.48611,0.03014 -2.48611,-0.79227 0,-0.249 -0.0616,-0.580995 -0.12324,-0.739457 l -0.14382,-0.279174 -1.1506,0.0077 c -0.63694,0.0077 -2.81486,0.05283 -4.84895,0.113185 z m 3.80108,1.003545 c 0,0.120728 0.0616,0.324451 0.12325,0.460275 l 0.14383,0.241448 -13.23187,-0.04529 c -7.27343,-0.0226 -15.944,-0.03776 -19.27253,-0.04529 -3.3285,0 -5.99954,-0.01507 -5.95843,-0.03023 0.0821,-0.03776 1.58206,-0.0679 19.49852,-0.422549 6.26664,-0.128272 12.73874,-0.256544 14.38246,-0.29427 4.78732,-0.09809 4.31474,-0.113185 4.31474,0.135816 z m -0.0616,7.303992 c -0.16438,4.791361 -0.5753,10.518349 -0.76022,10.47308 -0.36983,-0.08297 -0.55475,4.376354 -0.2671,5.696815 l 0.16437,0.641359 0.12324,-0.414998 c 0.0821,-0.226361 0.14382,-0.626272 0.16437,-0.890368 0.0205,-0.256543 0.10275,-0.467809 0.18492,-0.467809 0.10275,0 0.28765,0.279173 0.41093,0.61872 0.12325,0.34709 0.36983,0.980914 0.55474,1.403455 0.2671,0.648911 0.30821,1.509088 0.2671,5.130907 l -0.0617,4.353715 -5.03384,0.09055 c -29.89501,0.520637 -42.85979,0.739455 -55.06433,0.920548 -5.48588,0.08297 -11.03341,0.17354 -12.32782,0.196179 -1.66426,0.03014 -2.28067,0.0226 -2.05464,-0.03023 0.16435,-0.04529 1.00677,-0.09055 1.84916,-0.09809 1.15061,-0.0077 1.31497,-0.0226 0.6164,-0.04529 l -0.92459,-0.03014 0.69858,-0.09055 c 0.61639,-0.08297 0.20547,-0.105641 -3.39017,-0.181092 -9.14313,-0.211275 -15.53305,-0.467816 -17.34113,-0.701729 -0.96568,-0.12072 -2.07519,-0.158454 -7.3967,-0.21881 -7.74598,-0.09055 -13.3757,-0.211275 -14.58793,-0.316916 -0.8835,-0.07543 -3.12306,-0.105634 -21.98464,-0.286726 -7.417243,-0.0679 -14.64957,-0.19618 -28.045812,-0.482905 -3.328514,-0.07543 -5.999545,-0.09055 -8.218553,-0.05283 -3.657259,0.0679 -12.882585,-0.07543 -12.574385,-0.196179 0.06164,-0.01507 0.55475,-0.08297 1.109503,-0.135815 l 0.986224,-0.0981 -0.760215,-0.0077 c -0.431474,-0.0077 -2.8354,-0.04529 -5.34206,-0.08297 -11.259429,-0.188636 -14.649574,-0.211275 -22.457201,-0.105633 -4.2942,0.05283 -8.198007,0.120719 -8.67058,0.143358 -0.965669,0.05283 -1.047861,0.0077 -0.575299,-0.241457 0.226134,-0.113178 0.390507,-0.505546 0.534335,-1.244994 0.328745,-1.743002 0.472561,-10.510805 0.205463,-14.396711 -0.349291,-5.311999 -0.842398,-10.118446 -1.047861,-10.405172 -0.102733,-0.143367 -0.164373,-0.271639 -0.123282,-0.286726 0.513662,-0.188636 11.279964,-0.294277 26.833581,-0.264095 14.649576,0.03023 23.361244,-0.05283 54.961582,-0.550813 24.4502,-0.377272 33.18241,-0.467818 55.47524,-0.565908 25.70352,-0.113185 61.47478,-0.482914 78.69265,-0.82246 1.70534,-0.03023 3.57507,-0.0679 4.19147,-0.07543 l 1.1095,-0.0077 z m 1.99299,18.88625 c 0.12325,2.022184 0.3082,3.772721 0.65749,6.541905 l 0.14382,1.078996 h -0.88348 -0.8835 l 0.18492,-1.380817 c 0.10274,-0.754544 0.18492,-2.105178 0.18492,-2.995537 0.041,-3.961365 0.12324,-5.432728 0.26711,-5.432728 0.10275,0 0.24655,0.988457 0.32872,2.188181 z M 53.126302,58.075524 c -0.267099,0.01507 -0.719127,0.01507 -1.027315,0 -0.328745,-0.01507 -0.102733,-0.03014 0.452016,-0.03014 0.575299,0 0.821852,0.01507 0.575299,0.03014 z m -2.054641,0.07543 c -0.267099,0.01507 -0.678024,0.01507 -0.924589,0 -0.267099,-0.01507 -0.0616,-0.03014 0.452016,-0.03014 0.513674,0 0.719138,0.01507 0.472573,0.03014 z m 196.361809,0.747001 c 0,0.543269 -0.0411,0.641367 -0.32875,0.618729 -0.36983,-0.03014 -0.34928,0.03776 -0.18492,-0.716819 0.0821,-0.34709 0.22602,-0.603633 0.32875,-0.581003 0.10275,0.0226 0.18492,0.324459 0.18492,0.679093 z M 79.425617,58.754592 c -0.143823,0.01507 -0.431471,0.01507 -0.616389,0 -0.205466,-0.0226 -0.08218,-0.03776 0.246553,-0.03776 0.349288,0 0.493113,0.01507 0.369836,0.03776 z m 134.332263,2.550364 c 1.17115,0.0679 2.23956,0.128271 2.34228,0.15091 0.20548,0.03014 -3.80107,0.0679 -5.03385,0.04529 -1.35607,-0.0226 -2.97924,-0.105633 -2.71213,-0.135815 0.12325,-0.0226 0.20547,-0.0679 0.12325,-0.105634 -0.16437,-0.105641 2.89704,-0.08297 5.28041,0.04529 z M 23.78601,63.229041 c -1.006771,0.03023 -3.123046,0.08297 -4.664025,0.113185 -2.527212,0.04529 -2.835402,0.03776 -2.835402,-0.0679 0,-0.105641 0.513662,-0.120728 4.68458,-0.113185 3.6778,0.01507 4.273644,0.0226 2.814847,0.0679 z"
       id="path3715" />
  </g>
</svg>
