<?xml version="1.0" encoding="UTF-8" standalone="no"?>
<!-- Created with Inkscape (http://www.inkscape.org/) -->

<svg
   xmlns:dc="http://purl.org/dc/elements/1.1/"
   xmlns:cc="http://creativecommons.org/ns#"
   xmlns:rdf="http://www.w3.org/1999/02/22-rdf-syntax-ns#"
   xmlns:svg="http://www.w3.org/2000/svg"
   xmlns="http://www.w3.org/2000/svg"
   xmlns:sodipodi="http://sodipodi.sourceforge.net/DTD/sodipodi-0.dtd"
   xmlns:inkscape="http://www.inkscape.org/namespaces/inkscape"
   width="33.271175mm"
   height="28.903475mm"
   viewBox="0 0 33.271176 28.903475"
   version="1.1"
   id="svg8"
   inkscape:version="0.92.4 5da689c313, 2019-01-14"
   sodipodi:docname="tools_blue.svg">
  <defs
     id="defs2" />
  <sodipodi:namedview
     id="base"
     pagecolor="#ffffff"
     bordercolor="#666666"
     borderopacity="1.0"
     inkscape:pageopacity="0.0"
     inkscape:pageshadow="2"
     inkscape:zoom="0.98994949"
     inkscape:cx="343.49458"
     inkscape:cy="-11.011153"
     inkscape:document-units="mm"
     inkscape:current-layer="layer1-3"
     showgrid="false"
     inkscape:window-width="1920"
     inkscape:window-height="1027"
     inkscape:window-x="0"
     inkscape:window-y="0"
     inkscape:window-maximized="1"
     fit-margin-top="0"
     fit-margin-left="0"
     fit-margin-right="0"
     fit-margin-bottom="0" />
  <metadata
     id="metadata5">
    <rdf:RDF>
      <cc:Work
         rdf:about="">
        <dc:format>image/svg+xml</dc:format>
        <dc:type
           rdf:resource="http://purl.org/dc/dcmitype/StillImage" />
        <dc:title></dc:title>
      </cc:Work>
    </rdf:RDF>
  </metadata>
  <g
     inkscape:label="Layer 1"
     inkscape:groupmode="layer"
     id="layer1"
     transform="translate(250.61479,95.070596)">
    <g
       transform="matrix(1.0305506,0,0,1,-422.75525,-126.53028)"
       id="layer1-3"
       inkscape:label="Layer 1">
      <g
         id="g6076"
         transform="matrix(0.00252379,0,0,-0.00260089,167.01981,60.374039)"
         style="fill:#95c6c2;stroke:none;fill-opacity:1">
        <path
           id="path6074"
           d="m 6800,11114 c -377,-28 -726,-85 -1100,-182 -74,-19 -147,-37 -162,-40 -16,-2 -28,-8 -28,-12 0,-15 75,-17 125,-4 111,28 287,38 432,25 522,-48 1088,-272 1565,-621 149,-108 387,-349 471,-476 108,-163 158,-289 177,-449 17,-144 -5,-254 -84,-415 l -51,-105 v -115 c 0,-68 6,-136 14,-165 16,-57 65,-161 89,-188 15,-17 13,-20 -19,-51 -19,-19 -496,-457 -1060,-974 l -1027,-940 -778,675 c -429,371 -792,686 -807,699 l -28,24 45,182 c 143,575 385,1555 388,1570 2,13 -68,59 -287,189 -1010,599 -1819,1082 -1970,1178 -66,41 -125,76 -132,77 -9,2 -360,-314 -635,-572 l -67,-63 527,-483 c 668,-612 776,-711 834,-764 l 46,-43 -60,-193 c -33,-106 -68,-220 -78,-253 -37,-121 -119,-381 -127,-404 -9,-23 -45,-33 -483,-147 -453,-118 -475,-123 -494,-106 -10,9 -328,299 -704,645 l -685,627 -26,-23 C 244,8874 11,8657 7,8646 c -3,-8 146,-209 370,-497 386,-497 658,-851 1032,-1346 118,-156 220,-283 228,-283 13,0 79,11 328,55 50,9 141,25 203,36 61,10 163,28 225,39 61,10 164,28 227,39 63,11 167,29 230,40 63,11 167,29 230,40 63,11 169,30 235,41 66,12 143,25 170,30 l 50,8 125,-122 c 124,-122 951,-926 1023,-995 l 37,-37 -437,-384 C 4042,5098 3560,4674 3210,4366 2861,4059 2377,3634 2136,3421 1243,2636 909,2343 684,2144 556,2032 427,1913 397,1880 278,1751 241,1606 294,1467 c 29,-78 65,-135 138,-219 60,-69 902,-842 986,-905 70,-53 193,-114 292,-145 61,-19 97,-23 195,-23 139,0 196,14 294,72 63,38 150,121 1456,1383 226,218 489,472 585,565 170,164 292,281 1175,1135 629,609 863,832 870,831 5,0 815,-787 1415,-1376 124,-121 495,-484 825,-805 330,-322 787,-767 1015,-990 707,-689 743,-724 810,-772 135,-95 241,-147 390,-188 111,-31 343,-35 458,-7 255,61 473,205 633,417 53,69 132,234 153,320 71,280 -16,562 -241,781 -65,64 -3593,3128 -4362,3789 -132,113 -239,210 -239,215 0,6 276,262 612,570 336,308 806,738 1045,957 l 433,397 78,-55 c 91,-63 197,-115 290,-140 98,-27 313,-25 449,4 127,27 203,28 305,2 194,-49 340,-165 634,-503 l 120,-138 -98,-95 c -79,-77 -103,-108 -131,-167 -32,-67 -34,-79 -34,-172 0,-85 4,-110 28,-170 53,-135 164,-252 302,-316 95,-45 158,-59 266,-59 111,0 192,22 273,74 51,33 892,795 973,882 132,141 149,356 43,535 -53,90 -161,189 -252,233 -104,49 -150,60 -263,60 -103,0 -164,-14 -249,-56 l -38,-19 -25,23 c -50,45 -196,225 -255,313 -33,50 -109,187 -168,305 -125,250 -150,295 -233,410 -100,140 -323,397 -428,495 -114,105 -508,474 -594,555 -131,124 -831,778 -890,831 -101,93 -231,192 -369,284 -420,279 -861,438 -1421,511 -116,15 -618,27 -745,18 z m 4361,-9815 c 90,-25 181,-89 234,-161 59,-79 79,-143 79,-248 0,-77 -3,-92 -37,-161 -63,-132 -173,-213 -335,-247 -103,-21 -204,-7 -307,43 -87,42 -120,75 -146,150 -61,174 -17,416 100,547 50,57 105,84 191,96 80,11 135,6 221,-19 z"
           inkscape:connector-curvature="0"
           style="fill:#95c6c2;fill-opacity:1" />
      </g>
    </g>
  </g>
</svg>
